<svg width="166" height="151" viewBox="0 0 166 151" fill="none" xmlns="http://www.w3.org/2000/svg">
<path d="M138.126 130.308H38.5236C38.2132 130.311 37.9057 130.249 37.6205 130.126C37.3353 130.003 37.0787 129.823 36.8667 129.596C36.6547 129.37 36.4921 129.101 36.3891 128.809C36.286 128.516 36.2448 128.205 36.268 127.895L40.37 62.8036C40.422 62.1549 40.7133 61.5486 41.1873 61.1026C41.6614 60.6567 42.2843 60.4029 42.9351 60.3907H142.532C142.842 60.3884 143.15 60.4504 143.435 60.573C143.72 60.6955 143.977 60.8758 144.189 61.1026C144.401 61.3293 144.563 61.5976 144.666 61.8903C144.769 62.1831 144.811 62.4941 144.787 62.8036L140.685 127.895C140.634 128.543 140.343 129.149 139.87 129.595C139.397 130.04 138.775 130.295 138.126 130.308Z" fill="#263238"/>
<path opacity="0.6" d="M138.126 130.308H38.5236C38.2132 130.311 37.9057 130.249 37.6205 130.126C37.3353 130.003 37.0787 129.823 36.8667 129.596C36.6547 129.37 36.4921 129.101 36.3891 128.809C36.286 128.516 36.2448 128.205 36.268 127.895L40.37 62.8036C40.422 62.1549 40.7133 61.5486 41.1873 61.1026C41.6614 60.6567 42.2843 60.4029 42.9351 60.3907H142.532C142.842 60.3884 143.15 60.4504 143.435 60.573C143.72 60.6955 143.977 60.8758 144.189 61.1026C144.401 61.3293 144.563 61.5976 144.666 61.8903C144.769 62.1831 144.811 62.4941 144.787 62.8036L140.685 127.895C140.634 128.543 140.343 129.149 139.87 129.595C139.397 130.04 138.775 130.295 138.126 130.308Z" fill="black"/>
<path d="M137.38 130.308H37.7827C37.4719 130.311 37.1638 130.25 36.878 130.128C36.5922 130.005 36.3349 129.825 36.1224 129.598C35.9099 129.372 35.7468 129.103 35.6434 128.81C35.54 128.517 35.4987 128.205 35.5219 127.895L39.6239 62.8037C39.6759 62.1549 39.9672 61.5486 40.4412 61.1027C40.9153 60.6567 41.5382 60.403 42.189 60.3907H141.786C142.096 60.3876 142.404 60.4492 142.69 60.5714C142.975 60.6937 143.232 60.874 143.444 61.1009C143.657 61.3278 143.819 61.5964 143.922 61.8895C144.025 62.1827 144.065 62.494 144.041 62.8037L139.939 127.895C139.887 128.543 139.597 129.149 139.124 129.595C138.651 130.04 138.029 130.295 137.38 130.308Z" fill="#263238"/>
<g filter="url(#filter0_d_1653_1036)">
<path d="M137.255 131.138H18.7426C18.197 131.133 17.6611 131.282 17.197 131.569C16.7329 131.856 16.3594 132.268 16.1198 132.759C16.0591 132.886 16.0319 133.027 16.0407 133.167C16.0495 133.308 16.0941 133.444 16.1703 133.563C16.2464 133.682 16.3516 133.779 16.4759 133.846C16.6002 133.912 16.7394 133.946 16.8804 133.944H139.091C139.232 133.946 139.371 133.912 139.495 133.846C139.619 133.779 139.725 133.682 139.801 133.563C139.877 133.444 139.922 133.308 139.93 133.167C139.939 133.027 139.912 132.886 139.851 132.759C139.615 132.272 139.245 131.861 138.786 131.575C138.327 131.288 137.796 131.137 137.255 131.138Z" fill="#263238"/>
</g>
<path opacity="0.6" d="M137.254 131.138H120.4C119.858 131.136 119.327 131.287 118.868 131.574C118.409 131.861 118.04 132.271 117.803 132.759C117.743 132.885 117.716 133.026 117.724 133.166C117.733 133.306 117.777 133.442 117.852 133.561C117.928 133.679 118.032 133.777 118.156 133.844C118.28 133.911 118.418 133.945 118.559 133.944H139.09C139.231 133.946 139.37 133.912 139.494 133.846C139.618 133.779 139.724 133.682 139.8 133.563C139.876 133.444 139.921 133.308 139.929 133.167C139.938 133.027 139.911 132.886 139.85 132.759C139.614 132.272 139.244 131.861 138.785 131.575C138.326 131.288 137.795 131.136 137.254 131.138Z" fill="black"/>
<path d="M126.806 133.184H122.452C122.351 133.182 122.255 133.141 122.185 133.07C122.114 132.998 122.074 132.902 122.074 132.801C122.074 132.7 122.114 132.604 122.185 132.532C122.255 132.46 122.351 132.419 122.452 132.418H126.806C126.856 132.418 126.906 132.428 126.952 132.447C126.999 132.466 127.041 132.495 127.076 132.53C127.112 132.566 127.14 132.608 127.159 132.654C127.179 132.701 127.189 132.751 127.189 132.801C127.189 132.851 127.179 132.901 127.159 132.947C127.14 132.994 127.112 133.036 127.076 133.072C127.041 133.107 126.999 133.135 126.952 133.155C126.906 133.174 126.856 133.184 126.806 133.184Z" fill="#5ABF9D"/>
<path opacity="0.7" d="M70.8213 133.184H66.4728C66.3712 133.184 66.2738 133.143 66.202 133.072C66.1302 133 66.0898 132.902 66.0898 132.801C66.0898 132.751 66.0998 132.701 66.119 132.654C66.1382 132.608 66.1664 132.566 66.202 132.53C66.2376 132.495 66.2798 132.466 66.3262 132.447C66.3727 132.428 66.4225 132.418 66.4728 132.418H70.8213C70.8716 132.418 70.9214 132.428 70.9678 132.447C71.0143 132.466 71.0565 132.495 71.0921 132.53C71.1276 132.566 71.1558 132.608 71.1751 132.654C71.1943 132.701 71.2042 132.751 71.2042 132.801C71.2042 132.902 71.1639 133 71.0921 133.072C71.0203 133.143 70.9229 133.184 70.8213 133.184Z" fill="white"/>
<path d="M131.311 132.418H128.463C128.289 132.418 128.148 132.559 128.148 132.733V132.869C128.148 133.043 128.289 133.184 128.463 133.184H131.311C131.485 133.184 131.626 133.043 131.626 132.869V132.733C131.626 132.559 131.485 132.418 131.311 132.418Z" fill="#5ABF9D"/>
<path d="M37.7675 125.546L41.5758 65.1545C41.5954 64.9026 41.7085 64.6671 41.893 64.4943C42.0774 64.3215 42.3197 64.224 42.5724 64.2208H140.921C141.041 64.219 141.161 64.2423 141.272 64.2894C141.383 64.3364 141.483 64.4061 141.565 64.494C141.648 64.5819 141.711 64.6861 141.751 64.7998C141.791 64.9135 141.806 65.0344 141.797 65.1545L137.994 125.546C137.973 125.799 137.859 126.034 137.673 126.207C137.488 126.38 137.245 126.477 136.992 126.48H38.6488C38.5283 126.481 38.4089 126.457 38.298 126.41C38.1872 126.363 38.0873 126.293 38.0046 126.205C37.9218 126.118 37.8581 126.014 37.8173 125.9C37.7765 125.787 37.7596 125.666 37.7675 125.546Z" fill="white"/>
<path opacity="0.1" d="M93.7185 62.3584L60.9602 124.623H36.7941C36.6729 124.625 36.5526 124.601 36.441 124.554C36.3294 124.507 36.2289 124.436 36.146 124.348C36.063 124.26 35.9995 124.155 35.9593 124.041C35.9192 123.926 35.9033 123.805 35.9128 123.684L39.7211 63.2973C39.7406 63.0449 39.8536 62.8088 40.0379 62.6352C40.2222 62.4615 40.4646 62.3629 40.7177 62.3584H93.7185Z" fill="#5ABF9D"/>
<path opacity="0.1" d="M122.404 62.3584L89.6453 124.623H82.0078L114.766 62.3584H122.404Z" fill="#5ABF9D"/>
<path opacity="0.1" d="M139.939 63.2967L136.131 123.683C136.112 123.936 136 124.173 135.815 124.347C135.63 124.521 135.387 124.619 135.134 124.622H97.8906L130.649 62.3577H139.042C139.164 62.3545 139.286 62.3769 139.399 62.4235C139.512 62.4701 139.614 62.5399 139.698 62.6283C139.783 62.7168 139.848 62.8219 139.889 62.937C139.931 63.0522 139.948 63.1747 139.939 63.2967Z" fill="#5ABF9D"/>
<path opacity="0.4" d="M92.5694 62.4211C92.5551 62.6113 92.4702 62.7894 92.3315 62.9204C92.1927 63.0514 92.0101 63.1258 91.8193 63.1292C91.7282 63.1303 91.6378 63.1123 91.554 63.0764C91.4702 63.0405 91.3948 62.9876 91.3326 62.921C91.2704 62.8543 91.2228 62.7755 91.1928 62.6894C91.1628 62.6033 91.1511 62.5119 91.1584 62.4211C91.1715 62.2304 91.256 62.0516 91.395 61.9204C91.534 61.7892 91.7173 61.7151 91.9085 61.7129C91.9996 61.7119 92.09 61.7299 92.1738 61.7658C92.2576 61.8016 92.333 61.8546 92.3952 61.9212C92.4573 61.9878 92.505 62.0667 92.535 62.1528C92.565 62.2388 92.5767 62.3302 92.5694 62.4211Z" fill="white"/>
<path d="M76.3184 47.9386C73.4491 51.2223 71.7916 61.2885 73.916 66.2403C76.0404 71.192 51.3917 76.1491 71.7286 84.1957C92.0655 92.2423 108.332 82.9106 102.446 74.5754C96.5609 66.2403 103.081 52.3606 96.2672 48.8723C90.1089 45.6936 82.0675 41.3555 76.3184 47.9386Z" fill="#263238"/>
<path d="M70.2386 88.4705C69.1632 92.1424 68.0197 95.8143 66.8342 99.4861C65.6487 103.158 64.416 106.788 63.1099 110.434L62.6116 111.808L62.3598 112.495L62.2811 112.7L62.1552 113.009C62.0765 113.208 61.9559 113.424 61.851 113.628C61.3382 114.565 60.5731 115.339 59.6426 115.863C58.7979 116.321 57.855 116.57 56.8939 116.587C55.5461 116.593 54.2105 116.331 52.965 115.815C51.9456 115.402 50.9584 114.913 50.0118 114.352C46.5726 112.237 43.4203 109.688 40.6328 106.767L42.8936 104.102C43.6542 104.59 44.4673 105.109 45.2541 105.597C46.0409 106.085 46.8645 106.557 47.6618 107.024C49.2241 107.938 50.8371 108.763 52.4929 109.495C53.2475 109.827 54.026 110.103 54.822 110.318C55.3724 110.501 55.9544 110.569 56.532 110.517C56.6789 110.517 56.6526 110.434 56.532 110.481C56.4113 110.528 56.2802 110.664 56.275 110.649C56.2697 110.633 56.275 110.649 56.275 110.617C56.2774 110.607 56.2774 110.596 56.275 110.586L56.3169 110.455L56.5163 109.778L56.9202 108.414L60.1252 97.3984C61.2163 93.7265 62.3388 90.0547 63.4928 86.3828L70.2386 88.4705Z" fill="#B65B52"/>
<path d="M42.732 104.018L36.6367 101.763L39.0549 108.204C39.0549 108.204 43.3562 108.823 45.0243 106.562L43.6657 104.742C43.4302 104.416 43.1062 104.165 42.732 104.018Z" fill="#B55B52"/>
<path d="M31.2578 103.635L33.5763 108.917L39.0789 108.193L36.6555 101.752L31.2578 103.635Z" fill="#B55B52"/>
<path d="M65.7913 78.971C63.0007 79.6792 61.0703 91.1511 61.0703 91.1511L68.755 96.3967C68.755 96.3967 76.0987 84.825 73.9743 81.7616C71.7187 78.5461 69.8566 77.9377 65.7913 78.971Z" fill="#5ABF9D"/>
<path opacity="0.5" d="M65.7913 78.971C63.0007 79.6792 61.0703 91.1511 61.0703 91.1511L68.755 96.3967C68.755 96.3967 76.0987 84.825 73.9743 81.7616C71.7187 78.5461 69.8566 77.9377 65.7913 78.971Z" fill="white"/>
<path opacity="0.2" d="M65.5391 83.1406L71.5032 84.5202L72.075 90.3585C71.0645 92.4197 69.9492 94.4278 68.7336 96.3751L64.0703 93.2278C64.2749 90.5263 64.7785 84.9766 65.5391 83.1406Z" fill="black"/>
<path d="M65.7902 78.9703C65.7902 78.9703 62.5642 80.1033 69.0215 119.791H96.487C96.0254 108.613 96.0149 101.715 101.355 78.7762C97.5105 77.9812 93.6132 77.4675 89.6941 77.2393C85.0728 77.0137 81.3012 76.8668 77.2202 77.2393C71.8645 77.7271 65.7902 78.9703 65.7902 78.9703Z" fill="#5ABF9D"/>
<path opacity="0.5" d="M65.7902 78.9703C65.7902 78.9703 62.5642 80.1033 69.0215 119.791H96.487C96.0254 108.613 96.0149 101.715 101.355 78.7762C97.5105 77.9812 93.6132 77.4675 89.6941 77.2393C85.0728 77.0137 81.3012 76.8668 77.2202 77.2393C71.8645 77.7271 65.7902 78.9703 65.7902 78.9703Z" fill="white"/>
<path opacity="0.2" d="M94.8907 89.4258L98.4367 92.4472C97.6813 96.46 97.1725 99.7909 96.863 102.776C96.1864 99.7962 94.4973 91.7076 94.8907 89.4258Z" fill="black"/>
<path d="M88.4556 63.1924C87.6688 67.2052 86.882 74.5594 89.6936 77.2399C89.6936 77.2399 87.0708 83.2513 80.1205 83.2513C73.1702 83.2513 77.2197 77.2399 77.2197 77.2399C81.6942 76.1908 81.5788 72.8494 80.8024 69.7336L88.4556 63.1924Z" fill="#B55B52"/>
<path d="M88.8018 75.74C88.1409 77.0776 86.0112 80.1357 80.0628 81.2268C79.8974 81.2572 79.7267 81.2234 79.5854 81.1324C78.4734 80.356 77.781 78.7142 78.2688 76.8101C78.3011 76.6931 78.3001 76.5694 78.2658 76.453C78.2315 76.3365 78.1653 76.232 78.0747 76.1512C77.9841 76.0705 77.8727 76.0167 77.7532 75.9959C77.6336 75.9751 77.5106 75.9882 77.398 76.0337C76.9411 76.2249 76.5023 76.4567 76.0867 76.7261C75.9954 76.7867 75.9213 76.8698 75.8716 76.9674C75.4362 77.7857 73.6737 81.7933 78.9927 84.264C79.0775 84.3003 79.1681 84.3216 79.2602 84.3269C82.4075 84.3899 87.9101 83.7709 91.3879 77.5077C91.45 77.3946 91.4776 77.2658 91.4673 77.1372C91.4571 77.0085 91.4094 76.8857 91.3301 76.7838C90.8628 76.2722 90.3197 75.8352 89.7198 75.4882C89.6442 75.4397 89.5593 75.4076 89.4706 75.3941C89.3819 75.3805 89.2913 75.3858 89.2047 75.4095C89.1181 75.4333 89.0375 75.475 88.9681 75.5319C88.8987 75.5888 88.842 75.6597 88.8018 75.74Z" fill="#FAFAFA"/>
<path d="M90.2615 92.2519L83.1801 92.0474C83.1061 92.0478 83.0328 92.0326 82.9651 92.0027C82.8973 91.9728 82.8367 91.9289 82.7872 91.8739C82.7376 91.8189 82.7003 91.7541 82.6776 91.6836C82.6549 91.6132 82.6474 91.5387 82.6555 91.4651L82.7237 90.5891C82.7442 90.4418 82.818 90.307 82.931 90.2104C83.0441 90.1137 83.1887 90.0619 83.3374 90.0646L90.4189 90.2691C90.4934 90.2686 90.5672 90.2839 90.6353 90.3141C90.7034 90.3443 90.7643 90.3887 90.814 90.4443C90.8636 90.4999 90.9008 90.5654 90.9232 90.6365C90.9455 90.7076 90.9524 90.7827 90.9435 90.8566L90.8753 91.7274C90.8548 91.8747 90.781 92.0095 90.6679 92.1061C90.5548 92.2028 90.4103 92.2546 90.2615 92.2519Z" fill="#FAFAFA"/>
<path opacity="0.2" d="M85.3368 65.8623L80.8047 69.7283C80.9991 70.4532 81.129 71.194 81.1929 71.9419C82.8977 71.6953 85.2476 69.8174 85.4312 68.0287C85.5316 67.3068 85.4996 66.5727 85.3368 65.8623Z" fill="black"/>
<path d="M93.7457 55.6018C92.4815 62.1954 92.0881 65.0123 88.2903 67.9865C82.5779 72.4662 74.7569 69.4657 74.033 62.6308C73.3773 56.4778 75.5542 46.7316 82.4258 44.9271C83.9316 44.527 85.5147 44.5178 87.025 44.9005C88.5353 45.2833 89.923 46.0452 91.0565 47.1141C92.1901 48.183 93.032 49.5236 93.5026 51.009C93.9732 52.4943 94.0569 54.0751 93.7457 55.6018Z" fill="#B55B52"/>
<path d="M89.9904 50.7232C89.1721 54.8514 88.978 60.3225 92.76 60.3225C96.542 60.3225 99.5058 53.8862 96.243 48.8453C92.9803 43.8043 90.4677 48.2893 89.9904 50.7232Z" fill="#263238"/>
<path d="M96.5279 51.2324C96.5279 55.7226 90.8732 53.5037 88.3711 51.5681C85.869 49.6325 85.7484 49.8423 81.1113 49.8371C76.4743 49.8319 75.5458 49.5119 74.1767 47.2983C72.8077 45.0847 72.9336 43.6264 76.0179 44.0932C79.1023 44.5601 76.511 41.4128 78.8085 39.666C81.1061 37.9193 83.8285 38.3599 86.9706 42.3465C90.1126 46.3331 96.5279 43.4533 96.5279 51.2324Z" fill="#263238"/>
<path d="M94.8704 61.4686C95.4654 59.4392 94.8817 57.4815 93.5668 57.096C92.2518 56.7105 90.7035 58.0431 90.1086 60.0725C89.5136 62.1019 90.0972 64.0596 91.4122 64.4451C92.7271 64.8306 94.2754 63.498 94.8704 61.4686Z" fill="white"/>
<path d="M84.3687 66.5441C83.1512 66.5439 81.9465 66.2958 80.828 65.815C80.804 65.8053 80.7823 65.7908 80.764 65.7725C80.7457 65.7543 80.7312 65.7325 80.7214 65.7086C80.7116 65.6846 80.7068 65.659 80.707 65.6331C80.7073 65.6072 80.7128 65.5817 80.7231 65.558C80.7449 65.5101 80.7843 65.4725 80.8332 65.453C80.882 65.4334 80.9365 65.4335 80.9853 65.4531C82.0394 65.9054 83.1734 66.1417 84.3204 66.148C85.4674 66.1543 86.604 65.9305 87.6629 65.4898C88.6928 65.0683 89.6281 64.4452 90.4136 63.6569C91.1991 62.8687 91.8191 61.9313 92.237 60.8999C93.8106 56.394 95.4158 50.7708 93.5589 47.2616C93.1853 46.5786 92.6684 45.9844 92.0437 45.5199C91.419 45.0555 90.7011 44.7316 89.9395 44.5706C89.8889 44.5571 89.8457 44.5241 89.8192 44.479C89.7927 44.4339 89.785 44.3801 89.7978 44.3293C89.8114 44.2788 89.8443 44.2356 89.8894 44.2091C89.9346 44.1826 89.9884 44.1749 90.0391 44.1877C90.8529 44.3628 91.6194 44.7111 92.2865 45.209C92.9536 45.7068 93.5056 46.3425 93.9051 47.0727C95.8354 50.6974 94.2251 56.4308 92.6042 61.0206C92.1645 62.1037 91.5123 63.0878 90.6862 63.9149C89.8601 64.7419 88.8767 65.3951 87.794 65.836C86.709 66.2919 85.5456 66.5324 84.3687 66.5441Z" fill="white"/>
<path opacity="0.6" d="M94.6781 61.4869C94.2113 63.0606 93.1412 64.1674 92.2861 63.9208C91.4311 63.6743 91.1164 62.1741 91.5832 60.5794C92.0501 58.9848 93.1202 57.8937 93.9752 58.1455C94.8302 58.3973 95.145 59.8923 94.6781 61.4869Z" fill="#5ABF9D"/>
<path d="M81.3733 64.9465L79.3182 64.55C78.9569 64.4803 78.6076 64.7167 78.5379 65.0779L78.515 65.1964C78.4453 65.5577 78.6817 65.907 79.0429 65.9767L81.098 66.3732C81.4593 66.4429 81.8086 66.2066 81.8783 65.8453L81.9012 65.7268C81.9709 65.3656 81.7345 65.0162 81.3733 64.9465Z" fill="white"/>
<path d="M78.6874 56.1523C78.6874 56.1523 77.4704 58.3607 76.3164 59.3521C76.9406 60.1127 78.1996 59.9658 78.1996 59.9658L78.6874 56.1523Z" fill="#A02724"/>
<path d="M79.8463 62.788H79.8935C81.0828 62.8819 82.2634 62.5221 83.1982 61.7809C83.2174 61.7613 83.2282 61.7349 83.2282 61.7075C83.2282 61.68 83.2174 61.6536 83.1982 61.634C83.1889 61.6247 83.1779 61.6172 83.1657 61.6122C83.1536 61.6071 83.1406 61.6045 83.1274 61.6045C83.1142 61.6045 83.1012 61.6071 83.089 61.6122C83.0769 61.6172 83.0658 61.6247 83.0566 61.634C82.164 62.3356 81.0414 62.678 79.9093 62.594C79.8957 62.5917 79.8819 62.5923 79.8687 62.5957C79.8554 62.599 79.843 62.6051 79.8321 62.6134C79.8213 62.6218 79.8123 62.6323 79.8057 62.6443C79.7992 62.6563 79.7951 62.6695 79.7938 62.6831C79.7911 62.7039 79.7947 62.7249 79.804 62.7436C79.8134 62.7623 79.8281 62.7778 79.8463 62.788Z" fill="#263238"/>
<path d="M85.8473 53.5562C85.877 53.5727 85.9104 53.5814 85.9444 53.5814C85.9783 53.5814 86.0117 53.5727 86.0414 53.5562C86.0864 53.5262 86.118 53.48 86.1297 53.4272C86.1415 53.3744 86.1324 53.3192 86.1044 53.2729C85.8535 52.8529 85.5062 52.4986 85.0911 52.2395C84.676 51.9805 84.2052 51.824 83.7176 51.7832C83.6629 51.7832 83.6103 51.8046 83.5711 51.8428C83.5319 51.881 83.5092 51.933 83.5078 51.9878C83.5078 52.0411 83.5286 52.0924 83.5659 52.1306C83.6031 52.1688 83.6538 52.191 83.7071 52.1924C84.1273 52.2324 84.532 52.3711 84.8884 52.5972C85.2448 52.8232 85.5428 53.1302 85.7581 53.4932C85.7816 53.5219 85.8125 53.5437 85.8473 53.5562Z" fill="#263238"/>
<path d="M82.8437 56.2416C82.7545 56.7662 82.3926 57.1701 82.0359 57.1124C81.6792 57.0547 81.4746 56.5878 81.5638 56.0213C81.653 55.4548 82.0202 55.0929 82.3716 55.1506C82.7231 55.2083 82.9381 55.7013 82.8437 56.2416Z" fill="#263238"/>
<path d="M76.7265 55.2032C76.6373 55.7277 76.2754 56.1316 75.9187 56.0739C75.562 56.0162 75.3574 55.5231 75.4466 54.9828C75.5358 54.4426 75.903 54.0491 76.2544 54.1121C76.6059 54.175 76.8209 54.6576 76.7265 55.2032Z" fill="#263238"/>
<path d="M76.4059 54.1703L75.168 53.5723C75.168 53.5723 75.661 54.7001 76.4059 54.1703Z" fill="#263238"/>
<path d="M82.5231 55.208L81.2852 54.6152C81.2852 54.6152 81.7782 55.743 82.5231 55.208Z" fill="#263238"/>
<path d="M74.6501 51.5466C74.6818 51.5656 74.718 51.5756 74.755 51.5756C74.7919 51.5756 74.8282 51.5656 74.8599 51.5466C75.1836 51.2746 75.5682 51.0848 75.981 50.9934C76.3939 50.9021 76.8227 50.9119 77.2309 51.0221C77.2824 51.0402 77.3389 51.0371 77.3881 51.0135C77.4373 50.9899 77.4751 50.9477 77.4932 50.8962C77.5112 50.8447 77.5081 50.7882 77.4845 50.739C77.4609 50.6898 77.4187 50.652 77.3673 50.6339C76.8965 50.4999 76.4004 50.4814 75.9209 50.58C75.4415 50.6786 74.993 50.8914 74.6134 51.2004C74.5914 51.2159 74.573 51.2358 74.5591 51.2588C74.5452 51.2818 74.5363 51.3074 74.5329 51.334C74.5294 51.3606 74.5315 51.3877 74.5391 51.4134C74.5466 51.4392 74.5594 51.4631 74.5766 51.4837C74.5942 51.5116 74.6198 51.5336 74.6501 51.5466Z" fill="#263238"/>
<path d="M67.9775 126.479C67.9775 126.479 67.9041 122.723 69.0267 119.791H96.487C96.487 119.791 98.9576 123.778 99.5976 126.479H67.9775Z" fill="#5ABF9D"/>
<path d="M96.8992 118.182L97.1142 120.636C97.2139 120.831 96.9883 121.025 96.6684 121.025H68.8671C68.6205 121.025 68.416 120.904 68.4002 120.747L68.1484 118.286C68.1484 118.119 68.3478 117.972 68.6205 117.972H96.4218C96.5128 117.962 96.6047 117.976 96.6884 118.013C96.7721 118.05 96.8448 118.108 96.8992 118.182Z" fill="#5ABF9D"/>
<path opacity="0.3" d="M96.8992 118.182L97.1142 120.636C97.2139 120.831 96.9883 121.025 96.6684 121.025H68.8671C68.6205 121.025 68.416 120.904 68.4002 120.747L68.1484 118.286C68.1484 118.119 68.3478 117.972 68.6205 117.972H96.4218C96.5128 117.962 96.6047 117.976 96.6884 118.013C96.7721 118.05 96.8448 118.108 96.8992 118.182Z" fill="#FAFAFA"/>
<path d="M93.159 121.286H93.9038C94.0559 121.286 94.1661 121.213 94.1556 121.118L93.8094 117.924C93.8094 117.829 93.6678 117.756 93.5209 117.756H92.7603C92.6082 117.756 92.498 117.829 92.5085 117.924L92.8547 121.118C92.8809 121.213 93.0121 121.286 93.159 121.286Z" fill="#5ABF9D"/>
<path d="M70.9766 121.286H71.7214C71.8683 121.286 71.9837 121.213 71.9732 121.118L71.6218 117.924C71.6218 117.829 71.4854 117.756 71.3332 117.756H70.5884C70.4415 117.756 70.3261 117.829 70.3366 117.924L70.688 121.118C70.6985 121.213 70.8297 121.286 70.9766 121.286Z" fill="#5ABF9D"/>
<path d="M82.0718 121.286H82.7956C82.9425 121.286 83.0579 121.213 83.0474 121.118L82.696 117.924C82.696 117.829 82.5543 117.756 82.4075 117.756H81.6626C81.5157 117.756 81.4003 117.829 81.4108 117.924L81.7623 121.118C81.7937 121.213 81.9196 121.286 82.0718 121.286Z" fill="#5ABF9D"/>
<path d="M103.706 86.5508C104.912 90.4674 106.071 94.4051 107.183 98.3637L108.857 104.27L109.691 107.208L109.901 107.932L110.005 108.293L110.032 108.377L109.948 108.246C109.815 108.056 109.652 107.89 109.465 107.753C109.055 107.455 108.566 107.281 108.059 107.255C107.676 107.237 107.295 107.312 106.947 107.475C106.57 107.68 106.606 107.727 106.638 107.69C106.727 107.613 106.808 107.527 106.879 107.433C107.126 107.124 107.354 106.8 107.561 106.463C108.023 105.707 108.479 104.858 108.909 103.987C109.801 102.245 110.603 100.399 111.416 98.5421C112.23 96.6851 112.99 94.8072 113.777 92.9136C114.564 91.02 115.314 89.1158 116.09 87.2379L119.442 88.2346C118.571 92.3261 117.554 96.3442 116.295 100.347C115.676 102.356 114.989 104.344 114.197 106.358C113.787 107.365 113.352 108.372 112.812 109.416C112.524 109.981 112.201 110.527 111.847 111.053C111.626 111.382 111.381 111.694 111.112 111.986C110.687 112.469 110.17 112.863 109.591 113.146C109.014 113.426 108.376 113.56 107.734 113.534C106.974 113.491 106.243 113.223 105.636 112.763C105.249 112.471 104.914 112.116 104.645 111.714C104.474 111.455 104.325 111.183 104.199 110.901C104.151 110.785 104.099 110.664 104.062 110.56L103.963 110.303L103.826 109.93L103.553 109.19C103.197 108.21 102.835 107.229 102.504 106.248C101.833 104.286 101.161 102.329 100.532 100.362C99.2451 96.4316 98.0456 92.4817 96.9336 88.5126L103.706 86.5508Z" fill="#B65B52"/>
<path d="M101.354 78.7763C104.108 79.6104 108.32 90.4109 108.32 90.4109L97.6451 98.0432C97.6451 98.0432 92.8454 88.811 93.9994 85.2546C95.2059 81.5512 98.2168 77.8217 101.354 78.7763Z" fill="#5ABF9D"/>
<path opacity="0.5" d="M101.354 78.7763C104.108 79.6104 108.32 90.4109 108.32 90.4109L97.6451 98.0432C97.6451 98.0432 92.8454 88.811 93.9994 85.2546C95.2059 81.5512 98.2168 77.8217 101.354 78.7763Z" fill="white"/>
<path d="M116.21 88.6747L114.746 82.2227L120.831 85.4329C120.831 85.4329 120.904 89.7762 118.449 91.1453L116.21 88.6747Z" fill="#B55B52"/>
<path d="M117.295 77.1035L121.177 79.8574L120.831 85.4334L114.746 82.2231L117.295 77.1035Z" fill="#B55B52"/>
<path d="M8.30978 44.6351H50.7985C51.6098 44.6271 52.4138 44.7875 53.1599 45.1061C53.9059 45.4248 54.5778 45.8948 55.1329 46.4864C55.688 47.078 56.1144 47.7783 56.385 48.5432C56.6556 49.308 56.7645 50.1206 56.705 50.9297L55.5195 70.1598C55.3891 71.8526 54.632 73.436 53.396 74.6001C52.1601 75.7643 50.5343 76.4255 48.8367 76.4544H43.9164L45.9254 83.0585L36.3156 76.4544H6.36369C5.55246 76.4624 4.74839 76.302 4.00233 75.9833C3.25627 75.6647 2.58444 75.1947 2.02932 74.6031C1.47419 74.0115 1.04785 73.3111 0.777253 72.5463C0.506653 71.7815 0.397681 70.9689 0.457223 70.1598L1.63222 50.9297C1.76249 49.2377 2.51894 47.6551 3.75377 46.4911C4.98859 45.3271 6.61307 44.6653 8.30978 44.6351Z" fill="#5ABF9D"/>
<path d="M46.9063 54.706H10.9745C10.8219 54.7052 10.6712 54.6727 10.5319 54.6106C10.3925 54.5485 10.2676 54.4581 10.1651 54.3451C10.0625 54.2322 9.98448 54.0992 9.936 53.9546C9.88752 53.8099 9.86962 53.6568 9.88343 53.5048C9.90692 53.1865 10.0485 52.8884 10.2805 52.6691C10.5124 52.4497 10.8179 52.325 11.1371 52.3193H47.0742C47.226 52.3197 47.3761 52.3512 47.5151 52.412C47.6542 52.4728 47.7792 52.5615 47.8826 52.6727C47.9859 52.7839 48.0652 52.9152 48.1157 53.0583C48.1661 53.2014 48.1866 53.3534 48.1758 53.5048C48.157 53.8291 48.0153 54.134 47.7793 54.3572C47.5434 54.5805 47.2312 54.7052 46.9063 54.706Z" fill="white"/>
<path d="M25.6202 61.7304H10.5445C10.3919 61.7315 10.2407 61.7011 10.1004 61.6409C9.96005 61.5807 9.8337 61.4922 9.72926 61.3809C9.62482 61.2695 9.54454 61.1378 9.49347 60.9939C9.4424 60.8501 9.42163 60.6972 9.43249 60.5449C9.45607 60.2257 9.59843 59.9269 9.83147 59.7074C10.0645 59.488 10.3713 59.3638 10.6914 59.3595H25.7828C25.9359 59.3576 26.0877 59.3876 26.2286 59.4474C26.3695 59.5072 26.4965 59.5956 26.6015 59.7071C26.7065 59.8185 26.7873 59.9505 26.8387 60.0947C26.8901 60.2389 26.911 60.3922 26.9001 60.5449C26.875 60.8673 26.7293 61.1684 26.4921 61.3881C26.2549 61.6079 25.9435 61.7301 25.6202 61.7304Z" fill="white"/>
<path d="M38.5404 68.7539H10.1149C9.9622 68.755 9.81097 68.7245 9.67066 68.6643C9.53036 68.6042 9.40401 68.5157 9.29957 68.4043C9.19513 68.293 9.11485 68.1612 9.06378 68.0174C9.0127 67.8735 8.99195 67.7207 9.0028 67.5684C9.02521 67.2487 9.1672 66.9492 9.4005 66.7295C9.6338 66.5098 9.94129 66.3861 10.2617 66.3829H38.6872C38.8401 66.381 38.9917 66.4109 39.1324 66.4708C39.2731 66.5307 39.3997 66.6192 39.5043 66.7307C39.6089 66.8422 39.6892 66.9743 39.74 67.1185C39.7907 67.2627 39.8109 67.4159 39.7993 67.5684C39.7757 67.8876 39.6333 68.1864 39.4003 68.4059C39.1672 68.6253 38.8604 68.7495 38.5404 68.7539Z" fill="white"/>
<path d="M36.6948 61.7304H30.7516C30.5989 61.7315 30.4477 61.7011 30.3074 61.6409C30.1671 61.5808 30.0407 61.4922 29.9363 61.3809C29.8318 61.2695 29.7516 61.1378 29.7005 60.9939C29.6494 60.8501 29.6287 60.6972 29.6395 60.5449C29.6643 60.2261 29.807 59.928 30.0398 59.7088C30.2726 59.4896 30.5787 59.365 30.8984 59.3595H36.8364C36.9893 59.3576 37.1409 59.3875 37.2815 59.4474C37.4222 59.5073 37.5489 59.5958 37.6535 59.7073C37.7581 59.8188 37.8383 59.9509 37.8891 60.0951C37.9399 60.2393 37.9601 60.3925 37.9484 60.5449C37.9249 60.8633 37.7833 61.1614 37.5514 61.3807C37.3194 61.6 37.0139 61.7248 36.6948 61.7304Z" fill="white"/>
<path d="M67.4717 10.0666H44.3075C42.9865 10.0864 41.7207 10.5996 40.7588 11.5051C39.7969 12.4107 39.2085 13.6433 39.1091 14.9607L38.2069 29.9314C38.162 30.5608 38.2479 31.1928 38.4593 31.7873C38.6707 32.3819 39.0029 32.9263 39.4351 33.3861C39.8673 33.8459 40.3901 34.2111 40.9705 34.4589C41.5508 34.7066 42.1762 34.8314 42.8072 34.8255H46.5998L44.4071 39.9661L52.5167 34.8255H65.9557C67.2767 34.8057 68.5425 34.2925 69.5044 33.3869C70.4663 32.4814 71.0547 31.2488 71.1541 29.9314L72.072 14.9607C72.117 14.3312 72.031 13.6993 71.8197 13.1048C71.6083 12.5102 71.276 11.9658 70.8438 11.506C70.4116 11.0462 69.8888 10.681 69.3085 10.4332C68.7281 10.1855 68.1027 10.0607 67.4717 10.0666Z" fill="#5ABF9D"/>
<path d="M56.3054 24.8953C56.2256 25.225 56.0375 25.5185 55.7712 25.7286C55.505 25.9388 55.1759 26.0536 54.8367 26.0546H53.4676C53.4676 25.6664 53.4991 25.4304 53.5043 25.3465C53.5241 24.5904 53.718 23.8491 54.0708 23.1801C54.5665 22.4343 55.1961 21.7869 55.9277 21.2707C56.5112 20.8479 57.0618 20.3814 57.5748 19.8754C57.847 19.5533 58.0087 19.1526 58.0364 18.7319C58.057 18.4531 58.0134 18.1734 57.9088 17.9142C57.8042 17.655 57.6415 17.4233 57.4332 17.2369C56.9243 16.8009 56.2662 16.5791 55.5973 16.6179C54.8938 16.5987 54.2062 16.8291 53.6564 17.2684C53.3297 17.5379 53.0618 17.8718 52.8696 18.2493C52.7279 18.525 52.508 18.7527 52.2373 18.9039C51.9667 19.0551 51.6575 19.123 51.3484 19.099C51.126 19.0715 50.9141 18.9883 50.7324 18.8572C50.5507 18.7261 50.405 18.5513 50.3088 18.3489C50.2125 18.1465 50.1689 17.9231 50.1819 17.6994C50.1949 17.4757 50.2642 17.2589 50.3832 17.069C50.6997 16.5378 51.1062 16.0657 51.5844 15.6737C52.7212 14.7599 54.1504 14.2885 55.6078 14.3466C57.323 14.3466 58.6554 14.7925 59.6153 15.6895C60.0647 16.0758 60.4184 16.5611 60.6487 17.1072C60.879 17.6533 60.9795 18.2453 60.9424 18.8368C60.8943 19.5091 60.662 20.1551 60.271 20.7042C59.5342 21.6114 58.6825 22.419 57.7374 23.1066C57.2478 23.4485 56.8247 23.8769 56.489 24.3708C56.4037 24.5362 56.3419 24.7128 56.3054 24.8953ZM53.3102 28.6616V28.4938C53.3378 28.1147 53.5068 27.7598 53.7837 27.4995C54.0606 27.2391 54.4251 27.0922 54.8052 27.088H54.994C55.1758 27.0853 55.3561 27.1205 55.5236 27.1913C55.6911 27.262 55.842 27.3668 55.9668 27.499C56.0916 27.6312 56.1875 27.7879 56.2485 27.9591C56.3095 28.1304 56.3343 28.3125 56.3211 28.4938V28.6616C56.2936 29.0412 56.1248 29.3967 55.8481 29.6579C55.5713 29.9191 55.2067 30.0671 54.8262 30.0727H54.6583C54.4743 30.0784 54.2912 30.0453 54.1208 29.9755C53.9505 29.9058 53.7967 29.8009 53.6696 29.6678C53.5424 29.5347 53.4447 29.3763 53.3828 29.203C53.3209 29.0296 53.2961 28.8452 53.3102 28.6616Z" fill="white"/>
<defs>
<filter id="filter0_d_1653_1036" x="9.03906" y="129.138" width="133.895" height="12.8066" filterUnits="userSpaceOnUse" color-interpolation-filters="sRGB">
<feFlood flood-opacity="0" result="BackgroundImageFix"/>
<feColorMatrix in="SourceAlpha" type="matrix" values="0 0 0 0 0 0 0 0 0 0 0 0 0 0 0 0 0 0 127 0" result="hardAlpha"/>
<feOffset dx="-2" dy="3"/>
<feGaussianBlur stdDeviation="2.5"/>
<feComposite in2="hardAlpha" operator="out"/>
<feColorMatrix type="matrix" values="0 0 0 0 0 0 0 0 0 0 0 0 0 0 0 0 0 0 0.25 0"/>
<feBlend mode="normal" in2="BackgroundImageFix" result="effect1_dropShadow_1653_1036"/>
<feBlend mode="normal" in="SourceGraphic" in2="effect1_dropShadow_1653_1036" result="shape"/>
</filter>
</defs>
</svg>
