<svg width="170" height="186" viewBox="0 0 170 186" fill="none" xmlns="http://www.w3.org/2000/svg">
<path d="M143.727 106.448C146.152 138.099 147.212 185.314 147.212 185.314C147.431 187.713 148.803 191.08 149.914 202.932C151.093 215.441 151.051 233.295 151.051 233.295C151.051 233.295 140.478 237.807 133.904 235.475C133.904 235.475 126.841 208.69 123.432 193.967C120.191 180.028 117.818 158.226 117.818 158.226L113.979 179.27C113.979 179.27 114.459 188.294 114.232 194.607C113.971 201.947 110.023 230.063 110.023 230.063C110.023 230.063 100.199 235.955 93.3641 230.34C93.3641 230.34 90.0391 189.093 89.8203 180.238C89.3825 162.914 88.8859 128.839 90.9314 106.49L143.727 106.448Z" fill="#37474F"/>
<path d="M117.818 158.183L114.358 135.674C114.358 135.674 106.404 134.462 102.312 130.531C102.312 130.531 104.964 135.742 112.464 137.754L115.899 158.242L113.979 179.186L117.818 158.183Z" fill="#263238"/>
<path d="M146.534 155.843C146.534 155.843 147.452 178.108 147.376 179.732C147.3 181.357 135.204 184.556 134.893 183.529C134.371 181.845 134.505 177.981 133.453 159.538C143.504 158.242 146.534 155.843 146.534 155.843Z" fill="#455A64"/>
<path d="M135.352 165.885C135.724 165.795 136.107 165.764 136.488 165.792C136.934 165.792 137.381 165.792 137.818 165.725C138.758 165.641 139.691 165.498 140.613 165.296C141.653 165.06 142.674 164.748 143.669 164.361C144.51 164.05 145.243 163.638 146.059 163.334C146.135 163.334 146.143 163.452 146.101 163.486C145.317 164.021 144.468 164.457 143.576 164.782C142.756 165.125 141.912 165.406 141.051 165.624C140.134 165.852 139.203 166.018 138.264 166.121C137.801 166.171 137.33 166.205 136.859 166.222C136.363 166.309 135.854 166.271 135.377 166.112C135.285 166.053 135.276 165.91 135.352 165.885Z" fill="#37474F"/>
<path d="M140.482 163.352C140.476 163.447 140.492 163.541 140.528 163.629C140.565 163.716 140.621 163.794 140.692 163.857C140.829 163.951 140.99 164.002 141.156 164.005C141.322 164.007 141.485 163.96 141.624 163.87C141.764 163.78 141.874 163.651 141.94 163.499C142.006 163.347 142.026 163.179 141.997 163.015C141.983 162.915 141.949 162.819 141.897 162.732C141.845 162.645 141.776 162.57 141.694 162.51C141.519 162.384 141.302 162.33 141.088 162.359C140.827 162.359 140.734 162.527 140.616 162.763C140.526 162.946 140.48 163.148 140.482 163.352ZM140.987 162.839C141.084 162.769 141.205 162.739 141.323 162.754C141.702 162.796 141.77 163.394 141.458 163.596C141.359 163.651 141.244 163.669 141.134 163.648C141.023 163.626 140.923 163.566 140.852 163.478C140.796 163.374 140.778 163.254 140.803 163.138C140.827 163.022 140.893 162.919 140.987 162.847V162.839Z" fill="#37474F"/>
<path d="M89.079 64.6396C85.5938 69.0789 78.397 79.7574 78.397 79.7574C78.397 79.7574 62.3914 68.7587 60.858 66.6039C57.791 62.355 57.0417 58.8157 53.0163 57.8205C48.991 56.8254 43.9375 55.5792 43.9375 55.5792L47.7189 74.2451C49.4615 76.1921 51.57 75.3787 55.8742 79.5757C59.0718 82.691 66.8786 89.363 73.6136 94.4686C79.2857 98.7954 83.3459 96.4243 85.9772 93.2311C92.4335 85.4429 97.8878 79.143 97.8878 79.143L107.472 49.9717C101.774 51.3736 97.4869 54.0475 89.079 64.6396Z" fill="#FFB298"/>
<path d="M109.439 49.201C101.214 48.976 95.9336 52.9048 90.7495 60.6671C87.6128 65.366 78.3249 79.056 78.3249 79.056L66.9197 71.1812C66.9197 71.1812 65.334 76.3734 61.8488 78.9695C58.8254 81.2194 56.2812 79.9647 56.2812 79.9647C60.0679 84.1181 64.1913 87.9559 68.61 91.4394C77.2358 98.3622 80.1546 98.9593 83.9882 96.069C85.8877 94.6325 87.1423 93.0749 90.7495 88.9385C95.1059 83.9626 98.2164 79.757 98.2164 79.757L109.439 49.201Z" fill="#263238"/>
<path d="M117.978 48.9932C117.978 48.9932 136.955 50.0402 141.677 52.1777C143.838 53.1555 148.578 58.7458 147.602 72.1849C147.201 77.5934 144.988 88.6267 144.988 92.6766C144.927 98.414 150.024 117.019 150.024 117.019C132.224 127.888 100.753 124.557 94.3749 118.75C94.3749 118.75 96.5357 94.7016 97.2153 82.3355C97.2153 82.3355 93.7999 76.6328 94.0787 72.8166C94.4882 67.1831 95.6732 65.1754 100.866 58.8756C103.624 55.487 106.589 52.2704 109.744 49.2441L117.978 48.9932Z" fill="#455A64"/>
<path d="M135.026 10.1742C141.125 10.8492 142.632 20.7835 141.177 26.3911C138.371 37.1994 131.026 38.5061 130.722 43.0839L119.717 36.6715L111.161 31.6871C110.377 31.2284 109.593 30.7698 108.826 30.2765C108.059 29.7833 107.51 29.2294 106.787 28.8054C106.23 28.4766 105.663 28.667 105.045 28.5025C104.442 28.2245 103.936 27.7759 103.59 27.2131C103.135 26.6279 102.774 25.9771 102.518 25.2834C102.01 23.9305 101.91 22.4601 102.23 21.0518C101.695 21.6595 101.263 22.3491 100.95 23.094C100.645 23.85 100.611 24.6873 100.854 25.4651C98.3183 23.7863 98.0743 17.3134 102.945 14.9942C103.816 14.5875 104.365 13.1683 104.687 12.3203C104.939 11.5891 105.276 10.8893 105.689 10.2348C106.134 9.63297 106.611 9.05524 107.118 8.50403C108.128 7.40565 109.236 6.40059 110.429 5.50123C113.914 2.90514 119.142 0.395591 123.647 1.3821C128.543 2.42919 133.579 5.17239 135.026 10.1742Z" fill="#263238"/>
<path d="M130.489 47.4101L131.099 37.3806C131.989 37.8436 133.013 37.9897 133.999 37.7944C134.985 37.5992 135.874 37.0744 136.518 36.3075C139.533 33.2009 139.829 29.8173 138.182 27.6539C136.37 25.2482 132.345 26.1655 130.611 29.0904C127.997 29.7135 126.916 25.9838 128.912 22.1675C128.912 22.1675 116.2 23.0329 110.31 13.4273C109.954 13.0664 109.517 12.795 109.035 12.6358C108.553 12.4766 108.039 12.4342 107.537 12.5121C107.035 12.59 106.559 12.7859 106.149 13.0836C105.738 13.3813 105.405 13.7721 105.178 14.2235C104.55 15.6513 103.74 18.0311 104.306 22.8771C104.524 24.6597 103.653 26.7972 103.723 29.2115C103.993 38.7305 106.18 41.8199 108.811 43.4294C111.028 44.5529 113.494 45.1035 115.982 45.0304L115.773 47.6264C115.712 49.0197 115.381 49.063 114.161 49.1322L112.34 49.236C112.34 49.236 104.977 58.4694 114.161 59.7242C124.242 61.1088 134.34 54.134 136.535 50.9235C136.535 50.9235 135.725 50.785 133.495 50.4648C131.264 50.1446 130.672 49.2793 130.489 47.4101Z" fill="#FFBDA7"/>
<path d="M118.919 33.9116L113.691 35.5904C113.788 35.9367 113.954 36.2602 114.179 36.5415C114.404 36.8229 114.684 37.0565 115.002 37.2284C115.32 37.4004 115.669 37.5071 116.029 37.5424C116.389 37.5776 116.753 37.5407 117.098 37.4336C117.801 37.1941 118.383 36.6936 118.723 36.0369C119.062 35.3803 119.133 34.6186 118.919 33.9116Z" fill="#B16668"/>
<path d="M118.588 35.1136C117.891 35.0975 117.21 35.3227 116.661 35.7505C116.113 36.1783 115.731 36.7822 115.582 37.4587C116.08 37.6057 116.609 37.6057 117.107 37.4587C117.604 37.2914 118.044 36.9898 118.378 36.5878C118.712 36.1858 118.926 35.6992 118.997 35.1828C118.863 35.1511 118.726 35.128 118.588 35.1136Z" fill="#F0997A"/>
<path d="M106.079 20.9307L109.564 19.399C109.475 19.1708 109.339 18.963 109.166 18.7884C108.993 18.6139 108.787 18.4762 108.558 18.3839C108.33 18.2915 108.085 18.2464 107.838 18.2513C107.592 18.2563 107.349 18.3111 107.124 18.4125C106.656 18.6166 106.286 18.9929 106.091 19.4624C105.896 19.9319 105.892 20.4581 106.079 20.9307Z" fill="#263238"/>
<path d="M109.892 23.8376C109.926 24.2566 109.794 24.6722 109.524 24.9956C109.254 25.319 108.867 25.5246 108.446 25.5684C108.243 25.5923 108.037 25.5754 107.84 25.5187C107.644 25.462 107.461 25.3666 107.303 25.2382C107.144 25.1098 107.013 24.9511 106.918 24.7714C106.822 24.5918 106.764 24.3949 106.747 24.1924C106.715 23.774 106.848 23.3596 107.118 23.0367C107.388 22.7138 107.773 22.5077 108.193 22.4617C108.396 22.4378 108.602 22.4547 108.799 22.5114C108.995 22.5681 109.178 22.6635 109.336 22.7919C109.495 22.9203 109.626 23.079 109.721 23.2587C109.817 23.4383 109.875 23.6352 109.892 23.8376Z" fill="#263238"/>
<path d="M122.605 22.3158L119.242 20.4986C119.35 20.2753 119.502 20.0763 119.69 19.9137C119.878 19.7512 120.098 19.6284 120.335 19.5531C120.573 19.4777 120.823 19.4513 121.071 19.4755C121.319 19.4997 121.56 19.574 121.778 19.6938C122.229 19.9414 122.566 20.3519 122.72 20.8402C122.874 21.3284 122.833 21.8569 122.605 22.3158Z" fill="#263238"/>
<path d="M121.826 24.1742C121.858 24.5927 121.725 25.0071 121.455 25.33C121.186 25.6529 120.8 25.859 120.38 25.905C120.174 25.9352 119.963 25.9231 119.762 25.8693C119.56 25.8155 119.372 25.7212 119.208 25.5922C119.045 25.4633 118.91 25.3023 118.812 25.1195C118.714 24.9366 118.654 24.7356 118.637 24.529C118.606 24.1106 118.739 23.6962 119.008 23.3733C119.278 23.0504 119.664 22.8442 120.084 22.7983C120.29 22.7667 120.501 22.7779 120.703 22.8312C120.906 22.8844 121.094 22.9786 121.258 23.1078C121.422 23.2371 121.557 23.3985 121.654 23.582C121.752 23.7655 121.811 23.9672 121.826 24.1742Z" fill="#263238"/>
<path d="M115.823 21.0166L114.699 31.7211L109.445 28.9606L115.823 21.0166Z" fill="#F0997A"/>
<path d="M115.995 44.9947C122.965 45.1072 127.321 42.5804 129.229 38.418C129.229 38.418 128.637 42.3207 125.814 44.4322C122.651 46.7947 115.82 46.8812 115.82 46.8812L115.995 44.9947Z" fill="#F0997A"/>
<path d="M114.169 49.0723C105.675 57.5586 100.325 68.6524 98.9916 80.5455C97.9809 90.9298 97.702 133.791 97.702 133.791C97.702 133.791 91.664 133.791 88.8672 131.784C90.5052 108.003 92.1781 84.7165 93.3456 72.8091C93.8353 68.9524 95.2452 65.2676 97.4581 62.0613C100.64 57.0968 104.695 52.741 109.43 49.2021L114.169 49.0723Z" fill="#5ABF9D"/>
<path d="M90.7461 105.105C93.1515 105.743 95.5885 106.258 98.0475 106.645L98.1259 102.976C95.7313 102.579 93.3607 102.05 91.0249 101.393C90.9291 102.647 90.8855 103.885 90.7461 105.105Z" fill="#FAFAFA"/>
<path d="M97.9023 115.834C95.2716 115.387 92.6705 114.783 90.1129 114.025C90.0258 115.254 89.9387 116.5 89.8516 117.746C92.4842 118.478 95.1579 119.056 97.8587 119.477C97.8587 118.326 97.8587 117.097 97.9023 115.834Z" fill="#FAFAFA"/>
<path d="M130.874 48.9775C130.316 57.9081 127.624 69.2443 127.502 78.8844C127.293 96.3561 132.73 135.133 132.73 135.133C132.73 135.133 145.39 134.951 153.31 129.422C153.362 125.225 149.772 110.461 147.995 104.326C146.217 98.1907 145.529 90.437 147.838 80.7104C150.147 70.9837 148.483 58.8946 143.935 52.1015L130.874 48.9775Z" fill="#5ABF9D"/>
<path d="M131.032 121.927C141.409 121.122 147.97 118.422 151.168 116.735C150.915 115.601 150.671 114.493 150.375 113.351C146.21 115.48 137.619 117.773 130.605 118.387C130.754 119.599 130.893 120.785 131.032 121.927Z" fill="#FAFAFA"/>
<path d="M148.025 104.308C147.764 103.442 147.528 102.456 147.319 101.478C141.427 103.375 135.299 104.456 129.109 104.689C129.231 105.909 129.353 107.12 129.484 108.323C135.852 108.058 142.155 106.946 148.225 105.017C148.156 104.766 148.086 104.533 148.025 104.308Z" fill="#FAFAFA"/>
<path d="M142.201 23.7604C141.863 25.6669 141.25 27.5149 140.38 29.2468C139.996 28.6843 139.561 28.1305 139.107 27.5853C136.489 24.5637 133.35 22.0291 129.837 20.0999C121.717 15.5135 111.488 13.3761 103.027 14.9943C103.465 13.3928 104.11 11.8541 104.944 10.4165C107.29 6.33392 111.011 3.20436 115.452 1.57903C119.893 -0.0462925 124.769 -0.0631366 129.221 1.53147C133.673 3.12608 137.416 6.22986 139.79 10.2962C142.165 14.3625 143.018 19.1305 142.201 23.7604Z" fill="#5ABF9D"/>
<path d="M135.137 3.27684C134.17 2.71436 129.238 0.81056 128.846 0.680756C126.293 -0.323064 122.085 -0.599982 117.519 2.58455C113.921 5.10693 111.243 8.72022 109.887 12.8824L115.114 14.9852L116.857 15.2794C117.807 11.4199 123.697 3.38934 131.024 3.64895C131.369 3.65539 131.712 3.6872 132.052 3.74414C133.014 3.87039 133.95 4.13874 134.832 4.54027C135.756 5.31106 136.629 6.14067 137.446 7.02386C137.417 6.25499 137.189 5.50641 136.785 4.85017C136.381 4.19392 135.813 3.6521 135.137 3.27684Z" fill="#5ABF9D"/>
<path opacity="0.45" d="M135.137 3.27684C134.17 2.71436 129.238 0.81056 128.846 0.680756C126.293 -0.323064 122.085 -0.599982 117.519 2.58455C113.921 5.10693 111.243 8.72022 109.887 12.8824L115.114 14.9852L116.857 15.2794C117.807 11.4199 123.697 3.38934 131.024 3.64895C131.369 3.65539 131.712 3.6872 132.052 3.74414C133.014 3.87039 133.95 4.13874 134.832 4.54027C135.756 5.31106 136.629 6.14067 137.446 7.02386C137.417 6.25499 137.189 5.50641 136.785 4.85017C136.381 4.19392 135.813 3.6521 135.137 3.27684Z" fill="white"/>
<path d="M116.78 15.2694C117.895 10.7695 125.763 0.558236 134.755 4.52159C135.698 5.28994 136.589 6.11963 137.421 7.00518C137.39 6.24239 137.164 5.50003 136.764 4.84767C136.365 4.19532 135.806 3.65435 135.138 3.27548C132.812 1.93417 128.037 0.982268 122.705 4.66871C119.111 7.192 116.439 10.8056 115.09 14.9665L116.78 15.2694Z" fill="#5ABF9D"/>
<path opacity="0.3" d="M116.78 15.2694C117.895 10.7695 125.763 0.558236 134.755 4.52159C135.698 5.28994 136.589 6.11963 137.421 7.00518C137.39 6.24239 137.164 5.50003 136.764 4.84767C136.365 4.19532 135.806 3.65435 135.138 3.27548C132.812 1.93417 128.037 0.982268 122.705 4.66871C119.111 7.192 116.439 10.8056 115.09 14.9665L116.78 15.2694Z" fill="black"/>
<path d="M130.091 18.5678C129.725 18.1957 128.183 14.0506 121.796 9.9834C117.893 7.45655 109.441 6.67772 105.695 6.45273C99.0643 6.0287 97.374 7.31809 97.2172 8.26998C97.1736 8.49498 96.9994 9.55072 96.9471 9.79302C96.8941 10.0069 96.9253 10.2329 97.0342 10.4247C97.9055 11.9997 103.046 15.0025 103.046 15.0025C111.506 13.3843 121.735 15.5217 129.856 20.1081L130.091 18.5678Z" fill="#5ABF9D"/>
<path opacity="0.15" d="M130.091 18.5678C129.725 18.1957 128.183 14.0506 121.796 9.9834C117.893 7.45655 109.441 6.67772 105.695 6.45273C99.0643 6.0287 97.374 7.31809 97.2172 8.26998C97.1736 8.49498 96.9994 9.55072 96.9471 9.79302C96.8941 10.0069 96.9253 10.2329 97.0342 10.4247C97.9055 11.9997 103.046 15.0025 103.046 15.0025C111.506 13.3843 121.735 15.5217 129.856 20.1081L130.091 18.5678Z" fill="black"/>
<path d="M129.82 20.1007C121.699 15.5143 111.47 13.3768 103.01 14.9951C103.01 14.9951 97.8694 11.9923 96.9982 10.4173C96.5364 9.55195 97.1811 7.47508 105.38 7.99429C109.17 8.23659 117.578 9.01542 121.534 11.525C125.022 13.5915 127.884 16.5541 129.82 20.1007Z" fill="#5ABF9D"/>
<path opacity="0.3" d="M129.82 20.1007C121.699 15.5143 111.47 13.3768 103.01 14.9951C103.01 14.9951 97.8694 11.9923 96.9982 10.4173C96.5364 9.55195 97.1811 7.47508 105.38 7.99429C109.17 8.23659 117.578 9.01542 121.534 11.525C125.022 13.5915 127.884 16.5541 129.82 20.1007Z" fill="black"/>
<path opacity="0.4" d="M54.29 45.7655L58.6726 44.5713L56.2592 53.4499L52.3906 52.749L54.29 45.7655Z" fill="#5ABF9D"/>
<path opacity="0.4" d="M156.296 145.143L160.678 143.949L153.76 142.703L153.246 144.589L156.296 145.143Z" fill="#5ABF9D"/>
<path opacity="0.2" d="M153.246 144.589L153.76 142.703L160.678 143.949L169.321 163.558L164.93 164.752L156.296 145.143L153.246 144.589Z" fill="#5ABF9D"/>
<path opacity="0.2" d="M159.889 171L150.375 151.59L153.756 142.703L151.351 151.581L159.889 171Z" fill="white"/>
<path d="M120.695 102.43C118.238 100.344 117.576 100.119 114.97 100.024C112.365 99.9291 111.172 99.8685 110.161 99.9204C108.39 100.119 106.651 100.537 104.985 101.167C103.783 101.911 105.648 103.711 107.599 103.659C109.551 103.607 112.113 103.347 112.113 103.347L120.695 102.43Z" fill="#F0997A"/>
<path d="M144.24 52.5239C152.142 54.6094 156.734 57.3786 158.372 61.4458C161.265 68.6543 167.738 91.0758 168.749 96.9256C169.76 102.775 169.246 104.316 164.393 106.981C160.358 109.205 143.604 114.224 135.867 116.266C134.832 116.538 133.747 116.567 132.7 116.351C131.652 116.134 130.669 115.679 129.828 115.02L122.719 109.43L152.055 95.6622L145.416 75.8973C145.416 75.8973 139.038 61.7746 144.24 52.5239Z" fill="#FFBDA7"/>
<path d="M143.96 52.0825C149.144 53.5536 153.474 55.1372 155.94 57.6381C159.425 61.1602 158.972 61.0996 163.607 75.6636C168.242 90.2277 169.593 97.4361 169.915 100.352C170.238 103.269 169.846 104.549 165.297 107.042C160.749 109.534 148.011 112.788 148.011 112.788C147.84 109.891 147.226 107.037 146.19 104.324C144.587 100.517 142.287 100.283 142.287 100.283L151.235 95.3766C151.235 95.3766 145.772 80.0077 143.759 74.8848C141.746 69.7619 139.316 60.8659 143.96 52.0825Z" fill="#263238"/>
<path d="M39.4226 63.2904C37.558 60.8933 37.375 60.2703 37.4099 57.8299C37.4447 55.3896 37.4099 54.2733 37.5319 53.3214C37.8048 51.677 38.2818 50.0725 38.9521 48.5446C39.7188 47.4542 41.3307 49.2802 41.1913 51.1407C41.0519 53.0012 40.6859 55.3463 40.6859 55.3463L39.4226 63.2904Z" fill="#F0997A"/>
<path d="M77.5068 88.6151C77.1286 88.2781 30.9016 48.2407 30.9016 48.2407L24.0683 45.6962L18.9281 38.3095L23.0668 33.8073L30.6281 38.028L34.6877 44.34L81.1615 84.5997L77.5068 88.6151Z" fill="#E0E0E0"/>
<path d="M77.4987 88.6144L77.729 88.3408L78.4193 87.5636L81.0851 84.5687L81.0908 84.6401C73.55 78.1172 56.0956 63.0283 34.6068 44.4448L30.5501 38.1403L30.6079 38.166C28.1932 36.8186 25.6278 35.3855 23.0467 33.9454L23.2309 33.9144L22.8916 34.29L19.0975 38.4189L19.1101 38.2366L24.2503 45.6233L24.1714 45.5883C26.5 46.4591 28.777 47.309 31.0024 48.1381L31.0497 48.1591C44.4649 59.8202 56.0849 69.9202 64.3556 77.1055C68.4927 80.7082 71.7836 83.5846 74.0532 85.5629C75.1866 86.5483 76.0579 87.3172 76.6555 87.8393L77.3283 88.4323L77.5565 88.6401C77.4774 88.5837 77.4016 88.5229 77.3294 88.4579C77.1689 88.324 76.9442 88.1366 76.6577 87.8904C76.0577 87.3735 75.1894 86.6122 74.0548 85.6576C71.781 83.7025 68.4708 80.8551 64.3249 77.286C56.0155 70.1024 44.3423 60.0226 30.8581 48.3747L30.9054 48.3957C28.6785 47.5701 26.3999 46.7237 24.0697 45.8564L24.0277 45.8377L23.9909 45.8214L18.8507 38.4347L18.7796 38.3405L18.8634 38.2524L22.6546 34.1159L22.9968 33.7478L23.0753 33.6574L23.1857 33.7064C25.7827 35.1535 28.3481 36.5866 30.7447 37.9323L30.7815 37.9486L30.8077 37.9603L34.8697 44.2671L34.8329 44.2508C56.2339 62.8892 73.6385 78.0186 81.1675 84.5677L81.2148 84.5887L81.1937 84.6357L78.4625 87.6078L77.7658 88.3572L77.4987 88.6144Z" fill="#263238"/>
<path d="M78.3362 93.6854L84.9933 105.41L117.72 132.195C117.72 132.195 124.672 137.041 130.589 129.651C137.247 121.331 130.977 115.98 130.977 115.98L98.9938 89.8818L86.309 84.3767L84.6299 80.6936C84.5501 80.5253 84.4302 80.3789 84.2806 80.2671C84.131 80.1552 83.9562 80.0813 83.7713 80.0517C83.5865 80.0221 83.3971 80.0377 83.2197 80.0972C83.0423 80.1566 82.8822 80.2582 82.7532 80.393L73.5711 90.3989C73.4464 90.5393 73.3582 90.7079 73.3144 90.89C73.2706 91.072 73.2725 91.262 73.3198 91.4432C73.3672 91.6244 73.4586 91.7913 73.586 91.9292C73.7135 92.0671 73.8731 92.1719 74.0508 92.2343L78.3362 93.6854Z" fill="#5ABF9D"/>
<path d="M86.7672 84.5071C86.8291 84.5658 85.0023 86.7054 82.687 89.2858C80.3718 91.8662 78.4382 93.9207 78.3763 93.8619C78.3145 93.8032 80.1441 91.6712 82.4618 89.0856C84.7794 86.4999 86.703 84.4535 86.7672 84.5071Z" fill="#263238"/>
<path d="M98.9986 89.8642C98.8715 90.1047 98.719 90.3309 98.5435 90.5392C98.2322 90.9648 97.7685 91.5608 97.1847 92.2976C96.0223 93.7736 94.3618 95.7677 92.4468 97.8931C90.5318 100.019 88.7237 101.878 87.3769 103.203C86.7044 103.857 86.1525 104.383 85.7659 104.737C85.5769 104.933 85.3687 105.109 85.1445 105.263C85.3041 105.042 85.485 104.837 85.6848 104.651L87.2234 103.054C88.5253 101.702 90.3094 99.8259 92.2192 97.6981C94.129 95.5704 95.8162 93.6007 97.0218 92.1689L98.4501 90.4664C98.614 90.2495 98.7976 90.0479 98.9986 89.8642Z" fill="#263238"/>
<g opacity="0.3">
<path d="M90.9318 102.766L90.7418 102.988C90.0624 103.783 90.1602 104.974 90.96 105.648L118.123 128.56C118.923 129.235 120.122 129.138 120.801 128.343L120.991 128.121C121.671 127.327 121.573 126.136 120.773 125.461L93.6102 102.549C92.8103 101.874 91.6112 101.972 90.9318 102.766Z" fill="black"/>
</g>
<g opacity="0.3">
<path d="M94.9943 98.287L94.8043 98.5093C94.1249 99.3037 94.2227 100.495 95.0225 101.169L122.185 124.081C122.985 124.756 124.184 124.659 124.864 123.864L125.054 123.642C125.733 122.848 125.635 121.657 124.836 120.982L97.6727 98.0701C96.8728 97.3954 95.6737 97.4925 94.9943 98.287Z" fill="black"/>
</g>
<g opacity="0.3">
<path d="M98.6964 94.2633L98.5054 94.4849C97.8228 95.2766 97.9158 96.468 98.7129 97.1459L125.783 120.166C126.58 120.844 127.78 120.751 128.462 119.96L128.653 119.738C129.336 118.946 129.243 117.755 128.446 117.077L101.376 94.0572C100.578 93.3793 99.3789 93.4716 98.6964 94.2633Z" fill="black"/>
</g>
<path d="M34.6736 44.3785C34.1795 45.1171 33.6041 45.7988 32.9581 46.4109C32.3878 47.091 31.7398 47.7031 31.0273 48.2349C31.5237 47.5002 32.098 46.8206 32.7405 46.2078C33.3122 45.5265 33.9608 44.9128 34.6736 44.3785Z" fill="#263238"/>
<path d="M23.0653 33.7963C23.298 33.9465 23.5168 34.117 23.7191 34.3057C24.1766 34.6905 24.7497 35.1829 25.4594 35.7923L31.3537 40.9142L31.4664 41.0143L31.3656 41.1262L29.4361 43.1575L27.4499 45.245L27.3538 45.3464L27.2493 45.2562C24.8855 43.305 22.813 41.5895 21.2727 40.317C20.566 39.7152 19.98 39.2233 19.5435 38.8479C19.3268 38.6781 19.1239 38.4917 18.9366 38.2904C19.1748 38.4304 19.4001 38.5912 19.6097 38.7708L21.3882 40.1866C22.9297 41.4283 25.0239 43.1096 27.407 45.0318L27.2065 45.043L29.1951 42.9503L31.1222 40.9242L31.134 41.1361L25.334 35.9308C24.6413 35.2976 24.0917 34.753 23.6528 34.3828C23.4407 34.2041 23.2441 34.0079 23.0653 33.7963Z" fill="#263238"/>
<path d="M131.959 111.742C131.088 111.587 130.792 108.021 129.345 107.511C127.899 107 127.698 107.208 126.975 105.823C126.252 104.439 125.233 103.902 124.318 103.98C123.403 104.058 123.76 102.414 122.113 102.007C119.992 101.741 117.847 101.707 115.718 101.903C114.22 102.05 110.813 104.205 109.349 105.244C107.885 106.282 108.905 107.26 109.828 107.736C110.752 108.212 112.573 107.788 112.573 107.788C112.573 107.788 111.074 109.112 111.423 109.726C111.885 110.531 113.427 111.232 115.579 110.315C114.176 111.284 114.333 112.218 115.5 112.686C116.372 113.049 117.687 112.876 119.203 112.322C121.111 111.621 123.664 110.773 125.172 111.388L126.662 112.547L131.959 111.742Z" fill="#FFBDA7"/>
<path d="M131.959 111.742C131.576 111.742 131.367 111.318 131.175 111.05C130.993 110.753 130.833 110.443 130.696 110.124C130.451 109.525 130.16 108.946 129.825 108.393C129.689 108.161 129.489 107.972 129.25 107.848L128.309 107.476C127.94 107.355 127.62 107.122 127.394 106.809C127.21 106.502 127.072 106.169 126.984 105.823C127.194 106.089 127.424 106.337 127.673 106.567C127.908 106.76 128.191 106.885 128.492 106.93C128.814 107 129.154 107.086 129.494 107.19C129.883 107.343 130.214 107.612 130.443 107.96C130.815 108.57 131.091 109.232 131.262 109.925L131.524 110.902C131.562 111.225 131.717 111.524 131.959 111.742Z" fill="#F0997A"/>
<path d="M112.57 107.787C113.337 107.181 114.104 106.584 114.905 106.056C115.703 105.462 116.555 104.944 117.45 104.507C118.425 104.25 119.429 104.111 120.438 104.092C121.416 104.023 122.397 104.023 123.374 104.092C122.416 104.311 121.457 104.493 120.499 104.637L119.07 104.879C118.616 104.94 118.167 105.035 117.728 105.165C116.918 105.52 116.064 106.074 115.21 106.515C114.36 106.998 113.478 107.423 112.57 107.787Z" fill="#F0997A"/>
<path d="M125.913 107.293C124.998 107.432 124.048 107.449 123.168 107.51C122.295 107.604 121.446 107.85 120.659 108.237C118.995 108.955 117.33 109.734 115.57 110.314C117.059 109.218 118.666 108.293 120.362 107.553C121.231 107.133 122.185 106.92 123.151 106.93C124.078 106.994 125 107.115 125.913 107.293Z" fill="#F0997A"/>
<path d="M47.7315 74.2448C47.6183 73.4313 44.2464 72.9813 43.8369 71.6054C43.4274 70.2295 43.6278 70.0478 42.347 69.3122C41.8453 69.0916 41.4222 68.7258 41.1331 68.2627C40.8439 67.7995 40.7022 67.2605 40.7264 66.7161C40.8309 65.894 39.2713 66.1277 38.9838 64.5614C38.8242 62.5644 38.8885 60.556 39.1755 58.5731C39.3846 57.1798 41.5889 54.1078 42.6606 52.7838C43.7323 51.4598 44.5949 52.4636 44.9957 53.3463C45.2107 54.2018 45.1866 55.0994 44.926 55.9424C44.926 55.9424 46.2416 54.6097 46.808 54.9645C47.5486 55.4318 48.1497 56.9029 47.1739 58.8759C48.1585 57.6039 49.0385 57.7942 49.4306 58.8759C49.6649 60.0551 49.4802 61.2784 48.9078 62.3374C48.1585 64.0681 47.3656 66.6123 47.8709 68.0574V68.0574C48.7855 69.3713 48.9835 71.0551 48.3986 72.5452L47.7315 74.2448Z" fill="#FFBDA7"/>
<path d="M44.8807 55.9258C44.2621 56.6181 43.6609 57.3104 43.0946 58.0286C42.4969 58.7497 41.9662 59.523 41.5088 60.3391C41.2276 61.2395 41.0494 62.1684 40.9774 63.1083C40.8831 64.0224 40.8452 64.9414 40.8641 65.8601C41.1168 64.9948 41.3346 64.0861 41.5263 63.1948L41.8138 61.8708C41.8944 61.4501 42.008 61.0364 42.1536 60.6334C42.5283 59.8891 43.0859 59.119 43.5477 58.3401C44.0432 57.5643 44.4885 56.7579 44.8807 55.9258Z" fill="#F0997A"/>
<path d="M43.8311 68.3875C44.0054 67.5221 44.0576 66.6568 44.1622 65.8347C44.2892 65.0206 44.5606 64.2354 44.9638 63.5155C45.7218 62.0011 46.5321 60.4781 47.1681 58.8599C46.0627 60.1931 45.1101 61.6443 44.3277 63.1867C43.89 63.9852 43.6454 64.8741 43.6133 65.7828C43.6325 66.6546 43.7052 67.5245 43.8311 68.3875Z" fill="#F0997A"/>
</svg>
