<svg width="360" height="170" viewBox="0 0 360 170" fill="none" xmlns="http://www.w3.org/2000/svg">
<g clip-path="url(#clip0_1820_1673)">
<rect width="360" height="170" fill="#D6F8EC"/>
<path fill-rule="evenodd" clip-rule="evenodd" d="M325.608 37.6157C284.53 28.439 243.791 54.2999 234.614 95.3777C225.437 136.455 251.298 177.195 292.376 186.371C333.454 195.548 374.193 169.687 383.37 128.609C392.546 87.5316 366.685 46.7924 325.608 37.6157ZM329.294 71.0463C300.63 64.6428 258.261 59.6228 251.857 88.287C245.454 116.951 268.732 157.489 297.396 163.893C326.06 170.296 354.488 152.25 360.892 123.586C367.295 94.922 357.958 77.4498 329.294 71.0463Z" fill="#009C68" fill-opacity="0.04"/>
<path fill-rule="evenodd" clip-rule="evenodd" d="M48.338 131.5C94.3639 138.584 137.418 107.015 144.501 60.989C151.585 14.963 120.016 -28.0907 73.9897 -35.1742C27.9637 -42.2577 -15.09 -10.6886 -22.1735 35.3373C-29.257 81.3632 2.31208 124.417 48.338 131.5ZM41.7931 94.8685C73.9101 99.8114 121.053 102.211 125.995 70.0936C130.938 37.9767 102.235 -5.0464 70.1183 -9.98929C38.0013 -14.9322 7.95832 7.09678 3.01543 39.2138C-1.92745 71.3308 9.67609 89.9256 41.7931 94.8685Z" fill="#009C68" fill-opacity="0.04"/>
</g>
<defs>
<clipPath id="clip0_1820_1673">
<rect width="360" height="170" fill="white"/>
</clipPath>
</defs>
</svg>
