<svg width="135" height="24" viewBox="0 0 135 24" fill="none" xmlns="http://www.w3.org/2000/svg">
<path fill-rule="evenodd" clip-rule="evenodd" d="M47.8818 12C47.8818 18.6274 42.445 24 35.7383 24C33.7613 24 31.8947 23.5332 30.2452 22.705L33.7842 18.399C34.2707 17.6438 35.1301 17.2048 36.035 17.2492L37.0745 17.3003C38.6326 17.3769 40.1109 16.6153 40.9395 15.3092L41.4227 14.5477C41.7353 14.0549 41.9944 13.5309 42.1956 12.9843L43.0526 10.6565C43.1448 10.4059 42.8484 10.1918 42.6347 10.3547L38.6269 13.4118C38.4778 13.5255 38.279 13.5529 38.1041 13.484L35.5286 12.4687C35.339 12.394 35.2092 12.2186 35.1947 12.0173L34.9986 9.29947C34.9855 9.1185 35.0677 8.94365 35.2161 8.83676L38.9668 6.13434C39.2257 5.94781 39.0954 5.54298 38.775 5.53846L35.334 5.88388C32.4852 6.16986 30.4345 8.71908 30.7951 11.5261L31.0078 12.2649C31.2247 13.0181 31.1623 13.8232 30.8318 14.535L26.7145 20.0305C24.7752 17.9038 23.5947 15.0881 23.5947 12C23.5947 5.37258 29.0316 0 35.7383 0C42.445 0 47.8818 5.37258 47.8818 12ZM12.6868 9.62105H18.3112C19.4616 9.66316 20.1647 9.95789 20.4203 10.5053C20.6334 10.9053 20.7399 11.4947 20.7399 12.2737V19.2211C20.7399 19.8947 20.4416 20.5368 19.8451 21.1474C18.0555 22.9789 15.3712 23.8947 11.792 23.8947C8.61766 23.8947 5.85873 22.7158 3.51524 20.3579C1.17175 17.9789 0 15.1158 0 11.7684C0 8.42105 1.19305 5.63158 3.57915 3.4C5.96525 1.14737 8.77744 0.021051 12.0157 0.021051C14.5297 0.021051 16.9051 0.842104 19.1421 2.48421C19.7173 2.90526 20.0049 3.37895 20.0049 3.90526C20.0049 4.41052 19.7599 5 19.2699 5.67368C18.439 6.78947 17.6827 7.34737 17.001 7.34737C16.5962 7.34737 15.9464 7.06316 15.0516 6.49474C14.1568 5.90526 13.0916 5.61053 11.8559 5.61053C10.2368 5.61053 8.79875 6.17895 7.54178 7.31579C6.28482 8.43158 5.65634 9.90526 5.65634 11.7368C5.65634 13.5474 6.29547 15.0947 7.57374 16.3789C8.85201 17.6421 10.3007 18.2737 11.9199 18.2737C13.0916 18.2737 14.1462 18.0842 15.0836 17.7053V14.2632H12.559C11.8985 14.2632 11.4299 14.1789 11.1529 14.0105C10.8759 13.8421 10.6948 13.6 10.6096 13.2842C10.5244 12.9474 10.4818 12.5053 10.4818 11.9579C10.4818 11.3895 10.5244 10.9368 10.6096 10.6C10.7162 10.2632 10.8972 10.0316 11.1529 9.90526C11.5364 9.71579 12.0477 9.62105 12.6868 9.62105Z" fill="#009C68"/>
<path d="M31.5409 15.8953C31.7217 15.6658 32.0568 15.6247 32.2889 15.8037L32.8917 16.2687C33.1236 16.4476 33.1649 16.7783 32.9839 17.0075L28.9992 22.0524L28.2485 21.5322L27.5561 20.9532L31.5409 15.8953Z" fill="#009C68"/>
<path d="M59.0574 23.4737H50.4668V0.507176H59.0461C61.4141 0.507176 63.453 0.966955 65.1628 1.88651C66.8801 2.79859 68.2041 4.11438 69.1347 5.83388C70.0652 7.5459 70.5305 9.59435 70.5305 11.9792C70.5305 14.3716 70.0652 16.4275 69.1347 18.147C68.2117 19.8665 66.8915 21.186 65.1741 22.1056C63.4567 23.0176 61.4178 23.4737 59.0574 23.4737ZM56.0842 18.7413H58.8418C60.1431 18.7413 61.2438 18.5245 62.1441 18.0909C63.052 17.6498 63.7367 16.9359 64.1982 15.949C64.6672 14.9547 64.9018 13.6314 64.9018 11.9792C64.9018 10.327 64.6672 9.01121 64.1982 8.03185C63.7291 7.045 63.0369 6.33478 62.1214 5.90117C61.2136 5.46008 60.0939 5.23953 58.7624 5.23953H56.0842V18.7413Z" fill="#2D2D2D"/>
<path d="M73.8102 23.4737V0.507176H90.0155V5.01525H79.4275V9.72518H89.187V14.2445H79.4275V18.9656H90.0155V23.4737H73.8102Z" fill="#2D2D2D"/>
<path d="M106.096 7.39264C106.02 6.57027 105.684 5.93107 105.086 5.47503C104.496 5.01151 103.652 4.77975 102.555 4.77975C101.829 4.77975 101.224 4.87321 100.74 5.06011C100.255 5.24701 99.8922 5.50493 99.6501 5.83388C99.4081 6.15535 99.2832 6.52542 99.2757 6.94408C99.2605 7.28798 99.3286 7.59076 99.4799 7.85242C99.6388 8.11408 99.8658 8.34584 100.161 8.5477C100.463 8.74207 100.827 8.91402 101.25 9.06355C101.674 9.21307 102.151 9.3439 102.68 9.45604L104.677 9.9046C105.827 10.1513 106.841 10.4803 107.719 10.8914C108.604 11.3026 109.345 11.7923 109.943 12.3605C110.548 12.9287 111.006 13.5828 111.316 14.323C111.626 15.0631 111.785 15.8929 111.793 16.8125C111.785 18.2629 111.415 19.5076 110.681 20.5468C109.947 21.586 108.891 22.3822 107.515 22.9354C106.145 23.4886 104.492 23.7652 102.555 23.7652C100.611 23.7652 98.9163 23.4774 97.4713 22.9018C96.0263 22.3261 94.9028 21.4514 94.1008 20.2777C93.2989 19.1039 92.8866 17.6199 92.8639 15.8257H98.243C98.2884 16.5658 98.4888 17.1826 98.8444 17.676C99.2 18.1694 99.688 18.5432 100.308 18.7974C100.936 19.0516 101.663 19.1787 102.487 19.1787C103.244 19.1787 103.887 19.0778 104.416 18.8759C104.954 18.674 105.366 18.3937 105.653 18.0348C105.941 17.676 106.088 17.2648 106.096 16.8013C106.088 16.3677 105.952 15.9976 105.687 15.6911C105.423 15.3771 105.014 15.108 104.462 14.8837C103.917 14.6519 103.221 14.4388 102.374 14.2445L99.9452 13.6838C97.9328 13.2277 96.3478 12.4913 95.1903 11.4746C94.0328 10.4504 93.4578 9.06728 93.4653 7.32536C93.4578 5.9049 93.8436 4.66014 94.6229 3.59106C95.4021 2.52198 96.4802 1.6884 97.8571 1.09031C99.234 0.492224 100.804 0.193181 102.567 0.193181C104.367 0.193181 105.93 0.495962 107.253 1.10152C108.585 1.69961 109.618 2.54067 110.352 3.6247C111.085 4.70873 111.46 5.96471 111.475 7.39264H106.096Z" fill="#2D2D2D"/>
<path d="M114.63 23.4737V0.507176H120.247V10.2186H120.554L128.236 0.507176H134.852L126.614 10.7569L135 23.4737H128.282L122.494 14.4463L120.247 17.2498V23.4737H114.63Z" fill="#2D2D2D"/>
</svg>
