<svg width="272" height="272" viewBox="0 0 272 272" fill="none" xmlns="http://www.w3.org/2000/svg">
<path d="M236.89 52.4413L235.568 50.2653C224.405 31.8726 204.228 20.7859 182.952 22.135C180.21 22.2987 177.482 22.6623 174.792 23.223C155.448 27.3629 138.616 41.991 131.642 60.7264C127.541 71.7424 126.393 84.4285 118.586 93.176C108.49 104.578 91.2884 104.937 76.1598 104.448C61.0311 103.958 43.819 104.377 33.7278 115.806C27.4119 122.96 25.4046 133.138 25.9159 142.718C27.2596 168.096 44.9559 190.78 67.4286 202.058C89.9012 213.335 116.416 214.336 141.005 209.402C175.478 202.449 208.259 183.366 227.963 153.914C247.667 124.461 252.661 84.2544 236.89 52.4413Z" fill="#D6F8EC"/>
<path d="M80.2229 50.0697C82.2691 41.514 76.9921 32.9195 68.4364 30.8733C59.8807 28.8272 51.2862 34.1042 49.24 42.6599C47.1939 51.2156 52.4709 59.8101 61.0266 61.8562C69.5823 63.9024 78.1768 58.6254 80.2229 50.0697Z" fill="#D6F8EC"/>
<path d="M243.743 253.123C243.743 253.205 195.501 253.265 136.031 253.265C76.5612 253.265 28.2812 253.205 28.2812 253.123C28.2812 253.042 76.4851 252.96 135.999 252.96C195.512 252.96 243.743 253.047 243.743 253.123Z" fill="#263238"/>
<path d="M145.517 50.9134C145.751 46.828 148.264 44.3147 151.789 42.2094C153.564 41.1766 155.562 40.5878 157.614 40.4931C159.665 40.3983 161.709 40.8005 163.572 41.6654C166.047 42.8405 168.212 44.8533 170.927 45.2014C175.399 45.7781 179.631 41.6328 184.021 42.6718C185.344 42.9709 186.521 43.7232 187.348 44.7985C188.175 45.8737 188.601 47.2043 188.55 48.5599C188.5 49.9156 187.977 51.211 187.073 52.2219C186.168 53.2328 184.938 53.8957 183.597 54.0958C186.523 54.5256 188.183 58.2248 187.1 60.9829C186.017 63.741 182.944 65.3349 179.985 65.4002C177.025 65.4654 174.18 64.2523 171.623 62.7672C169.066 61.2821 166.673 59.5032 164.007 58.2194C161.342 56.9355 158.268 56.1957 155.407 56.9573C151.539 57.9854 148.792 61.6411 147.791 65.5198C146.79 69.3986 147.214 73.4949 147.818 77.4552C148.422 81.4155 149.183 85.4085 148.802 89.4232C148.816 89.6574 148.774 89.8915 148.679 90.1063C148.585 90.321 148.441 90.5101 148.258 90.6581C147.665 90.9845 146.985 90.4242 146.545 89.9019C141.573 84.012 137.806 77.2028 135.458 69.861C134.109 65.6123 133.364 61.4834 134.985 57.349C136.606 53.2146 142.057 49.2434 145.511 50.9298" fill="#263238"/>
<path d="M141.747 70.6716L148.275 111.058C149.499 118.598 154.401 125.882 166.227 123.407C176.329 120.486 175.579 113.218 174.262 104.253C174.262 104.253 185.382 101.359 184.386 90.0543C183.902 84.6143 181.998 73.4188 180.154 63.333C179.198 58.1081 176.309 53.4349 172.063 50.2433C167.817 47.0518 162.525 45.5761 157.24 46.11L156.152 46.2188C144.495 48.0847 139.56 59.0463 141.747 70.6716Z" fill="#FFBF9D"/>
<path d="M174.288 104.253C174.288 104.253 167.216 105.384 159.148 101.386C159.148 101.386 163.582 109.785 174.75 107.631L174.288 104.253Z" fill="#FF9A6C"/>
<path d="M176.348 74.6427C176.39 75.0616 176.269 75.4806 176.009 75.8121C175.75 76.1436 175.372 76.362 174.956 76.4216C174.752 76.459 174.544 76.4552 174.342 76.4105C174.14 76.3657 173.95 76.281 173.781 76.1613C173.613 76.0416 173.47 75.8894 173.362 75.7136C173.253 75.5378 173.181 75.342 173.149 75.1378C173.106 74.7188 173.226 74.2992 173.484 73.9666C173.743 73.6341 174.12 73.4144 174.537 73.3535C174.741 73.3161 174.95 73.3201 175.152 73.3651C175.355 73.4101 175.546 73.4952 175.715 73.6154C175.884 73.7356 176.027 73.8884 176.136 74.0649C176.244 74.2414 176.317 74.4379 176.348 74.6427Z" fill="#263238"/>
<path d="M178.312 69.1158C178.133 69.3443 176.816 68.5718 175.081 68.7459C173.345 68.92 172.165 69.9209 171.953 69.7251C171.855 69.6435 172.018 69.2409 172.529 68.784C173.229 68.1882 174.095 67.8218 175.01 67.734C175.911 67.6385 176.819 67.8288 177.605 68.278C178.182 68.648 178.399 69.0124 178.312 69.1158Z" fill="#263238"/>
<path d="M160.09 75.6821C160.134 76.101 160.014 76.5207 159.756 76.8532C159.497 77.1858 159.12 77.4055 158.703 77.4664C158.498 77.5036 158.287 77.4991 158.084 77.4531C157.881 77.4071 157.689 77.3206 157.52 77.1987C157.351 77.0768 157.208 76.9221 157.1 76.7438C156.992 76.5654 156.921 76.3672 156.892 76.1608C156.848 75.741 156.969 75.3207 157.228 74.988C157.488 74.6553 157.866 74.4361 158.284 74.3765C158.489 74.3401 158.699 74.3452 158.902 74.3916C159.104 74.438 159.295 74.5247 159.464 74.6465C159.632 74.7683 159.775 74.9227 159.882 75.1006C159.99 75.2786 160.061 75.4763 160.09 75.6821Z" fill="#263238"/>
<path d="M161.286 71.1557C161.106 71.3841 159.795 70.6116 158.06 70.7857C156.324 70.9598 155.139 71.9608 154.932 71.7649C154.828 71.6779 154.992 71.2808 155.508 70.8184C156.207 70.2222 157.074 69.8573 157.989 69.7739C158.89 69.6765 159.798 69.8669 160.584 70.3179C161.155 70.6878 161.373 71.0523 161.286 71.1557Z" fill="#263238"/>
<path d="M168.882 83.3898C168.882 83.2919 169.921 82.9981 171.646 82.601C172.086 82.5085 172.494 82.378 172.538 82.057C172.533 81.5955 172.385 81.1469 172.114 80.7732C171.588 79.7468 171.044 78.6588 170.482 77.5092C168.175 72.8906 166.462 69.0717 166.646 68.9792C166.831 68.8868 168.855 72.5588 171.156 77.1828C171.7 78.3197 172.244 79.4077 172.756 80.4468C173.086 80.9555 173.228 81.5634 173.158 82.1658C173.111 82.329 173.027 82.4789 172.912 82.6036C172.796 82.7283 172.653 82.8243 172.494 82.8839C172.257 82.9768 172.008 83.039 171.755 83.0688C169.987 83.368 168.899 83.4877 168.882 83.3898Z" fill="#263238"/>
<path d="M161.052 64.3121C160.927 64.7962 159.17 64.7473 157.163 65.1988C155.155 65.6503 153.561 66.3684 153.246 65.9767C153.105 65.7863 153.349 65.313 153.964 64.7853C154.789 64.1274 155.759 63.676 156.793 63.4689C157.821 63.2397 158.889 63.2565 159.91 63.5178C160.688 63.7463 161.101 64.0781 161.052 64.3121Z" fill="#263238"/>
<path d="M177.167 64.16C176.906 64.5844 175.665 64.296 174.229 64.4212C172.793 64.5463 171.602 64.9652 171.281 64.568C171.134 64.3776 171.281 63.9642 171.781 63.5399C172.451 63.0207 173.26 62.7121 174.105 62.653C174.951 62.5939 175.795 62.7871 176.53 63.208C177.074 63.5616 177.287 63.9533 177.167 64.16Z" fill="#263238"/>
<path d="M143.509 78.94C143.308 78.8747 135.523 77.4222 136.546 85.1198C137.568 92.8174 145.081 90.2007 145.065 89.9777C145.048 89.7547 143.509 78.94 143.509 78.94Z" fill="#FFBF9D"/>
<path d="M142.329 87.3778C142.291 87.3778 142.204 87.4866 141.992 87.6226C141.692 87.8011 141.335 87.8557 140.996 87.7749C140.142 87.5845 139.283 86.3823 139.065 85.0005C138.957 84.3434 138.998 83.6705 139.185 83.0312C139.224 82.7815 139.323 82.5451 139.475 82.343C139.627 82.141 139.826 81.9794 140.055 81.8725C140.205 81.8084 140.373 81.8007 140.528 81.8507C140.683 81.9007 140.814 82.005 140.898 82.1445C141.034 82.3458 141.002 82.5035 141.045 82.5144C141.089 82.5253 141.192 82.3621 141.089 82.052C141.022 81.8674 140.893 81.7117 140.724 81.6114C140.491 81.4791 140.216 81.4439 139.957 81.5135C139.65 81.618 139.374 81.7992 139.156 82.04C138.938 82.2809 138.785 82.5734 138.711 82.8898C138.474 83.6007 138.413 84.3585 138.532 85.0984C138.788 86.6434 139.778 87.9871 140.931 88.1611C141.146 88.1939 141.365 88.1781 141.573 88.115C141.781 88.052 141.973 87.9432 142.133 87.7967C142.34 87.5845 142.356 87.3832 142.329 87.3778Z" fill="#FF9A6C"/>
<path d="M179.259 52.8008C178.029 50.6847 176.06 49.0908 173.965 47.8178C169.446 45.0076 164.156 43.6941 158.848 44.0642C153.525 44.4792 148.571 46.9444 145.03 50.9404C142.324 54.2213 140.639 58.2232 140.183 62.4514C139.745 66.6594 140.148 70.9125 141.369 74.9634C141.875 76.7477 142.56 78.581 143.969 79.7887C144.851 80.5394 146.27 80.9528 147.114 80.1586C147.554 79.6317 147.807 78.9734 147.832 78.2872C148.718 72.1781 149.54 65.6284 146.782 60.1068C148.001 57.9823 149.643 56.1307 151.607 54.6668C152.593 53.946 153.713 53.4278 154.9 53.1421C156.088 52.8564 157.321 52.8088 158.527 53.0021C162.074 53.7202 164.511 56.8536 167.514 58.9045C169.663 60.3584 172.127 61.2804 174.702 61.5945C177.278 61.9085 179.891 61.6055 182.327 60.7106L179.259 52.8008Z" fill="#263238"/>
<path d="M170.405 88.0795C170.317 88.8111 170.123 89.5259 169.828 90.2011C169.681 90.5385 169.463 90.8403 169.189 91.0862C168.914 91.3321 168.591 91.5163 168.24 91.6264C167.856 91.7098 167.457 91.6942 167.081 91.5809C166.705 91.4676 166.364 91.2605 166.091 90.979C165.544 90.4086 165.193 89.6788 165.09 88.8955C164.976 88.1937 165.122 87.3016 165.792 87.0785C166.079 87.0051 166.38 87.0051 166.667 87.0785L170.595 87.7857" fill="#FF9A6C"/>
<path d="M169.583 91.3597C169.545 91.2509 168.816 91.735 167.603 91.5229C166.919 91.4093 166.301 91.047 165.867 90.5056C165.618 90.1713 165.441 89.7887 165.347 89.3823C165.253 88.9759 165.245 88.5544 165.323 88.1446C165.366 87.9353 165.435 87.7323 165.53 87.5408C165.639 87.3613 165.617 87.3722 165.775 87.3613C165.933 87.3504 166.194 87.432 166.4 87.4701L167.048 87.5843C167.886 87.7366 168.647 87.8618 169.284 87.9597C170.562 88.1555 171.362 88.2317 171.378 88.1446C171.394 88.0576 170.633 87.8182 169.376 87.5027C168.75 87.3504 168 87.1709 167.167 86.9914L166.525 86.8499C166.289 86.7918 166.049 86.7464 165.807 86.7139C165.617 86.6956 165.425 86.7415 165.263 86.8445C165.12 86.9453 165.005 87.0823 164.932 87.2416C164.812 87.487 164.725 87.7466 164.67 88.0141C164.569 88.5157 164.58 89.0337 164.703 89.5306C164.826 90.0274 165.059 90.4905 165.383 90.8864C165.656 91.2025 165.989 91.4614 166.362 91.6481C166.736 91.8349 167.143 91.9458 167.559 91.9744C168.1 92.0335 168.646 91.9412 169.137 91.7078C169.463 91.5501 169.605 91.3923 169.583 91.3597Z" fill="#263238"/>
<path d="M186.595 44.2656C186.667 44.4288 186.719 44.6007 186.747 44.777C186.841 45.2756 186.857 45.7857 186.796 46.2893C186.669 47.2235 186.357 48.123 185.878 48.9348C185.399 49.7467 184.762 50.4545 184.005 51.0167C182.112 52.5235 179.109 53.1274 176.036 52.6487C172.962 52.1699 169.785 50.7175 166.521 49.3847C163.257 48.0519 159.939 47.1271 156.909 47.6819C154.248 48.1871 151.833 49.5678 150.049 51.6042C148.819 52.958 147.828 54.5105 147.117 56.1955C146.621 57.3978 146.453 58.0995 146.398 58.0887C146.41 57.9042 146.443 57.7217 146.496 57.5447C146.615 57.0565 146.76 56.5753 146.932 56.1031C147.587 54.3577 148.553 52.7451 149.782 51.3431C151.594 49.205 154.078 47.7454 156.827 47.2032C159.966 46.5994 163.437 47.5351 166.717 48.8951C169.997 50.2551 173.082 51.7347 176.106 52.1591C179.131 52.5834 181.971 52.0883 183.798 50.6957C185.263 49.6319 186.264 48.047 186.595 46.2675C186.68 45.603 186.68 44.9302 186.595 44.2656Z" fill="#455A64"/>
<path d="M136.072 67.7124C136.029 66.9906 136.131 66.2675 136.371 65.5854C137.103 62.9605 138.622 60.6232 140.723 58.8888C141.326 58.3569 142.051 57.983 142.834 57.8008C143.383 57.6825 143.957 57.7474 144.466 57.9857C144.809 58.1598 144.939 58.3393 144.917 58.3611C144.3 58.0642 143.598 57.9893 142.932 58.1489C141.724 58.459 140.364 59.7809 139.124 61.2824C138.089 62.6174 137.28 64.1134 136.73 65.7105C136.279 66.9128 136.154 67.7233 136.072 67.7124Z" fill="#455A64"/>
<path d="M138.113 74.3708C138.128 73.6448 138.275 72.9275 138.548 72.2547C139.699 68.9028 142.047 66.0939 145.142 64.3666C145.756 63.9786 146.437 63.7057 147.149 63.5615C146.56 63.9545 145.952 64.3176 145.327 64.6495C142.428 66.486 140.175 69.1806 138.88 72.358C138.66 73.0418 138.404 73.7137 138.113 74.3708Z" fill="#455A64"/>
<path d="M179.566 117.95C179.566 117.95 187.819 128.596 189.804 132.595C191.79 136.593 206.021 180.771 206.021 180.771L199.847 183.366L179.566 117.95Z" fill="#455A64"/>
<path d="M146.363 107.984V102.647L176.349 112.401L184.378 125.256L190.569 143.214L173.215 117.129L146.363 107.984Z" fill="#EBEBEB"/>
<path d="M144.58 113.115C144.58 113.115 131.861 128.347 132.133 138.226C132.405 147.969 145.619 207.172 145.619 207.172L142.42 217.753L138.955 253.015H211.035L206.019 180.772C205.22 180.728 190.243 139.368 190.243 139.368L173.45 116.09L145.842 106.141L144.58 113.115Z" fill="#455A64"/>
<path d="M199.508 163.565C199.508 163.565 204.551 163.369 207.184 164.544C209.817 165.719 212.042 165.132 213.902 168.771C215.763 172.41 217.939 174.059 218.395 179.58C218.852 185.102 212.89 197.897 208.952 199.708C205.013 201.52 199.508 163.565 199.508 163.565Z" fill="#455A64"/>
<g opacity="0.3">
<path d="M143.121 163.064C143.121 163.064 172.59 190.726 176.338 193.37C180.086 196.014 180.641 212.742 185.259 213.063C189.878 213.384 204.843 202.314 204.843 202.314L160.513 160.551L143.121 163.064Z" fill="black"/>
</g>
<path d="M184.62 187.833C184.62 187.833 178.212 196.031 177.477 198.087C176.743 200.144 176.03 201.509 176.814 202.195C177.095 202.494 177.461 202.7 177.863 202.784C178.265 202.869 178.683 202.828 179.061 202.668C180.105 202.265 185.257 195.471 185.257 195.471C185.257 195.471 178.424 205.214 178.114 206.895C177.804 208.576 179.142 209.392 180.709 209.098C182.276 208.804 185.257 204.403 185.257 204.403C185.257 204.403 181.03 209.299 181.922 210.126C182.814 210.953 183.842 211.056 185.017 210.469C186.192 209.881 189.173 206.019 189.173 206.019C189.173 206.019 187.117 208.195 188.243 208.739C189.369 209.283 189.467 209.337 190.446 208.527C191.426 207.716 200.064 199.279 200.064 199.279L194.624 195.547L184.62 187.833Z" fill="#FFBF9D"/>
<path d="M187.246 192.843C186.946 193.324 186.612 193.782 186.245 194.214L183.743 197.478C182.763 198.745 181.844 199.871 181.148 200.665C180.797 201.113 180.404 201.525 179.973 201.895C180.279 201.417 180.621 200.962 180.995 200.535L183.52 197.304C184.499 196.036 185.407 194.899 186.087 194.094C186.433 193.641 186.821 193.222 187.246 192.843Z" fill="#FF9A6C"/>
<path d="M191.789 196.771C190.723 198.246 189.583 199.666 188.372 201.025C187.231 202.442 186.018 203.8 184.738 205.094C185.802 203.617 186.942 202.197 188.155 200.84C189.296 199.422 190.509 198.064 191.789 196.771Z" fill="#FF9A6C"/>
<path d="M195.427 199.235C194.305 200.669 193.111 202.043 191.847 203.353C190.648 204.729 189.376 206.04 188.039 207.281C189.162 205.849 190.356 204.474 191.619 203.163C192.816 201.786 194.088 200.475 195.427 199.235Z" fill="#FF9A6C"/>
<path d="M148.482 122.586C152.622 121.71 157.877 121.345 161.881 123.614L183.744 143.339C183.744 143.339 214.562 177.911 215.769 179.836C216.977 181.762 218.603 193.143 213.936 198.942C209.268 204.741 204.003 202.51 198.019 201.145C193.28 200.057 160.145 175.713 146.523 165.6C141.79 162.115 138.377 157.129 136.84 151.456C135.801 147.806 135.432 143.998 135.752 140.217" fill="#455A64"/>
<path d="M135.756 140.244C135.756 140.244 135.756 140.44 135.718 140.815C135.68 141.19 135.663 141.745 135.653 142.48C135.652 144.619 135.868 146.753 136.295 148.85C136.59 150.365 136.99 151.857 137.491 153.316C138.104 155.049 138.905 156.709 139.88 158.267C140.996 160.052 142.324 161.696 143.834 163.163C145.417 164.751 147.387 166.089 149.383 167.58C157.413 173.493 166.982 180.516 177.758 188.105C180.478 189.998 183.231 191.913 186.087 193.85C188.943 195.786 191.88 197.734 194.976 199.529C195.749 199.976 196.546 200.379 197.364 200.737C197.776 200.907 198.205 201.036 198.642 201.123L199.97 201.444C201.734 201.94 203.532 202.304 205.35 202.532C207.186 202.76 209.049 202.42 210.687 201.558C212.313 200.624 213.673 199.289 214.636 197.679C216.208 194.959 216.785 191.804 216.888 188.742C216.949 187.21 216.887 185.677 216.703 184.156C216.611 183.405 216.486 182.654 216.328 181.92C216.192 181.192 215.944 180.489 215.593 179.836C214.701 178.661 213.689 177.53 212.737 176.398L209.843 173.058L204.159 166.574L183.661 143.41L161.824 123.652C160.095 122.718 158.187 122.162 156.227 122.02C154.8 121.904 153.365 121.917 151.94 122.058C150.792 122.172 149.922 122.319 149.34 122.417L148.687 122.537C148.54 122.564 148.464 122.569 148.464 122.569C148.464 122.569 148.758 122.499 149.334 122.379C149.911 122.259 150.781 122.112 151.935 121.987C153.364 121.833 154.804 121.809 156.238 121.917C158.218 122.054 160.146 122.611 161.895 123.549L183.791 143.236C189.928 150.107 196.847 157.897 204.327 166.367L210.017 172.851L212.912 176.191C213.88 177.328 214.864 178.433 215.795 179.657C215.903 179.829 215.996 180.011 216.072 180.201C216.148 180.38 216.203 180.56 216.268 180.745C216.393 181.109 216.475 181.479 216.567 181.833C216.73 182.578 216.855 183.334 216.948 184.096C217.134 185.631 217.198 187.179 217.138 188.725C217.03 191.815 216.453 195.014 214.843 197.799C213.857 199.453 212.461 200.824 210.79 201.781C209.103 202.665 207.186 203.015 205.296 202.782C203.457 202.558 201.639 202.194 199.856 201.694L198.528 201.373C198.078 201.283 197.637 201.15 197.212 200.976C196.381 200.61 195.573 200.196 194.791 199.736C191.679 197.93 188.752 195.966 185.891 194.046C183.03 192.125 180.255 190.183 177.562 188.285C166.786 180.669 157.228 173.646 149.215 167.71C147.229 166.214 145.254 164.865 143.66 163.261C142.143 161.775 140.811 160.111 139.695 158.305C138.724 156.735 137.927 155.064 137.317 153.322C136.819 151.853 136.425 150.352 136.137 148.828C135.72 146.724 135.523 144.582 135.549 142.436C135.573 141.702 135.642 140.97 135.756 140.244Z" fill="#263238"/>
<path d="M191.191 141.903L191.066 141.827L190.718 141.566C190.424 141.332 189.956 141.022 189.412 140.538C188.286 139.624 186.747 138.204 184.903 136.392C183.059 134.581 180.926 132.356 178.5 129.951C177.281 128.76 176.003 127.503 174.605 126.285C173.185 125.003 171.676 123.823 170.09 122.754C169.426 122.276 168.708 121.911 168.039 121.503L167.941 121.443V121.345C168.055 120.85 168.169 120.361 168.278 119.882L168.371 120.045L151.648 114.785L146.692 113.196L145.365 112.756L145.017 112.636L144.902 112.587C144.902 112.587 144.946 112.587 145.027 112.587L145.376 112.685L146.725 113.077L151.708 114.589L168.479 119.768L168.599 119.806L168.572 119.931C168.463 120.41 168.354 120.899 168.24 121.394L168.169 121.242C168.849 121.655 169.578 122.025 170.242 122.504C171.84 123.578 173.359 124.767 174.784 126.062C176.188 127.291 177.466 128.553 178.685 129.756C181.1 132.176 183.216 134.407 185.044 136.235C186.872 138.062 188.384 139.499 189.483 140.44C190.027 140.929 190.468 141.261 190.756 141.528L191.088 141.805C191.126 141.834 191.16 141.867 191.191 141.903Z" fill="#263238"/>
<path d="M202.009 164.174C201.779 163.817 201.574 163.444 201.394 163.059L199.822 159.937C198.506 157.287 196.711 153.626 194.741 149.568C192.772 145.51 191.009 141.827 189.747 139.156C189.138 137.839 188.632 136.768 188.268 135.984C188.11 135.631 187.979 135.342 187.881 135.114C187.829 135.016 187.789 134.912 187.762 134.804C187.83 134.892 187.887 134.989 187.93 135.092C188.045 135.31 188.191 135.593 188.366 135.935C188.752 136.708 189.285 137.769 189.927 139.069C191.243 141.751 193.028 145.406 194.997 149.443L200.002 159.849L201.498 163.01C201.688 163.389 201.858 163.778 202.009 164.174Z" fill="#263238"/>
<path d="M151.074 223.851H151.27L151.814 223.889L153.99 224.063L161.943 224.748L188.768 227.158L188.615 227.327L186.869 220.32C186.597 219.232 186.325 218.144 186.064 217.056L186.189 217.165L156.16 213.678L156.253 213.629C154.49 216.757 153.13 219.276 152.243 221.033C151.803 221.909 151.482 222.594 151.286 223.067C151.211 223.244 151.15 223.426 151.101 223.611C151.082 223.673 151.073 223.737 151.074 223.802C151.055 223.539 151.112 223.277 151.237 223.046C151.417 222.561 151.727 221.865 152.156 220.978C153.016 219.21 154.332 216.675 156.089 213.531L156.122 213.477H156.182L186.222 216.866H186.32V216.964L187.125 220.228C187.712 222.621 188.294 224.966 188.849 227.213L188.898 227.403H188.702L161.823 224.89L153.897 224.123L151.776 223.905L151.232 223.845C151.18 223.855 151.126 223.856 151.074 223.851Z" fill="#263238"/>
<g opacity="0.3">
<path d="M152.051 223.943L153.34 227.294L188.738 229.405V227.294L152.051 223.943Z" fill="black"/>
</g>
<path d="M103.362 55.2489C103.253 53.3558 101.681 51.7728 99.8751 51.2016C98.069 50.6304 96.0671 50.9187 94.2882 51.5171C90.366 52.8172 87.0693 55.4828 83.8706 58.0995C78.9039 62.1523 74.0786 67.7228 72.1855 73.8755C70.7548 78.4886 70.3413 81.4915 71.8101 86.3875C73.1048 90.7395 74.133 94.9337 73.8773 98.5676C73.4693 104.307 72.7893 105.64 71.2988 111.286C70.3794 114.806 73.5183 124.016 73.5183 124.016L93.3688 116.4C100.441 113.071 115.705 106.858 115.705 106.858L103.362 55.2489Z" fill="#263238"/>
<path d="M92.2128 122.558C92.2455 117.728 92.2944 114.366 92.289 114.398C92.2836 114.431 83.6231 112.396 81.8768 100.037C80.861 92.0344 80.6387 83.9511 81.2132 75.905C81.8061 68.5175 86.8653 59.5251 94.2202 60.4282L117.133 66.6407C119.369 66.9181 120.115 68.8167 120.033 71.0743L120.202 72.1296L118.521 107.424L119.244 122.433C118.95 129.141 112.319 135.239 105.612 135.544C103.865 135.626 102.12 135.35 100.484 134.732C98.8488 134.115 97.3572 133.168 96.1016 131.951C94.846 130.734 93.8532 129.273 93.1843 127.658C92.5155 126.042 92.1849 124.307 92.2128 122.558Z" fill="#B56760"/>
<path d="M86.4032 85.7508C86.3898 86.1644 86.5388 86.5668 86.8184 86.8718C87.0981 87.1768 87.486 87.3603 87.8992 87.3828C88.0983 87.3991 88.2987 87.3758 88.4888 87.3143C88.6789 87.2527 88.8549 87.154 89.0067 87.024C89.1584 86.8941 89.2829 86.7353 89.3729 86.5569C89.463 86.3785 89.5168 86.184 89.5312 85.9847C89.5446 85.5711 89.3955 85.1687 89.1159 84.8637C88.8363 84.5587 88.4484 84.3753 88.0352 84.3527C87.836 84.3364 87.6356 84.3597 87.4455 84.4213C87.2554 84.4828 87.0794 84.5815 86.9277 84.7115C86.7759 84.8415 86.6514 85.0003 86.5614 85.1786C86.4714 85.357 86.4176 85.5515 86.4032 85.7508Z" fill="#263238"/>
<path d="M84.3197 81.4698C84.5101 81.6765 85.7232 80.8116 87.426 80.8442C89.1287 80.8768 90.3581 81.7527 90.5485 81.546C90.641 81.4535 90.4452 81.0781 89.9066 80.6756C89.181 80.1513 88.3102 79.8661 87.4151 79.8596C86.5293 79.8386 85.66 80.1017 84.9344 80.6103C84.4122 81.002 84.2272 81.3719 84.3197 81.4698Z" fill="#263238"/>
<path d="M102.329 85.5662C102.316 85.9797 102.465 86.3821 102.744 86.6872C103.024 86.9922 103.412 87.1756 103.825 87.1982C104.024 87.2145 104.225 87.1912 104.415 87.1296C104.605 87.0681 104.781 86.9694 104.932 86.8394C105.084 86.7094 105.209 86.5506 105.299 86.3722C105.389 86.1938 105.443 85.9994 105.457 85.8001C105.473 85.3866 105.326 84.9835 105.047 84.6779C104.768 84.3724 104.38 84.1892 103.966 84.1681C103.767 84.1502 103.565 84.1724 103.374 84.2334C103.183 84.2943 103.006 84.3928 102.854 84.523C102.701 84.6532 102.576 84.8125 102.486 84.9917C102.396 85.1708 102.343 85.3661 102.329 85.5662Z" fill="#263238"/>
<path d="M100.64 81.4207C100.836 81.6275 102.049 80.7625 103.752 80.7951C105.454 80.8278 106.684 81.7036 106.874 81.4969C106.967 81.4044 106.771 81.0291 106.232 80.6265C105.507 80.1023 104.636 79.8171 103.741 79.8105C102.855 79.7918 101.987 80.0547 101.26 80.5612C100.732 80.9529 100.548 81.3228 100.64 81.4207Z" fill="#263238"/>
<path d="M93.8135 94.2863C93.8135 94.1938 92.769 93.9926 91.0554 93.7423C90.6256 93.6879 90.2122 93.5954 90.1469 93.2962C90.1159 92.8483 90.2242 92.4018 90.457 92.0178L91.8007 88.7266C93.6666 84.0482 95.0212 80.1967 94.8308 80.126C94.6404 80.0553 92.9812 83.7871 91.1152 88.4655C90.6637 89.6188 90.2339 90.7177 89.8259 91.773C89.5424 92.2907 89.4518 92.8921 89.5703 93.4703C89.6296 93.6255 89.7238 93.765 89.8454 93.8782C89.967 93.9913 90.113 94.0751 90.272 94.1231C90.5131 94.1912 90.7615 94.2296 91.0119 94.2374C92.7364 94.357 93.8026 94.3842 93.8135 94.2863Z" fill="#263238"/>
<path d="M92.2911 114.404C98.095 114.59 103.837 113.163 108.878 110.28C108.878 110.28 104.564 118.914 92.2422 117.548L92.2911 114.404Z" fill="#8A4A43"/>
<path d="M100.095 75.4043C100.297 75.8558 101.972 75.5185 103.985 75.6219C105.998 75.7252 107.641 76.1659 107.875 75.7252C107.978 75.5185 107.668 75.1051 106.988 74.7025C106.084 74.2151 105.08 73.9398 104.054 73.8974C103.028 73.855 102.005 74.0466 101.064 74.4577C100.351 74.8004 100.008 75.1867 100.095 75.4043Z" fill="#263238"/>
<path d="M83.8456 76.1605C84.1938 76.5522 85.5864 76.1605 87.251 76.1605C88.9157 76.1605 90.3301 76.4706 90.6619 76.0735C90.8088 75.8777 90.5912 75.486 89.9819 75.1106C89.1386 74.6398 88.1839 74.4049 87.2184 74.4306C86.2626 74.4236 85.3226 74.6755 84.4984 75.1596C83.8946 75.5676 83.6933 75.9647 83.8456 76.1605Z" fill="#263238"/>
<path d="M94.2176 98.4642C94.5804 97.9394 95.0782 97.5223 95.6585 97.2571C96.2388 96.9918 96.8799 96.8883 97.5142 96.9573H97.6339C97.9787 96.957 98.3161 97.0571 98.6049 97.2456C98.8936 97.434 99.1212 97.7025 99.2598 98.0182C99.3983 98.334 99.4418 98.6833 99.3849 99.0234C99.328 99.3634 99.1732 99.6795 98.9395 99.933C98.5127 100.427 97.942 100.775 97.3075 100.929C96.9078 101.058 96.4852 101.1 96.0678 101.053C95.6504 101.006 95.2478 100.871 94.8867 100.657C94.5321 100.431 94.2698 100.086 94.1471 99.684C94.0244 99.282 94.0494 98.8494 94.2176 98.4642Z" fill="#8A4A43"/>
<path d="M98.9776 95.9023C98.896 95.9023 98.7927 96.3321 98.4771 96.9903C98.0829 97.8135 97.4816 98.5201 96.732 99.0408C95.9824 99.5616 95.1103 99.8785 94.2013 99.9606C93.4995 100.037 93.048 99.9606 93.0317 100.064C93.0154 100.167 93.4506 100.325 94.2176 100.352C95.2285 100.373 96.2201 100.074 97.0499 99.4961C97.8797 98.9184 98.5051 98.0926 98.8362 97.1372C99.081 96.3919 99.0429 95.9078 98.9776 95.9023Z" fill="#263238"/>
<path d="M80.897 90.1469L78.3457 79.8109C76.05 76.6448 77.8398 71.4768 79.4663 67.9245C81.0929 64.3722 84.1937 61.6467 87.6263 59.808C91.059 57.9693 94.8887 56.9302 98.6858 56C97.1178 60.7963 93.8857 64.8735 89.5738 67.4947C89.5738 67.4947 83.3015 71.8086 82.1428 76.8678C80.9242 82.4112 80.897 90.1469 80.897 90.1469Z" fill="#263238"/>
<path d="M95.2389 62.5223L113.229 73.3316C113.73 78.8796 115.022 84.3275 117.064 89.5101C120.383 86.6705 122.433 92.1431 123.429 87.938C123.483 87.7149 122.515 96.7562 119.039 97.0391L118.495 106.869L135.653 102.648C135.653 102.648 134.728 90.7341 131.801 83.5044C129.979 79.0109 129.016 75.241 127.221 70.7367C125.855 67.3258 123.44 62.2285 121.623 59.8023C117.728 54.5962 103.296 54.3623 103.296 54.3623C96.9362 55.8637 101.217 55.1511 95.8591 58.8993L94.0312 63.7953" fill="#263238"/>
<path d="M117.059 89.4396C117.059 86.8447 119.828 84.957 122.189 86.1266C123.483 86.774 124.528 88.1503 124.566 90.9084C124.664 98.2633 117.124 96.8543 117.108 96.6421C117.091 96.43 117.075 92.4805 117.059 89.4396Z" fill="#B56760"/>
<path d="M119.353 93.8236C119.386 93.8236 119.489 93.9107 119.707 94.0086C120.022 94.1307 120.371 94.1307 120.686 94.0086C121.475 93.7094 122.122 92.4691 122.138 91.1417C122.149 90.5111 122.017 89.8864 121.752 89.3139C121.675 89.0847 121.545 88.8772 121.372 88.7087C121.199 88.5402 120.988 88.4157 120.756 88.3455C120.606 88.3081 120.448 88.324 120.308 88.3905C120.168 88.457 120.055 88.5699 119.989 88.71C119.892 88.9167 119.94 89.0582 119.902 89.0745C119.864 89.0908 119.739 88.9548 119.794 88.6502C119.835 88.4666 119.937 88.302 120.082 88.1823C120.287 88.0262 120.544 87.9559 120.8 87.9865C121.107 88.0397 121.395 88.1706 121.637 88.3668C121.879 88.5629 122.066 88.8178 122.182 89.1071C122.508 89.737 122.672 90.438 122.66 91.1471C122.66 92.6323 121.883 94.0303 120.8 94.3513C120.6 94.4118 120.388 94.4271 120.181 94.396C119.974 94.365 119.777 94.2884 119.603 94.1718C119.369 94.0031 119.331 93.8399 119.353 93.8236Z" fill="#8A4A43"/>
<path d="M103.818 54.3457C103.734 54.5056 103.63 54.6537 103.508 54.7863C103.285 55.0529 102.964 55.4228 102.507 55.8743C101.636 56.7501 100.38 57.9089 98.9869 59.1764C97.5943 60.4439 96.3431 61.5972 95.4509 62.4404C94.9918 62.9212 94.5088 63.3787 94.0039 63.8113C94.09 63.6535 94.1981 63.5088 94.3249 63.3815C94.5479 63.1149 94.8689 62.745 95.3095 62.2935C96.169 61.3959 97.4039 60.2154 98.7965 58.9479L102.371 55.6839C103.285 54.8897 103.785 54.3185 103.818 54.3457Z" fill="#455A64"/>
<path d="M83.8047 60.5744C83.9454 60.3773 84.1058 60.195 84.2834 60.0304C84.749 59.5403 85.2489 59.084 85.7794 58.665C87.5375 57.2741 89.5607 56.256 91.7253 55.673C92.9228 55.3035 94.2013 55.2865 95.4082 55.624C95.9047 55.7659 96.3655 56.0114 96.7602 56.3443C97.155 56.6771 97.4747 57.0898 97.6984 57.5552C97.9826 58.1936 98.0195 58.9149 97.8018 59.5789C97.7434 59.7571 97.6591 59.9258 97.5516 60.0794C97.4754 60.1809 97.4319 60.2299 97.421 60.2263C97.5273 60.0055 97.62 59.7784 97.6984 59.5463C97.8597 58.9076 97.7943 58.2327 97.5135 57.6368C97.2934 57.2078 96.9861 56.8295 96.6115 56.526C96.2368 56.2225 95.8029 56.0005 95.3375 55.8743C94.1754 55.5669 92.9504 55.5914 91.8015 55.945C89.6736 56.5239 87.6746 57.5003 85.91 58.8228C84.55 59.84 83.8428 60.6125 83.8047 60.5744Z" fill="#455A64"/>
<path d="M79.6914 68.0007C79.8251 67.8013 79.9821 67.6187 80.1592 67.4567C80.4748 67.1303 80.9426 66.6625 81.5301 66.1022C83.0473 64.6084 84.7428 63.3075 86.5784 62.2289C87.5894 61.6299 88.6922 61.2017 89.8424 60.9614C90.8112 60.7644 91.8184 60.9146 92.6876 61.3857C93.265 61.7127 93.7225 62.216 93.9932 62.8218C94.0599 62.9971 94.1056 63.1798 94.1292 63.3658C94.1374 63.4272 94.1374 63.4894 94.1292 63.5508C94.0965 63.5508 94.0748 63.3006 93.8844 62.8926C93.5916 62.3369 93.1386 61.882 92.5842 61.587C91.7442 61.1624 90.7833 61.0413 89.8642 61.2442C88.7393 61.492 87.6613 61.9181 86.6709 62.5063C84.8569 63.5769 83.1642 64.8409 81.6226 66.2762L80.1919 67.5601C80.0385 67.7216 79.871 67.869 79.6914 68.0007Z" fill="#455A64"/>
<path d="M122.755 97.3767C122.772 97.8841 122.638 98.3852 122.37 98.8165C122.102 99.2479 121.713 99.5902 121.251 99.8001C120.788 100.01 120.274 100.078 119.773 99.996C119.272 99.9138 118.807 99.6849 118.436 99.3383C118.065 98.9917 117.805 98.5428 117.689 98.0485C117.573 97.5542 117.606 97.0367 117.784 96.5612C117.963 96.0858 118.278 95.6738 118.69 95.3775C119.102 95.0811 119.593 94.9135 120.1 94.8961C120.438 94.8844 120.774 94.9394 121.09 95.0578C121.406 95.1762 121.695 95.3557 121.942 95.5861C122.188 95.8165 122.387 96.0932 122.527 96.4005C122.666 96.7077 122.744 97.0394 122.755 97.3767Z" fill="#455A64"/>
<path d="M75.6167 170.844C75.002 171.252 68.2183 172.895 66.5754 177.214C64.9325 181.533 56.2068 190.303 62.5226 198.865L75.6167 191.603V170.844Z" fill="#5ABF9D"/>
<path d="M62.5266 198.887C61.4198 197.43 60.6842 195.725 60.3833 193.92C60.148 192.315 60.2443 190.678 60.6661 189.111C61.4441 186.005 63.2121 183.127 64.6319 180.777C65.3752 179.645 66.0265 178.455 66.5794 177.219C67.9231 173.689 72.6994 171.942 74.7394 171.197C75.0399 171.091 75.3325 170.964 75.6153 170.816V191.608L62.5266 198.887ZM75.6153 170.865C75.3319 170.998 75.0413 171.114 74.7449 171.214C72.7103 171.953 67.9394 173.7 66.5849 177.198C66.0343 178.437 65.3829 179.628 64.6373 180.761C63.2175 183.089 61.4495 185.983 60.677 189.089C60.2551 190.651 60.1588 192.282 60.3941 193.882C60.694 195.678 61.4238 197.374 62.5212 198.827L75.5772 191.57L75.6153 170.865Z" fill="#263238"/>
<path d="M90.7383 135.065L91.81 120.252L118.771 109.002L119.728 114.529L101.363 123.875L90.7383 135.065Z" fill="#E0E0E0"/>
<path d="M119.731 111.271C119.731 111.271 103.215 117.951 95.8875 124.479C89.0004 130.615 74.6715 154.812 73.1374 161.411C71.6033 168.01 71.9025 186.261 71.9025 186.261C71.9025 186.261 71.8644 205.094 71.8644 205.557C71.8644 206.019 60.0542 236.396 62.1976 252.961H129.561C129.561 252.961 131.558 229.634 126.955 220.582C122.353 211.53 122.195 213.368 122.195 213.368C122.195 213.368 124.959 210.3 124.654 207.537C124.386 205.719 123.703 203.988 122.658 202.478L134.473 165.649C134.473 165.649 135.697 147.082 132.477 134.641C129.474 123.01 128.332 123.668 124.578 119.942C124.496 119.866 124.627 120.045 124.578 119.942L121.145 117.129L119.731 111.271Z" fill="#5ABF9D"/>
<path d="M75.6153 223.851C75.4085 223.056 80.718 213.629 80.718 213.629L111.182 218.743L113.298 227.294L75.6153 223.851Z" fill="#5ABF9D"/>
<path d="M75.6184 223.851H75.8197L76.3637 223.889L78.5397 224.063L86.4984 224.76L113.301 227.159L113.149 227.327C112.638 225.255 112.099 223.079 111.55 220.87C111.376 220.163 111.201 219.456 111.006 218.776L111.12 218.879L80.6831 213.722L80.781 213.673C79.0184 216.795 77.6639 219.32 76.7772 221.071C76.3311 221.947 76.0101 222.638 75.8143 223.111C75.7377 223.288 75.6741 223.47 75.6239 223.655C75.5912 223.78 75.6239 223.84 75.6239 223.846C75.6133 223.581 75.6714 223.319 75.7925 223.084C75.972 222.6 76.2821 221.909 76.7119 221.022C77.5714 219.249 78.8879 216.714 80.645 213.575L80.6776 213.521H80.7429L111.207 218.585H111.299V218.672L111.816 220.767C112.36 222.981 112.904 225.157 113.416 227.229L113.465 227.42H113.269L86.3951 224.906L78.469 224.139L76.342 223.922L75.798 223.862C75.7379 223.866 75.6775 223.863 75.6184 223.851Z" fill="#263238"/>
<g opacity="0.3">
<path d="M69.0898 209.223L69.7698 214.739C74.6223 218.177 81.4876 217.524 86.6828 214.619C91.878 211.714 95.7295 206.943 99.2873 202.178C110.086 187.735 119.491 172.138 125.905 155.285C109.177 175.375 85.9919 189.269 69.0898 209.223Z" fill="black"/>
</g>
<path d="M123.489 126.855C129.141 131.354 134.07 145.433 125.317 157.602C125.317 157.602 87.0739 209.489 80.7417 213.634C74.4096 217.78 65.8851 215.337 63.448 209.25C61.0108 203.162 61.9846 197.314 65.3955 193.175C68.8064 189.035 91.2192 149.567 91.2192 149.567C91.2192 149.567 96.3273 131.278 105.037 125.969" fill="#5ABF9D"/>
<path d="M105.026 125.964L104.634 126.241C104.243 126.503 103.865 126.784 103.503 127.085C102.116 128.273 100.878 129.625 99.8145 131.11C96.9965 134.951 93.8305 141.239 91.2954 149.606C86.3994 158.261 80.2413 169.038 73.0932 181.158C71.2925 184.172 69.4484 187.284 67.4573 190.406C66.9133 191.179 66.4673 191.978 65.8906 192.734C65.6132 193.121 65.3466 193.496 65.0474 193.861C64.7676 194.236 64.5079 194.627 64.2695 195.03C63.7883 195.842 63.3857 196.698 63.0673 197.587C62.7545 198.49 62.5286 199.421 62.3927 200.367C62.1291 202.292 62.212 204.248 62.6375 206.144C62.7463 206.623 62.8605 207.101 63.0129 207.569C63.1652 208.037 63.3229 208.505 63.4916 208.967C63.6602 209.43 63.8996 209.86 64.1063 210.306L64.5089 210.926C64.636 211.138 64.7816 211.338 64.9441 211.524C66.2242 213.085 67.9224 214.249 69.8401 214.881C71.7634 215.535 73.817 215.712 75.8241 215.397C77.6791 215.097 79.4411 214.377 80.9757 213.292C82.3904 212.082 83.7091 210.763 84.9197 209.348C87.3895 206.574 89.7233 203.75 91.9917 200.96C96.5178 195.367 100.777 189.889 104.814 184.64C108.85 179.39 112.642 174.391 116.178 169.696L121.281 162.885L123.674 159.67C124.447 158.615 125.252 157.614 125.894 156.548C127.211 154.572 128.233 152.415 128.929 150.145C129.076 149.601 129.223 149.057 129.365 148.545C129.506 148.034 129.566 147.485 129.664 146.962C130.417 142.587 129.943 138.088 128.293 133.966C127.533 131.96 126.443 130.096 125.067 128.45C124.822 128.173 124.626 127.906 124.425 127.726L123.908 127.248C123.631 126.992 123.495 126.851 123.495 126.851C123.495 126.851 123.647 126.976 123.93 127.226L124.474 127.694C124.686 127.879 124.882 128.14 125.132 128.412C126.526 130.052 127.629 131.917 128.396 133.928C129.652 137.104 130.248 140.502 130.148 143.916C130.105 144.946 130 145.972 129.832 146.989C129.734 147.533 129.68 148.077 129.539 148.583C129.397 149.089 129.25 149.671 129.098 150.215C128.4 152.506 127.37 154.681 126.041 156.673C125.393 157.761 124.588 158.751 123.821 159.812L121.433 163.032C119.801 165.208 118.104 167.482 116.341 169.854C112.816 174.554 109.024 179.57 104.999 184.814C100.973 190.058 96.7137 195.541 92.1876 201.134C89.9191 203.93 87.5908 206.759 85.1156 209.533C84.5009 210.229 83.8589 210.915 83.2116 211.589C82.5635 212.282 81.8673 212.927 81.1281 213.521C79.559 214.641 77.7537 215.385 75.8513 215.697C73.7903 216.02 71.6815 215.833 69.7095 215.153C67.7514 214.5 66.0194 213.304 64.7156 211.704C64.5453 211.514 64.394 211.308 64.2641 211.089L63.8506 210.452C63.6385 209.99 63.3882 209.544 63.2141 209.071C63.0401 208.597 62.8605 208.135 62.73 207.656C62.5994 207.178 62.4634 206.693 62.3546 206.209C61.6753 203.325 61.8281 200.307 62.7953 197.505C63.1239 196.601 63.5355 195.728 64.0247 194.9C64.2749 194.492 64.5306 194.089 64.8189 193.708C65.1073 193.327 65.3956 192.957 65.6621 192.582C66.2061 191.842 66.7066 191.037 67.2234 190.27C69.209 187.153 71.0586 184.047 72.8647 181.022C80.0183 168.94 86.1818 158.174 91.1268 149.535C93.6618 141.163 96.8932 134.885 99.7437 131.039C100.816 129.553 102.072 128.208 103.481 127.036C103.848 126.739 104.231 126.463 104.629 126.209C104.885 126.045 105.026 125.964 105.026 125.964Z" fill="#263238"/>
<path d="M88.1631 166.127C88.1631 166.127 87.1785 163.554 85.2092 163.211C83.2399 162.868 79.4373 163.211 79.4373 163.211C79.4373 163.211 77.7618 164.473 77.7781 166.203C77.7789 167.193 77.8976 168.179 78.1317 169.141C78.1317 169.141 76.7554 167.285 74.9439 169.043C73.1324 170.8 71.5439 174.363 71.5439 174.363C71.5439 174.363 69.134 175.135 68.2146 176.305C67.5665 177.241 67.0725 178.275 66.7513 179.368C66.1527 179.78 65.6802 180.35 65.3863 181.014C65.0924 181.679 64.9887 182.412 65.0866 183.132C65.1952 183.898 65.4835 184.626 65.9279 185.259C66.3723 185.892 66.9602 186.41 67.6434 186.772C67.6434 186.772 74.8297 192.065 75.7055 191.379C76.5813 190.694 78.382 189.617 75.798 187.326L71.5929 183.6L72.8114 181.718C72.8114 181.718 79.8453 186.554 80.9714 186.32C82.0975 186.086 84.0178 186.048 83.229 184.313C82.4402 182.577 75.8687 177.518 75.8687 177.518L76.6466 174.798C76.6466 174.798 84.2626 179.944 85.4975 179.123C86.7324 178.301 87.853 177.915 86.5855 176.218C85.318 174.521 79.829 170.468 79.829 170.468L82.0757 168.368C82.0757 168.368 87.3906 169.298 88.1631 166.127Z" fill="#B56760"/>
<path d="M121.121 117.129L120.93 117.183L120.386 117.336C119.897 117.461 119.173 117.651 118.243 117.918C115.622 118.643 113.042 119.508 110.513 120.507C109.713 120.828 108.881 121.182 108.037 121.595C107.613 121.796 107.183 122.003 106.754 122.237C106.541 122.357 106.318 122.466 106.106 122.591C105.894 122.716 105.687 122.846 105.491 122.999C103.832 124.368 102.306 125.891 100.933 127.547C97.9516 130.99 94.9106 134.983 91.7989 139.215C88.6873 143.448 85.8149 147.571 83.2309 151.33C81.9417 153.212 80.734 155.008 79.6133 156.699C78.5495 158.245 77.5846 159.857 76.7247 161.525C75.5298 163.968 74.5187 166.498 73.7001 169.092C73.4009 170.011 73.1887 170.724 73.0473 171.213L72.8895 171.757C72.8737 171.823 72.8518 171.886 72.8242 171.948C72.8242 171.948 72.8242 171.877 72.8623 171.752L72.9929 171.208C73.118 170.718 73.3138 169.995 73.5913 169.07C74.3752 166.458 75.3629 163.912 76.5452 161.454C77.397 159.773 78.3564 158.148 79.4175 156.591C80.5055 154.888 81.7349 153.087 83.0133 151.2C85.581 147.43 88.4533 143.317 91.5705 139.068C94.6876 134.82 97.734 130.838 100.737 127.389C102.125 125.723 103.672 124.196 105.355 122.83C105.557 122.672 105.78 122.547 105.992 122.406C106.204 122.264 106.433 122.172 106.65 122.052C107.08 121.818 107.515 121.611 107.945 121.416C108.799 121.013 109.631 120.659 110.436 120.328C112.979 119.341 115.576 118.502 118.216 117.814C119.151 117.564 119.88 117.395 120.392 117.27L120.936 117.151C120.996 117.138 121.058 117.13 121.121 117.129Z" fill="#263238"/>
<path d="M116.845 210.115C116.551 209.978 116.269 209.818 116.001 209.636C115.457 209.321 114.712 208.826 113.798 208.189C109.044 204.842 104.893 200.712 101.52 195.976C100.878 195.068 100.378 194.317 100.057 193.8C99.8774 193.531 99.7175 193.249 99.5781 192.957C99.7806 193.201 99.9625 193.461 100.122 193.735C100.47 194.252 100.993 194.981 101.656 195.873C105.1 200.521 109.224 204.623 113.891 208.042C114.783 208.7 115.523 209.217 116.034 209.56C116.317 209.725 116.588 209.911 116.845 210.115Z" fill="#263238"/>
<g opacity="0.3">
<path d="M76.6055 223.943L77.5248 227.294L112.004 227.18L76.6055 223.943Z" fill="black"/>
</g>
</svg>
