<svg width="351" height="234" viewBox="0 0 351 234" fill="none" xmlns="http://www.w3.org/2000/svg">
<path d="M171.568 76.513C171.19 76.5136 170.815 76.4503 170.459 76.3258L164.735 74.3415C164.173 74.1447 163.671 73.804 163.281 73.3532C162.891 72.9024 162.626 72.3573 162.512 71.7722L161.366 65.8145C161.253 65.2287 161.297 64.6236 161.492 64.06C161.688 63.4965 162.028 62.9943 162.48 62.604L167.061 58.6354C167.513 58.2451 168.06 57.9801 168.646 57.8668C169.232 57.7534 169.838 57.7958 170.403 57.9896L176.131 59.9786C176.695 60.1738 177.198 60.514 177.589 60.9649C177.98 61.4159 178.245 61.9618 178.359 62.5479L179.501 68.5008C179.612 69.0869 179.569 69.692 179.374 70.256C179.179 70.82 178.841 71.3233 178.392 71.716L173.805 75.6846C173.184 76.2213 172.389 76.5155 171.568 76.513ZM166.139 70.8689L171.493 72.7409L175.78 69.0343L174.708 63.4698L169.354 61.5978L165.072 65.3091L166.139 70.8689Z" fill="#F5F5F5"/>
<path d="M238.418 59.2207C238.04 59.2213 237.665 59.158 237.309 59.0335L234.407 58.0273C233.844 57.8314 233.342 57.4909 232.952 57.0399C232.562 56.589 232.297 56.0434 232.184 55.4579L231.604 52.444C231.492 51.8586 231.535 51.2541 231.73 50.6907C231.924 50.1273 232.263 49.6249 232.713 49.2335L235.053 47.2211C235.504 46.8312 236.05 46.5667 236.636 46.4542C237.221 46.3417 237.826 46.385 238.39 46.58L241.287 47.5862C241.851 47.7814 242.354 48.1216 242.745 48.5726C243.136 49.0235 243.401 49.5695 243.514 50.1555L244.095 53.1694C244.207 53.7552 244.163 54.3603 243.968 54.9239C243.772 55.4875 243.432 55.9896 242.981 56.3799L240.641 58.3923C240.022 58.924 239.234 59.2177 238.418 59.2207ZM235.82 54.5407L238.348 55.4158L240.365 53.6655L239.859 51.0447L237.337 50.1695L235.315 51.9479L235.82 54.5407Z" fill="#F5F5F5"/>
<path d="M318.558 103.32C318.188 103.318 317.823 103.232 317.491 103.07C317.158 102.908 316.865 102.674 316.635 102.384L315.002 100.344C314.732 100.006 314.555 99.604 314.49 99.177C314.424 98.75 314.471 98.3132 314.627 97.9102L315.563 95.4766C315.72 95.0742 315.98 94.7202 316.316 94.4499C316.653 94.1796 317.055 94.0027 317.482 93.9369L320.065 93.5391C320.493 93.4744 320.93 93.5228 321.333 93.6797C321.737 93.8365 322.092 94.0962 322.363 94.433L323.997 96.4735C324.266 96.811 324.443 97.2133 324.508 97.6403C324.574 98.0673 324.527 98.5041 324.371 98.9071L323.435 101.341C323.278 101.744 323.018 102.099 322.68 102.369C322.342 102.639 321.939 102.816 321.511 102.88L318.928 103.278C318.806 103.302 318.683 103.316 318.558 103.32ZM320.454 95.3971H320.365L317.781 95.7949C317.678 95.8103 317.58 95.8525 317.498 95.9174C317.416 95.9822 317.352 96.0675 317.313 96.1646L316.377 98.5982C316.339 98.6949 316.328 98.7999 316.343 98.9027C316.359 99.0054 316.401 99.1022 316.466 99.1832L318.1 101.224C318.166 101.304 318.251 101.365 318.348 101.403C318.445 101.441 318.549 101.453 318.652 101.439L321.235 101.041C321.339 101.027 321.437 100.985 321.52 100.92C321.602 100.855 321.665 100.769 321.703 100.671L322.639 98.2378C322.676 98.141 322.688 98.0361 322.672 97.9336C322.657 97.8311 322.615 97.7343 322.55 97.6528L320.917 95.6124C320.86 95.5448 320.789 95.4905 320.709 95.4533C320.629 95.4161 320.542 95.3969 320.454 95.3971Z" fill="#E0E0E0"/>
<path d="M27.0032 123.659C26.5285 123.659 26.0599 123.552 25.6316 123.347C25.2033 123.142 24.8261 122.844 24.5275 122.475L20.6899 117.683C20.3455 117.248 20.121 116.731 20.0389 116.182C19.9568 115.634 20.0199 115.073 20.2219 114.557L22.4636 108.833C22.6657 108.316 22.9998 107.862 23.4326 107.514C23.8653 107.167 24.3817 106.939 24.93 106.854L31.014 105.918C31.5632 105.835 32.1244 105.898 32.6417 106.1C33.159 106.302 33.6144 106.636 33.9624 107.069L37.7672 111.852C38.112 112.287 38.3367 112.805 38.4188 113.355C38.501 113.904 38.4376 114.465 38.2352 114.983L36.0356 120.711C35.8338 121.229 35.4993 121.686 35.0656 122.034C34.6319 122.382 34.1142 122.61 33.5646 122.695L27.4806 123.631C27.3226 123.655 27.1628 123.664 27.0032 123.659ZM23.2873 115.703L27.0313 120.383L32.9749 119.476L35.1558 113.86L31.4118 109.18L25.4682 110.092L23.2873 115.703Z" fill="#E0E0E0"/>
<path d="M42.5296 81.7125H38.912C38.481 81.7138 38.0571 81.6022 37.6827 81.3887C37.3083 81.1752 36.9963 80.8673 36.7779 80.4957L34.9668 77.3647C34.753 76.9889 34.6406 76.5639 34.6406 76.1316C34.6406 75.6992 34.753 75.2742 34.9668 74.8984L36.7779 71.7675C36.9942 71.3929 37.3053 71.0819 37.6799 70.8659C38.0546 70.6498 38.4795 70.5362 38.912 70.5366H42.5296C42.9621 70.5362 43.3871 70.6498 43.7617 70.8659C44.1364 71.0819 44.4475 71.3929 44.6637 71.7675L46.4749 74.8797C46.6886 75.2555 46.801 75.6805 46.801 76.1128C46.801 76.5452 46.6886 76.9702 46.4749 77.346L44.6637 80.4957C44.445 80.867 44.133 81.1746 43.7586 81.3881C43.3843 81.6015 42.9606 81.7133 42.5296 81.7125ZM38.912 72.3899C38.808 72.3901 38.7058 72.4174 38.6155 72.4691C38.5253 72.5208 38.45 72.5951 38.3972 72.6847L36.5907 75.8157C36.5381 75.9059 36.5104 76.0084 36.5104 76.1128C36.5104 76.2173 36.5381 76.3198 36.5907 76.41L38.3972 79.5597C38.4498 79.6498 38.5249 79.7248 38.6151 79.7773C38.7053 79.8298 38.8076 79.858 38.912 79.8592H42.5296C42.6356 79.8597 42.7398 79.8322 42.8319 79.7796C42.9239 79.7271 43.0004 79.6512 43.0538 79.5597L44.8603 76.4287C44.9129 76.3385 44.9406 76.236 44.9406 76.1316C44.9406 76.0271 44.9129 75.9246 44.8603 75.8344L43.0538 72.6847C43.001 72.5951 42.9257 72.5208 42.8355 72.4691C42.7452 72.4174 42.643 72.3901 42.539 72.3899H38.912Z" fill="#EBEBEB"/>
<path d="M104.262 46.3084L97.2045 41.8671L88.5418 27.2468L76.4908 19.8711L74.1602 22.3936L75.3816 24.041L79.1865 29.1422L94.2888 49.4159L100.448 52.8043L104.262 46.3084Z" fill="#EBEBEB"/>
<path d="M95.3908 56.8195L93.3691 50.0896L71.1765 24.7334L68.2188 26.4837L72.9034 39.817L85.7875 52.4718L88.675 60.3716L95.3908 56.8195Z" fill="#EBEBEB"/>
<path d="M107.415 47.5625C107.415 47.5625 132.477 61.317 137.526 65.9596C142.576 70.6021 154.374 89.9352 153.176 92.4063C151.978 94.8773 151.061 95.2143 148.342 92.8181C145.623 90.4219 136.834 77.1775 134.475 75.0341C132.116 72.8907 102.754 55.6917 102.754 55.6917L107.415 47.5625Z" fill="#E0E0E0"/>
<path d="M90.4217 53.4546C94.8053 53.4546 98.3589 49.901 98.3589 45.5174C98.3589 41.1337 94.8053 37.5801 90.4217 37.5801C86.038 37.5801 82.4844 41.1337 82.4844 45.5174C82.4844 49.901 86.038 53.4546 90.4217 53.4546Z" fill="#EBEBEB"/>
<path d="M88.4534 53.1972C89.0926 53.3175 89.7406 53.3848 90.3909 53.3984C91.1521 53.401 91.9094 53.289 92.6373 53.0661C94.3893 52.5534 95.9082 51.4466 96.933 49.9358C97.9578 48.4251 98.4246 46.6047 98.2533 44.7872C98.1737 44.0286 97.978 43.2867 97.673 42.5876C97.5283 42.2287 97.3594 41.88 97.1675 41.544C96.9623 41.2046 96.7323 40.8808 96.4796 40.5752C95.4352 39.2798 94.0029 38.3535 92.3932 37.9324C90.7834 37.5112 89.081 37.6173 87.5361 38.2352C87.17 38.3825 86.8136 38.5528 86.469 38.7453C86.1426 38.9475 85.8299 39.1711 85.533 39.4146C84.9407 39.8811 84.4244 40.4368 84.0027 41.0619C83.2072 42.2146 82.7338 43.5588 82.6314 44.9557C82.5556 46.0653 82.7143 47.1786 83.0973 48.2228C83.4803 49.267 84.079 50.2189 84.8544 51.0163C85.3812 51.5721 85.9886 52.0454 86.6562 52.4203C87.2322 52.7237 87.8316 52.9803 88.4487 53.1878C88.4067 53.1931 88.3643 53.1931 88.3223 53.1878L87.9573 53.0848C87.7585 53.0344 87.5643 52.9671 87.377 52.8836C87.1142 52.7841 86.8592 52.6652 86.6141 52.5279C85.9227 52.1709 85.2911 51.7083 84.7421 51.1567C83.9362 50.3528 83.3107 49.3866 82.9072 48.3223C82.5038 47.2579 82.3316 46.1198 82.4021 44.9838C82.5037 43.5469 82.9885 42.1636 83.8061 40.9777C84.2403 40.333 84.7706 39.7585 85.3786 39.2742C86.0017 38.7563 86.7051 38.3438 87.4612 38.0527C89.0516 37.4148 90.8045 37.3034 92.4629 37.7346C94.1213 38.1658 95.5979 39.1171 96.6761 40.4488C96.9326 40.7663 97.1672 41.101 97.3781 41.4504C97.5766 41.798 97.7502 42.1593 97.8976 42.5314C98.1951 43.2472 98.3783 44.0052 98.4405 44.7778C98.5691 46.1166 98.3563 47.4662 97.8219 48.7004C97.2874 49.9346 96.4488 51.0131 95.3844 51.8353C94.575 52.4672 93.6497 52.9346 92.6607 53.2112C91.9195 53.4281 91.1489 53.5276 90.3768 53.506C90.0949 53.5072 89.8133 53.4868 89.5344 53.4452C89.3279 53.4307 89.1228 53.3994 88.9214 53.3516L88.5516 53.2627C88.516 53.2455 88.4829 53.2235 88.4534 53.1972Z" fill="#E0E0E0"/>
<path d="M89.2981 49.8557C88.4393 49.6336 87.6657 49.1616 87.0752 48.4997C86.4847 47.8377 86.1039 47.0155 85.9808 46.137C85.8578 45.2585 85.9981 44.3633 86.3841 43.5646C86.77 42.7659 87.3842 42.0996 88.1489 41.6501C88.9136 41.2005 89.7945 40.988 90.6801 41.0392C91.5657 41.0905 92.4161 41.4033 93.1239 41.9381C93.8316 42.4729 94.3648 43.2056 94.656 44.0435C94.9471 44.8814 94.9832 45.7868 94.7596 46.6452C94.4602 47.7947 93.717 48.7784 92.693 49.3803C91.669 49.9822 90.448 50.1532 89.2981 49.8557Z" fill="#E0E0E0"/>
<path d="M89.2976 49.8559C89.2976 49.8231 89.686 49.9495 90.388 49.9495C91.2281 49.9418 92.049 49.697 92.7561 49.2433C93.4632 48.7896 94.0277 48.1454 94.3847 47.3848C94.712 46.6741 94.8445 45.8891 94.7685 45.1104C94.6833 44.2519 94.3463 43.4378 93.7997 42.7704C93.2161 42.0493 92.4166 41.5343 91.5187 41.3009C90.6208 41.0676 89.6718 41.1283 88.8109 41.474C88.4022 41.6262 88.0211 41.8444 87.683 42.1198C87.3503 42.3851 87.0613 42.701 86.8265 43.0558C86.382 43.6988 86.1155 44.448 86.0543 45.2274C86.0029 45.9077 86.1119 46.5906 86.3726 47.221C86.75 48.1461 87.4275 48.9175 88.2961 49.4113C88.6205 49.5866 88.9549 49.7429 89.2976 49.8793C88.9301 49.8148 88.5759 49.6898 88.2493 49.5096C87.3365 49.032 86.6171 48.2531 86.2135 47.3053C85.9307 46.6509 85.8072 45.9388 85.8531 45.2274C85.9063 44.408 86.1777 43.6179 86.6393 42.9388C86.879 42.5656 87.1741 42.231 87.5145 41.9467C87.8709 41.6521 88.2722 41.4167 88.7032 41.2494C89.6112 40.8818 90.6134 40.8163 91.5616 41.0624C92.5098 41.3085 93.3536 41.8532 93.9682 42.6159C94.5505 43.3188 94.9105 44.1789 95.0025 45.087C95.0757 45.9048 94.9286 46.7273 94.5766 47.4691C94.2698 48.1115 93.8161 48.6726 93.2522 49.1071C92.4367 49.7385 91.4284 50.0691 90.3974 50.0431C90.0229 50.0428 89.6511 49.9795 89.2976 49.8559Z" fill="#E0E0E0"/>
<path d="M102.526 46.0424L99.2832 51.6869C98.3329 53.3409 98.9033 55.452 100.557 56.4023L100.862 56.5772C102.516 57.5274 104.627 56.957 105.577 55.3031L108.82 49.6586C109.77 48.0046 109.2 45.8935 107.546 44.9432L107.242 44.7683C105.588 43.818 103.477 44.3885 102.526 46.0424Z" fill="#EBEBEB"/>
<path d="M99.2825 51.6904C99.0886 52.1071 98.9577 52.5503 98.894 53.0054C98.8457 53.5403 98.9177 54.0792 99.1046 54.5826C99.2208 54.8925 99.3782 55.1853 99.5726 55.4531C99.8012 55.747 100.076 56.0015 100.387 56.2066C100.728 56.4364 101.096 56.6234 101.482 56.7635C102.158 56.9923 102.889 56.999 103.568 56.7825C104.248 56.5661 104.84 56.138 105.259 55.5607C106.335 53.7683 107.472 51.7138 108.699 49.6031C108.979 49.1027 109.126 48.5387 109.126 47.9651C109.126 47.3915 108.979 46.8275 108.699 46.3271C108.45 45.8465 108.087 45.4349 107.641 45.129C107.208 44.8249 106.72 44.6087 106.204 44.4925C105.726 44.3955 105.233 44.4039 104.758 44.517C104.284 44.6302 103.84 44.8454 103.457 45.1477C102.722 45.7046 102.399 46.5517 101.969 47.235L100.041 50.511L99.5071 51.3955C99.4504 51.502 99.383 51.6023 99.3059 51.695C99.3524 51.5828 99.4055 51.4734 99.465 51.3674C99.5914 51.1428 99.7552 50.8386 99.9611 50.4642C100.429 49.6592 101.042 48.536 101.833 47.1554L102.451 46.0603C102.679 45.6513 102.982 45.2892 103.345 44.9933C103.746 44.6708 104.212 44.4393 104.712 44.3149C105.211 44.1904 105.731 44.176 106.237 44.2726C106.777 44.3906 107.289 44.6132 107.744 44.9278C108.242 45.2395 108.653 45.6727 108.937 46.1867C109.243 46.7243 109.404 47.3324 109.404 47.951C109.404 48.5697 109.243 49.1777 108.937 49.7154C107.706 51.8354 106.597 53.8572 105.469 55.6871C105.159 56.1026 104.762 56.4462 104.307 56.6942C103.851 56.9421 103.347 57.0887 102.83 57.1238C102.362 57.1508 101.893 57.0872 101.449 56.9366C101.05 56.7836 100.672 56.5824 100.321 56.3376C99.997 56.1192 99.7108 55.8488 99.4744 55.5373C99.2767 55.2479 99.1193 54.9331 99.0064 54.6013C98.8496 54.1771 98.7796 53.7257 98.8005 53.2739C98.8214 52.8221 98.9328 52.3791 99.128 51.9712C99.1716 51.8734 99.2232 51.7795 99.2825 51.6904Z" fill="#E0E0E0"/>
<path d="M89.6094 64.3686C89.6094 64.3686 99.1051 91.3348 102.868 97.0724C106.631 102.81 123.783 117.59 126.413 116.813C129.043 116.036 129.506 115.179 127.606 112.133C125.706 109.086 114.034 98.2378 112.312 95.5561C110.59 92.8745 98.361 61.1113 98.361 61.1113L89.6094 64.3686Z" fill="#E0E0E0"/>
<path d="M94.9995 57.021L88.9027 59.303C87.1162 59.9716 86.21 61.9619 86.8787 63.7484L87.0017 64.0771C87.6703 65.8636 89.6606 66.7697 91.4471 66.1011L97.5439 63.8192C99.3304 63.1505 100.237 61.1603 99.5679 59.3738L99.4449 59.045C98.7762 57.2586 96.786 56.3524 94.9995 57.021Z" fill="#EBEBEB"/>
<path d="M95.0032 57.0161C95.1104 56.9602 95.2234 56.9163 95.3402 56.8851C95.6763 56.7893 96.0251 56.7451 96.3745 56.7541C96.9287 56.7725 97.4707 56.9216 97.9563 57.1893C98.2578 57.3623 98.5348 57.5748 98.78 57.8211C99.0474 58.1063 99.2685 58.4316 99.4352 58.7852C99.6201 59.1706 99.7553 59.5779 99.8377 59.9973C99.9198 60.4631 99.9071 60.9406 99.8002 61.4013C99.6792 61.9084 99.449 62.383 99.1256 62.792C98.8023 63.201 98.3937 63.5345 97.9282 63.7694C95.9439 64.5697 93.7677 65.3512 91.4745 66.2217C90.8941 66.4356 90.2683 66.4963 89.6576 66.398C89.0469 66.2996 88.4718 66.0455 87.9879 65.6601C87.5269 65.2869 87.1665 64.8042 86.9396 64.2561C86.7 63.7515 86.5632 63.2042 86.5371 62.6462C86.5198 62.1277 86.6165 61.6117 86.8203 61.1347C87.024 60.6576 87.33 60.231 87.7165 59.885C88.0675 59.5757 88.4741 59.3359 88.9146 59.1783L90.0939 58.7431L93.6601 57.4514L94.6335 57.1097C94.7456 57.0649 94.8615 57.0304 94.9798 57.0068C94.8768 57.0692 94.7669 57.1195 94.6522 57.1565L93.7162 57.5403L90.1782 58.9069C89.4434 59.2204 88.5448 59.4029 87.8756 60.0347C87.5154 60.3642 87.2309 60.7678 87.0418 61.2179C86.8528 61.6679 86.7636 62.1537 86.7805 62.6415C86.8143 63.1693 86.9494 63.6857 87.1783 64.1625C87.3923 64.6687 87.7303 65.1129 88.1611 65.4542C88.6126 65.8135 89.1493 66.0502 89.7191 66.1412C90.289 66.2322 90.8727 66.1745 91.4137 65.9737C93.6928 65.1079 95.9065 64.3169 97.8534 63.5494C98.4884 63.2275 99.0049 62.7125 99.3287 62.0784C99.6525 61.4443 99.7668 60.7239 99.6552 60.0207C99.5778 59.615 99.4504 59.2204 99.2761 58.846C99.1247 58.5035 98.9193 58.1874 98.6677 57.91C98.4385 57.6693 98.177 57.4614 97.8908 57.2923C97.4267 57.0211 96.9061 56.8609 96.3698 56.8243C95.9072 56.8181 95.4463 56.8829 95.0032 57.0161Z" fill="#E0E0E0"/>
<path d="M334.51 212.224C334.51 212.289 263.168 212.345 175.184 212.345C87.1997 212.345 15.8438 212.289 15.8438 212.224C15.8438 212.158 87.1716 212.102 175.184 212.102C263.196 212.102 334.51 212.158 334.51 212.224Z" fill="#263238"/>
<path d="M40.7148 158.685C40.8412 158.292 55.4241 110.621 55.4241 110.621L55.059 104.701L58.8732 98.4204L63.6094 99.9882L62.9636 107.008L59.594 112.128L44.9268 160.056L40.7148 158.685Z" fill="#E0E0E0"/>
<path d="M40.7148 158.685L40.9956 158.764L41.8053 159.017L44.9268 159.995L44.8754 160.023C47.2481 152.25 52.7331 134.26 59.491 112.109L62.8559 106.994V107.045C63.0618 104.804 63.2818 102.422 63.5018 100.025L63.586 100.152L63.1929 100.025L58.8498 98.5887L58.9902 98.5373L55.176 104.818V104.748C55.2977 106.766 55.4178 108.74 55.5364 110.668V110.71C51.2729 124.558 47.5804 136.553 44.9549 145.089C43.6352 149.362 42.5775 152.764 41.8521 155.109C41.4917 156.279 41.2062 157.182 41.0144 157.8L40.7944 158.497L40.7148 158.736C40.7307 158.659 40.751 158.582 40.7757 158.507C40.8225 158.343 40.888 158.114 40.9769 157.819C41.1641 157.201 41.4449 156.302 41.7819 155.142C42.4886 152.802 43.5182 149.395 44.8098 145.127C47.4213 136.562 51.081 124.535 55.3118 110.64V110.682C55.1901 108.754 55.0668 106.78 54.942 104.762V104.724V104.691L58.7562 98.4109L58.803 98.3267L58.8966 98.3594L63.2444 99.7915L63.6328 99.9225L63.7264 99.9506V100.049C63.5064 102.459 63.2865 104.841 63.0759 107.069V107.102V107.125L59.711 112.245V112.212C52.8828 134.316 47.3511 152.282 44.9549 160.056V160.098H44.9128L41.7866 159.064L40.9956 158.797L40.7148 158.685Z" fill="#263238"/>
<path d="M37.202 160.992L30.65 169.846L21.4913 203.074C21.4913 203.074 20.1762 209.851 27.6595 211.774C36.0835 213.937 38.0023 207.497 38.0023 207.497L46.8943 175.05L46.8007 163.8L48.9956 161.324C49.0949 161.209 49.1645 161.071 49.1985 160.922C49.2324 160.774 49.2297 160.62 49.1905 160.473C49.1513 160.326 49.0769 160.19 48.9736 160.078C48.8703 159.967 48.7413 159.882 48.5978 159.831L38.0772 156.359C37.931 156.313 37.7758 156.304 37.6252 156.332C37.4747 156.36 37.3334 156.425 37.2137 156.521C37.094 156.616 36.9996 156.74 36.9389 156.881C36.8781 157.021 36.8528 157.175 36.8651 157.327L37.202 160.992Z" fill="#5ABF9D"/>
<path d="M46.858 164.188C46.8346 164.254 44.6303 163.613 41.9346 162.756C39.2389 161.9 37.0627 161.151 37.0861 161.086C37.1095 161.02 39.3091 161.666 42.0095 162.522C44.7098 163.379 46.8767 164.123 46.858 164.188Z" fill="#263238"/>
<path d="M46.9117 175.055C46.6899 175.041 46.4703 175.003 46.2565 174.943C45.8353 174.854 45.2363 174.709 44.4921 174.522C43.0039 174.152 40.9634 173.586 38.7404 172.874C36.5174 172.163 34.5284 171.442 33.0917 170.885C32.3803 170.604 31.8047 170.37 31.4115 170.202C31.2029 170.127 31.0022 170.031 30.8125 169.917C31.0306 169.961 31.2438 170.027 31.449 170.113L33.1525 170.721C34.5939 171.236 36.5876 171.934 38.8106 172.64C41.0336 173.347 43.0647 173.941 44.5343 174.358L46.2799 174.849C46.4964 174.898 46.7078 174.967 46.9117 175.055Z" fill="#263238"/>
<g opacity="0.3">
<path d="M34.5985 173.369L34.3693 173.303C33.5505 173.064 32.6931 173.534 32.4543 174.353L24.3442 202.159C24.1054 202.978 24.5756 203.835 25.3944 204.074L25.6235 204.141C26.4424 204.379 27.2998 203.909 27.5386 203.09L35.6487 175.284C35.8875 174.466 35.4173 173.608 34.5985 173.369Z" fill="black"/>
</g>
<g opacity="0.3">
<path d="M39.2938 174.892L39.0647 174.825C38.2458 174.586 37.3884 175.056 37.1496 175.875L29.0395 203.681C28.8007 204.5 29.2709 205.357 30.0897 205.596L30.3189 205.663C31.1377 205.902 31.9951 205.432 32.2339 204.613L40.344 176.807C40.5828 175.988 40.1126 175.131 39.2938 174.892Z" fill="black"/>
</g>
<g opacity="0.3">
<path d="M43.5261 176.292L43.2973 176.225C42.4794 175.982 41.6201 176.449 41.378 177.267L33.1565 205.04C32.9144 205.858 33.3811 206.717 34.199 206.959L34.4279 207.027C35.2457 207.269 36.105 206.803 36.3471 205.985L44.5686 178.212C44.8108 177.394 44.344 176.534 43.5261 176.292Z" fill="black"/>
</g>
<path d="M59.563 112.133C58.8473 112.013 58.1472 111.814 57.4757 111.539C56.7784 111.342 56.1062 111.066 55.4727 110.715C56.1861 110.838 56.8843 111.037 57.5553 111.309C58.2538 111.506 58.9275 111.782 59.563 112.133Z" fill="#263238"/>
<path d="M63.6213 99.9879C63.5862 100.211 63.5314 100.43 63.4575 100.643C63.3217 101.111 63.1439 101.701 62.9239 102.431L61.0519 108.515L61.0145 108.632L60.8975 108.594L58.74 107.841L56.5217 107.064L56.4141 107.027L56.4468 106.919C57.1207 104.513 57.7151 102.403 58.155 100.835C58.3703 100.11 58.5435 99.5106 58.6792 99.0613C58.7342 98.8438 58.8062 98.631 58.8945 98.4248C58.8688 98.6483 58.8234 98.8692 58.7587 99.0847L58.2907 100.877C57.8742 102.436 57.3126 104.551 56.6668 106.961L56.5919 106.816L58.8149 107.593L60.9677 108.346L60.8133 108.426L62.7789 102.384C63.0222 101.659 63.2469 101.069 63.3779 100.62C63.4411 100.403 63.5225 100.191 63.6213 99.9879Z" fill="#263238"/>
<path d="M201.663 52.3789C201.286 52.3795 200.911 52.3162 200.554 52.1917L194.821 50.2074C194.259 50.0106 193.757 49.6699 193.367 49.2191C192.977 48.7683 192.712 48.2232 192.598 47.638L191.452 41.6804C191.339 41.0946 191.383 40.4895 191.578 39.9259C191.774 39.3623 192.114 38.8602 192.565 38.4699L197.152 34.5013C197.603 34.1118 198.149 33.8475 198.735 33.735C199.32 33.6225 199.925 33.6657 200.489 33.8601L206.217 35.8444C206.781 36.0405 207.283 36.3809 207.674 36.8318C208.065 37.2826 208.33 37.8281 208.445 38.4138L209.591 44.3714C209.701 44.9572 209.657 45.5616 209.461 46.1247C209.266 46.6878 208.927 47.1901 208.477 47.5819L203.891 51.5505C203.272 52.0851 202.481 52.3791 201.663 52.3789ZM196.235 46.7348L201.593 48.6068L205.875 44.9002L204.804 39.3123L199.45 37.4403L195.158 41.1843L196.235 46.7348Z" fill="#E0E0E0"/>
<path d="M196.232 46.7347C196.193 46.6136 196.162 46.4901 196.139 46.365L195.905 45.2652C195.704 44.2777 195.437 42.8878 195.076 41.1889C195.073 41.173 195.074 41.1563 195.079 41.1407C195.083 41.1251 195.092 41.1111 195.104 41.1L199.373 37.356C199.39 37.347 199.409 37.3423 199.429 37.3423C199.448 37.3423 199.468 37.347 199.485 37.356L204.839 39.228L204.923 39.3216V39.4012V39.4948L204.961 39.6773L205.031 40.0423C205.078 40.281 205.12 40.5103 205.166 40.7631C205.26 41.2311 205.349 41.6991 205.438 42.1671C205.616 43.1031 205.789 44.0016 205.953 44.8674C205.957 44.8871 205.955 44.9074 205.949 44.9263C205.942 44.9453 205.931 44.9621 205.915 44.9751L201.647 48.6723C201.634 48.6801 201.618 48.6842 201.603 48.6842C201.587 48.6842 201.572 48.6801 201.558 48.6723L197.641 47.2683L196.588 46.8751C196.466 46.8355 196.347 46.787 196.232 46.7301C196.366 46.758 196.497 46.7955 196.625 46.8424L197.707 47.1887L201.619 48.4991H201.53L205.798 44.7551L205.761 44.8674C205.592 43.9969 205.415 43.0984 205.237 42.1671C205.148 41.6991 205.054 41.2311 204.961 40.7631C204.914 40.5244 204.872 40.2951 204.825 40.0423L204.755 39.6773L204.717 39.4948V39.4012V39.3544V39.3216C204.717 39.3216 204.867 39.4948 204.792 39.4105L199.443 37.5385H199.555L195.254 41.2311L195.287 41.1421C195.591 42.8363 195.844 44.2169 196.022 45.2044C196.101 45.6724 196.167 46.0421 196.214 46.3229C196.233 46.4593 196.239 46.5972 196.232 46.7347Z" fill="#263238"/>
<path d="M201.66 52.3787C201.66 52.3787 201.862 52.3787 202.241 52.3039C202.787 52.1998 203.3 51.9636 203.734 51.6159L208.39 47.5396C208.9 47.0998 209.264 46.5155 209.434 45.8642C209.526 45.5211 209.563 45.1659 209.546 44.8112C209.505 44.4413 209.442 44.0741 209.359 43.7114C209.064 42.1997 208.751 40.5898 208.423 38.8957C208.365 38.4719 208.25 38.0579 208.081 37.6648C207.899 37.2683 207.64 36.9121 207.319 36.6172C206.997 36.3222 206.62 36.0945 206.209 35.9473L204.89 35.4793L202.18 34.5433L200.776 34.0753C200.331 33.8881 199.854 33.788 199.372 33.7804C198.887 33.7799 198.408 33.8853 197.968 34.0893C197.541 34.3037 197.149 34.5832 196.807 34.9177L194.64 36.7897L192.548 38.6008C191.912 39.1844 191.529 39.9941 191.481 40.8566C191.475 41.2743 191.522 41.6911 191.622 42.0968C191.701 42.5133 191.776 42.9205 191.856 43.3229C192.006 44.1279 192.155 44.9048 192.296 45.6629C192.436 46.4211 192.572 47.1512 192.717 47.8345C192.891 48.4824 193.257 49.0629 193.765 49.5005C194.002 49.7023 194.265 49.8708 194.547 50.0013C194.823 50.123 195.118 50.2119 195.389 50.3149L196.957 50.8671L199.465 51.7563C199.984 51.9657 200.516 52.1423 201.057 52.2851C201.431 52.3553 201.637 52.3507 201.637 52.36C201.441 52.3838 201.243 52.3838 201.047 52.36C200.5 52.234 199.962 52.0698 199.437 51.8686L196.938 51.0122L195.366 50.4787C195.085 50.3804 194.8 50.2961 194.505 50.1698C194.206 50.0351 193.928 49.8603 193.676 49.6503C193.136 49.1941 192.747 48.5858 192.558 47.9047C192.399 47.1933 192.272 46.4726 192.123 45.7191C191.973 44.9656 191.823 44.1841 191.655 43.3791C191.573 42.9829 191.494 42.5757 191.416 42.1576C191.31 41.7353 191.26 41.3012 191.266 40.8659C191.315 39.9419 191.723 39.0734 192.403 38.4464L194.491 36.6305L196.657 34.7585C196.845 34.5994 197.018 34.4403 197.219 34.2905C197.424 34.1381 197.643 34.0065 197.874 33.8974C198.341 33.681 198.848 33.5692 199.363 33.5698C199.872 33.5778 200.376 33.6826 200.846 33.8787L202.25 34.3467L204.96 35.2827L206.28 35.7507C206.725 35.9097 207.134 36.1564 207.482 36.4761C207.824 36.7896 208.099 37.1683 208.292 37.5899C208.469 38.0007 208.588 38.4337 208.648 38.8769C208.96 40.5773 209.264 42.1841 209.56 43.6973C209.645 44.0691 209.706 44.4458 209.743 44.8252C209.77 45.364 209.672 45.9017 209.458 46.3968C209.244 46.8918 208.918 47.3309 208.507 47.68L203.799 51.7001C203.346 52.0464 202.813 52.2747 202.25 52.3647C202.055 52.3936 201.857 52.3983 201.66 52.3787Z" fill="#263238"/>
<path d="M161.774 42.6348C161.403 42.6339 161.037 42.5492 160.703 42.3872C160.369 42.2251 160.076 41.9898 159.846 41.6988L158.212 39.663C157.943 39.3245 157.766 38.9214 157.701 38.4937C157.635 38.0659 157.682 37.6285 157.838 37.2247L158.774 34.7911C158.932 34.3884 159.192 34.0341 159.53 33.7638C159.867 33.4936 160.27 33.3169 160.697 33.2514L163.276 32.8536C163.704 32.7888 164.141 32.8373 164.544 32.9941C164.947 33.1509 165.303 33.4107 165.574 33.7475L167.207 35.7879C167.477 36.1255 167.654 36.5278 167.719 36.9548C167.785 37.3818 167.738 37.8186 167.582 38.2215L166.646 40.6598C166.491 41.0628 166.233 41.4183 165.898 41.6908C165.563 41.9634 165.162 42.1436 164.736 42.2136L162.153 42.6067C162.028 42.6257 161.901 42.635 161.774 42.6348ZM163.646 34.7115H163.557L160.992 35.1C160.889 35.1154 160.791 35.1576 160.709 35.2225C160.627 35.2873 160.563 35.3726 160.524 35.4697L159.588 37.908C159.551 38.0048 159.54 38.1097 159.556 38.2122C159.571 38.3148 159.613 38.4115 159.677 38.493L161.311 40.5288C161.376 40.6095 161.461 40.6718 161.558 40.7095C161.655 40.7472 161.76 40.7592 161.863 40.7441L164.446 40.3463C164.55 40.3313 164.648 40.2893 164.73 40.2243C164.812 40.1594 164.876 40.0739 164.914 39.9765L165.85 37.5429C165.888 37.4462 165.9 37.3412 165.884 37.2385C165.869 37.1357 165.826 37.039 165.761 36.9579L164.128 34.9221C164.071 34.8552 164 34.8016 163.92 34.7652C163.84 34.7288 163.753 34.7105 163.665 34.7115H163.646Z" fill="#E0E0E0"/>
<path d="M163.665 34.7117C163.731 34.6912 163.801 34.6912 163.866 34.7117C163.947 34.7337 164.023 34.7737 164.086 34.8287C164.166 34.9072 164.241 34.99 164.311 35.0767L165.64 36.6726L165.855 36.9393C165.936 37.0495 165.982 37.1817 165.986 37.3184C165.983 37.4531 165.952 37.5856 165.893 37.7069C165.851 37.8239 165.804 37.9409 165.762 38.0625C165.574 38.5305 165.378 39.0594 165.172 39.6023C165.121 39.738 165.069 39.8737 165.013 40.0141C164.951 40.1832 164.828 40.3222 164.667 40.4025C164.516 40.4587 164.359 40.4949 164.199 40.5102L163.731 40.5851C163.099 40.6787 162.481 40.7863 161.779 40.8752C161.678 40.8755 161.579 40.8544 161.487 40.8132C161.395 40.7721 161.312 40.7118 161.245 40.6365L160.937 40.2481L160.333 39.4993L159.757 38.7692L159.612 38.5914C159.557 38.5258 159.512 38.4514 159.481 38.3714C159.418 38.2057 159.418 38.0224 159.481 37.8566L160.09 36.3263L160.366 35.6336C160.406 35.5157 160.459 35.4027 160.525 35.2967C160.6 35.1912 160.704 35.1098 160.824 35.0627C161.723 34.8989 162.406 34.8333 162.898 34.7678C163.149 34.7186 163.404 34.6967 163.66 34.7023C163.598 34.7253 163.534 34.741 163.468 34.7491L162.916 34.8614C162.448 34.955 161.709 35.058 160.89 35.2218C160.802 35.2604 160.726 35.3218 160.67 35.3996C160.617 35.497 160.574 35.5988 160.539 35.7038L160.277 36.4011L159.687 37.9409C159.645 38.054 159.645 38.1787 159.687 38.2919C159.752 38.4124 159.832 38.524 159.926 38.6241L160.525 39.3589L161.128 40.1077L161.433 40.4868C161.477 40.5359 161.531 40.575 161.592 40.6016C161.652 40.6282 161.718 40.6417 161.784 40.6412L163.698 40.3557L164.166 40.2855C164.308 40.2767 164.448 40.2483 164.582 40.2013C164.693 40.1486 164.779 40.0545 164.821 39.9392C164.872 39.7988 164.929 39.6631 164.98 39.5274C165.195 38.9939 165.397 38.4791 165.589 37.997C165.642 37.8816 165.688 37.7646 165.729 37.646C165.78 37.5487 165.81 37.442 165.818 37.3325C165.813 37.2327 165.783 37.1359 165.729 37.0517L165.523 36.7896L164.255 35.1469C164.199 35.0322 164.116 34.9327 164.013 34.8569C163.911 34.7811 163.791 34.7313 163.665 34.7117Z" fill="#263238"/>
<path d="M161.774 42.635C161.876 42.6119 161.979 42.5963 162.083 42.5882L162.977 42.4338L164.381 42.1951C164.672 42.1632 164.958 42.094 165.232 41.9892C165.532 41.8653 165.803 41.6805 166.028 41.4463C166.286 41.1899 166.484 40.8799 166.608 40.5384C166.744 40.1827 166.889 39.8083 167.034 39.4198C167.292 38.6383 167.816 37.838 167.624 36.9441C167.541 36.4908 167.333 36.0695 167.025 35.7273L166.089 34.5667L165.621 33.9676C165.472 33.7663 165.295 33.5867 165.097 33.4341C164.692 33.1303 164.199 32.9661 163.693 32.9661C163.432 32.9757 163.172 33.0054 162.916 33.055L162.134 33.172L160.613 33.4107C160.146 33.512 159.722 33.7537 159.396 34.1034C159.239 34.271 159.107 34.4601 159.003 34.665C158.905 34.8662 158.825 35.1002 158.741 35.3108L158.24 36.5791C158.066 36.9615 157.928 37.3595 157.829 37.7678C157.773 38.1364 157.802 38.5128 157.913 38.8687C158.024 39.2245 158.215 39.5506 158.47 39.8223L159.644 41.3199C159.822 41.5352 159.967 41.7505 160.136 41.9143C160.288 42.0641 160.46 42.1932 160.646 42.298C161.004 42.4881 161.398 42.6027 161.802 42.635C161.802 42.635 161.774 42.635 161.718 42.635C161.662 42.635 161.587 42.635 161.484 42.635C161.176 42.6072 160.878 42.5198 160.604 42.3776C160.406 42.2727 160.222 42.1438 160.056 41.9938C159.873 41.805 159.699 41.6066 159.537 41.3995L158.334 39.9253C158.059 39.6372 157.853 39.2904 157.731 38.911C157.609 38.5315 157.576 38.1294 157.632 37.735C157.726 37.3091 157.862 36.8936 158.039 36.4948L158.531 35.2266C158.62 35.0066 158.69 34.7913 158.797 34.562C158.909 34.3354 159.053 34.1259 159.223 33.9396C159.573 33.5633 160.025 33.298 160.524 33.1767C161.039 33.0878 161.54 33.0176 162.059 32.9334L162.841 32.8164C163.109 32.7626 163.382 32.7313 163.655 32.7228C164.213 32.7177 164.757 32.8952 165.204 33.2282C165.419 33.3924 165.61 33.5862 165.771 33.8038L166.239 34.4029C166.557 34.796 166.866 35.1891 167.175 35.5682C167.508 35.9407 167.731 36.3997 167.816 36.8926C167.899 37.3654 167.847 37.852 167.666 38.2966C167.507 38.7038 167.348 39.1016 167.198 39.49C167.048 39.8785 166.898 40.2435 166.758 40.6039C166.627 40.9559 166.421 41.2752 166.154 41.5399C165.68 41.9963 165.057 42.267 164.399 42.3027L162.995 42.4993C162.607 42.5508 162.303 42.5929 162.097 42.6069C161.991 42.6291 161.882 42.6385 161.774 42.635Z" fill="#263238"/>
<path d="M207.365 36.5278C207.036 37.0943 206.629 37.6125 206.158 38.0675C205.743 38.5799 205.245 39.0182 204.684 39.3639C205.078 38.8464 205.511 38.3599 205.98 37.9084C206.388 37.3974 206.853 36.9342 207.365 36.5278Z" fill="#263238"/>
<path d="M198.59 33.8364C198.896 34.3868 199.106 34.9849 199.212 35.6055C199.402 36.2106 199.486 36.8438 199.46 37.4775C199.251 36.8905 199.094 36.2859 198.992 35.671C198.802 35.0731 198.667 34.459 198.59 33.8364Z" fill="#263238"/>
<path d="M195.099 41.0766C194.486 40.9561 193.885 40.7839 193.302 40.5618C192.694 40.4128 192.1 40.2156 191.523 39.9722C192.782 40.0738 194.002 40.4508 195.099 41.0766Z" fill="#263238"/>
<path d="M194.102 49.1966C194.347 48.7072 194.662 48.2562 195.038 47.8581C195.36 47.4123 195.744 47.0151 196.179 46.6787C195.938 47.17 195.622 47.6213 195.243 48.0172C194.921 48.463 194.537 48.8602 194.102 49.1966Z" fill="#263238"/>
<path d="M201.985 51.7564C201.797 51.2747 201.686 50.766 201.658 50.2495C201.545 49.7428 201.515 49.2213 201.569 48.7051C201.756 49.189 201.866 49.6989 201.896 50.2167C202.006 50.7222 202.036 51.2417 201.985 51.7564Z" fill="#263238"/>
<path d="M208.646 45.761C208.166 45.7051 207.7 45.569 207.265 45.3586C206.8 45.2255 206.362 45.0134 205.969 44.7314C206.912 44.9229 207.817 45.2709 208.646 45.761Z" fill="#263238"/>
<path d="M301.551 81.6474C304.719 77.8285 307.887 73.9722 310.359 69.6666C312.83 65.361 314.571 60.55 314.697 55.5892C314.697 54.8357 314.393 49.6175 313.667 49.4069C313.152 49.2571 312.797 53.8669 312.376 54.1992C308.332 57.3629 305.707 62.0569 304.195 66.9616C302.772 71.7437 301.885 76.6693 301.551 81.6474Z" fill="#263238"/>
<path d="M260.278 110.673C261.541 107.397 267.766 91.0169 267.733 91.0169C267.7 91.0169 257.011 85.4383 260.713 74.0753C262.491 68.5856 267.073 57.583 271.332 47.6707C273.542 42.5352 277.605 38.42 282.712 36.1436C287.819 33.8673 293.595 33.5967 298.892 35.3857L299.983 35.7554C311.524 40.4354 314.023 52.8234 309.029 64.2286L286.097 117.347L266.001 111.136L260.278 110.673Z" fill="#FFBF9D"/>
<path d="M267.736 91.0259C267.736 91.0259 274.723 93.8339 283.933 91.6436C283.933 91.6436 277.559 98.8462 266.617 94.0164L267.736 91.0259Z" fill="#FF9A6C"/>
<path d="M271.313 58.6077C271.168 59.0276 271.191 59.4878 271.379 59.8906C271.567 60.2935 271.904 60.6072 272.32 60.7652C272.52 60.8507 272.735 60.8953 272.952 60.8965C273.17 60.8977 273.385 60.8554 273.586 60.7721C273.787 60.6889 273.97 60.5663 274.123 60.4116C274.276 60.2569 274.396 60.0732 274.477 59.8713C274.624 59.4515 274.601 58.9908 274.413 58.5877C274.225 58.1845 273.887 57.8709 273.471 57.7139C273.271 57.6277 273.056 57.5826 272.838 57.5811C272.62 57.5796 272.405 57.6217 272.203 57.7051C272.002 57.7884 271.82 57.9112 271.667 58.0663C271.514 58.2213 271.394 58.4054 271.313 58.6077Z" fill="#263238"/>
<path d="M272.146 53.1931C272.277 53.4739 273.807 52.9779 275.543 53.5722C277.28 54.1666 278.262 55.4442 278.52 55.3132C278.646 55.2523 278.571 54.8031 278.15 54.2087C277.576 53.4335 276.774 52.8562 275.857 52.5567C274.949 52.2431 273.965 52.23 273.049 52.5192C272.375 52.7485 272.08 53.0668 272.146 53.1931Z" fill="#263238"/>
<path d="M286.564 64.743C286.417 65.1622 286.44 65.6222 286.629 66.0246C286.817 66.427 287.155 66.7398 287.571 66.8958C287.771 66.982 287.986 67.0271 288.204 67.0286C288.421 67.0301 288.637 66.988 288.838 66.9046C289.039 66.8213 289.222 66.6985 289.375 66.5434C289.527 66.3884 289.648 66.2043 289.728 66.002C289.874 65.5821 289.851 65.1219 289.663 64.7191C289.475 64.3162 289.137 64.0025 288.722 63.8445C288.522 63.7592 288.306 63.7148 288.088 63.7139C287.871 63.713 287.655 63.7557 287.454 63.8394C287.253 63.9231 287.071 64.0462 286.918 64.2014C286.765 64.3566 286.645 64.5407 286.564 64.743Z" fill="#263238"/>
<path d="M288.942 59.6465C289.069 59.9273 290.604 59.4359 292.34 60.0256C294.076 60.6153 295.054 61.8976 295.316 61.7713C295.438 61.7057 295.368 61.2565 294.947 60.6668C294.37 59.8904 293.567 59.3116 292.649 59.01C291.741 58.6955 290.756 58.6824 289.841 58.9726C289.186 59.2019 288.877 59.5202 288.942 59.6465Z" fill="#263238"/>
<path d="M278.192 70.9023C278.234 70.8087 277.214 70.2565 275.538 69.4422C275.112 69.2456 274.719 69.0163 274.747 68.684C274.775 68.3517 275.098 67.9118 275.487 67.4719L277.944 64.5329C281.393 60.3209 284.051 56.8249 283.878 56.6845C283.705 56.5441 280.775 59.8388 277.326 64.0368C276.488 65.0757 275.683 66.0632 274.921 67.0133C274.584 67.4813 274.102 67.9493 274.102 68.6793C274.114 68.8571 274.166 69.0298 274.254 69.1846C274.343 69.3394 274.465 69.4722 274.612 69.5732C274.836 69.7221 275.078 69.8431 275.332 69.9336C277.055 70.6215 278.15 71.0006 278.192 70.9023Z" fill="#263238"/>
<path d="M282.903 73.8316C282.623 73.7239 281.967 75.61 279.918 76.4009C277.868 77.1918 275.907 76.312 275.804 76.5694C275.738 76.677 276.131 77.0842 276.969 77.3977C278.071 77.7843 279.273 77.7727 280.367 77.365C281.415 76.9692 282.269 76.1824 282.749 75.1701C283.086 74.4119 283.034 73.8643 282.903 73.8316Z" fill="#263238"/>
<path d="M291.418 52.6269C291.418 53.1557 293.243 53.5208 295.199 54.4521C297.156 55.3834 298.62 56.5019 299.032 56.1697C299.22 56.0059 299.084 55.463 298.564 54.7657C297.867 53.9036 296.983 53.2123 295.978 52.7443C294.973 52.2763 293.874 52.044 292.766 52.0653C291.923 52.1308 291.423 52.3789 291.418 52.6269Z" fill="#263238"/>
<path d="M274.818 47.6566C274.992 48.1573 276.325 48.1246 277.772 48.5926C279.218 49.0606 280.346 49.7579 280.762 49.4396C280.954 49.2805 280.898 48.8219 280.491 48.265C279.925 47.5756 279.168 47.0693 278.315 46.8102C277.462 46.5511 276.552 46.5509 275.698 46.8095C275.052 47.0669 274.748 47.4179 274.818 47.6566Z" fill="#263238"/>
<path d="M305.256 72.3062C305.48 72.3062 313.806 72.6291 310.951 80.2622C308.096 87.8952 300.997 83.4679 301.067 83.2433C301.137 83.0187 305.256 72.3062 305.256 72.3062Z" fill="#FFBF9D"/>
<path d="M304.487 81.2355C304.529 81.2355 304.585 81.3806 304.773 81.5678C305.038 81.8231 305.392 81.9643 305.76 81.9609C306.696 81.9609 307.838 80.936 308.39 79.5694C308.656 78.9204 308.773 78.2198 308.732 77.5196C308.752 77.2524 308.705 76.9845 308.597 76.7396C308.488 76.4947 308.321 76.2803 308.11 76.1156C307.971 76.0135 307.8 75.9645 307.629 75.9774C307.457 75.9903 307.295 76.0642 307.174 76.1858C306.991 76.3636 306.982 76.5321 306.94 76.5321C306.897 76.5321 306.823 76.3402 307 76.0641C307.112 75.8931 307.276 75.7633 307.468 75.6944C307.738 75.6145 308.029 75.643 308.278 75.7739C308.566 75.9558 308.803 76.2081 308.967 76.5069C309.131 76.8058 309.216 77.1414 309.214 77.4821C309.29 78.2671 309.174 79.0588 308.877 79.7894C308.25 81.3104 306.926 82.4616 305.699 82.368C305.471 82.3499 305.25 82.2812 305.052 82.1671C304.853 82.053 304.683 81.8962 304.553 81.7082C304.431 81.432 304.454 81.2402 304.487 81.2355Z" fill="#FF9A6C"/>
<path d="M281.099 36.9395C280.126 35.7882 285.362 33.1955 288.924 32.9989C294.306 32.6807 301.799 34.0847 305.561 36.9067C310.101 40.2997 313.354 44.4556 314.13 50.0669C314.907 55.6782 313.798 61.444 311.622 66.6762C310.957 68.2721 310.143 69.8867 308.758 70.921C307.05 72.1986 304.597 72.4747 303.792 74.8381C303.659 75.2698 303.442 75.6707 303.152 76.0178C302.863 76.3648 302.508 76.651 302.108 76.8599C300.142 77.7959 298.972 75.7601 298.724 74.0519C298.195 70.4202 299.374 66.7839 300.54 63.2879C301.368 60.8169 302.225 58.2943 303.816 56.2211C304.677 55.0932 305.735 54.1245 306.535 52.9451C307.335 51.7657 307.855 50.2915 307.471 48.9297C307.373 48.6293 307.246 48.3394 307.092 48.0639C306.384 46.7284 305.335 45.6051 304.05 44.809C302.765 44.0129 301.292 43.5728 299.782 43.5336C294.9 43.4073 286.678 42.8597 285.344 40.6695C283.392 37.5151 283.256 35.8959 283.256 35.8959L281.099 36.9395Z" fill="#263238"/>
<path d="M306.538 32.2359C307.03 32.484 318.528 39.5882 318.454 49.9497C318.379 60.3113 316.483 62.8478 316.483 62.8478C316.869 63.3228 317.184 63.8508 317.419 64.4156C317.728 65.2019 315.964 67.8695 314.452 66.9803C304.128 57.4003 289.901 51.8966 273.671 46.8563L261.428 42.4711C257.843 41.6895 256.949 40.3557 258.699 39.9954C260.042 39.7146 271.162 39.153 271.162 39.153L273.563 38.4135L281.051 33.1205C281.051 33.1205 280.761 31.9224 282.282 31.5339C283.803 31.1455 296.869 27.3219 306.538 32.2359Z" fill="#5ABF9D"/>
<path d="M273.555 38.4321C273.555 38.4321 273.718 38.4976 274.023 38.6006L275.427 39.0405C276.634 39.4009 278.352 40.0093 280.467 40.7862C285.94 42.8927 291.219 45.4733 296.243 48.4988C301.265 51.5369 306.108 54.8589 310.751 58.4485C312.548 59.8104 313.976 60.9429 314.963 61.7245L316.11 62.6184C316.372 62.8196 316.517 62.9179 316.517 62.9179C316.517 62.9179 316.391 62.7962 316.133 62.5809L315.015 61.6449C314.037 60.8493 312.619 59.698 310.836 58.3221C306.209 54.6902 301.364 51.3455 296.328 48.3069C291.288 45.2702 285.981 42.7026 280.472 40.6364C278.204 39.7863 275.896 39.0506 273.555 38.4321Z" fill="#263238"/>
<g opacity="0.3">
<path d="M316.059 41.6523C316.059 41.6523 303.367 34.8569 296.356 35.6806L297.18 35.5683L290.628 36.1112C289.519 36.2048 288.25 36.2375 287.492 35.4279C287.492 35.4279 291.466 33.7431 297.741 33.7759C304.017 33.8086 313.228 36.0363 316.059 41.6523Z" fill="black"/>
</g>
<path d="M316.225 41.7642C315.943 41.3405 315.63 40.9385 315.289 40.5614C314.375 39.5176 313.341 38.5845 312.21 37.7815C310.534 36.5813 308.691 35.6351 306.739 34.9735C304.36 34.0975 301.82 33.7447 299.293 33.9392C297.995 34.07 296.707 34.2826 295.436 34.5757C294.21 34.8518 293.017 35.0437 291.889 35.3713C290.855 35.7144 289.793 35.968 288.716 36.1295C287.773 36.2227 286.822 36.0961 285.936 35.7598C282.618 34.6693 280.825 33.2887 281.05 33.1343C281.062 33.2687 281.124 33.3939 281.223 33.4853C281.493 33.7487 281.795 33.9767 282.122 34.1639C283.313 34.8768 284.578 35.459 285.894 35.9002C286.799 36.2501 287.773 36.3878 288.739 36.3026C289.829 36.1504 290.903 35.9046 291.95 35.5679C293.054 35.2637 294.262 35.0578 295.488 34.7816C296.751 34.5005 298.029 34.2942 299.316 34.1639C301.814 33.9759 304.322 34.3188 306.678 35.1701C308.615 35.8182 310.449 36.7401 312.125 37.9079C313.256 38.6947 314.296 39.6034 315.228 40.6176C315.56 40.978 315.808 41.2681 315.968 41.4694C316.127 41.6706 316.225 41.7642 316.225 41.7642Z" fill="#263238"/>
<g opacity="0.3">
<path d="M318.304 54.2319C315.899 53.3849 314.289 52.1353 312.075 50.7875C309.735 49.3554 307.344 48.045 305.055 46.5006C303.319 45.3306 301.218 44.0951 300.445 42.2886C300.189 42.7268 300.051 43.2239 300.043 43.7315C300.036 44.2391 300.16 44.74 300.403 45.1855C300.895 46.1215 302.977 47.7923 303.866 48.396C308.926 51.8358 312.44 54.1851 318.094 56.5766C318.214 55.802 318.283 55.0203 318.3 54.2366" fill="black"/>
</g>
<path d="M318.426 48.8029C319.727 49.987 320.508 50.7545 320.106 52.0789C319.774 53.1741 319.1 54.4189 317.967 54.2458C317.632 54.168 317.315 54.0283 317.031 53.8339L301.531 44.7594C300.97 44.5136 300.515 44.0754 300.249 43.5239C299.94 42.6441 300.717 41.68 301.611 41.4366C302.504 41.1933 303.459 41.4366 304.348 41.7455C309.393 43.3788 313.994 45.8873 318.426 48.7983" fill="#5ABF9D"/>
<path d="M300.416 43.8613C300.273 43.5907 300.205 43.287 300.219 42.9814C300.254 42.5691 300.404 42.1748 300.652 41.8438C300.9 41.5127 301.237 41.2582 301.623 41.1094C302.615 40.7725 303.93 40.9971 305.222 41.5213C306.514 42.0454 307.969 42.6398 309.434 43.3184C311.978 44.4469 314.417 45.8001 316.721 47.3619C317.601 47.9656 318.279 48.4992 318.752 48.8689L319.285 49.3041C319.346 49.3578 319.412 49.4049 319.482 49.4445C319.482 49.4445 319.43 49.379 319.313 49.2714L318.803 48.8034C318.335 48.4149 317.685 47.8674 316.81 47.2356C314.521 45.6296 312.08 44.2518 309.523 43.1218C308.035 42.4386 306.598 41.8489 305.278 41.3294C303.958 40.8099 302.606 40.5853 301.534 40.9644C301.128 41.1264 300.777 41.4018 300.523 41.7578C300.269 42.1138 300.123 42.5353 300.102 42.9721C300.096 43.2066 300.146 43.4392 300.247 43.6507C300.291 43.7302 300.348 43.8014 300.416 43.8613Z" fill="#263238"/>
<path d="M278.7 34.8008L289.235 38.1751L287.34 40.8193L276.047 36.6728L278.7 34.8008Z" fill="white"/>
<path d="M291.337 49.5192C291.36 49.463 286.928 47.1792 281.429 44.4554C275.93 41.7317 271.438 39.5274 271.438 39.5836C271.438 39.6397 275.846 41.9236 281.345 44.6473C286.844 47.3711 291.309 49.5707 291.337 49.5192Z" fill="#263238"/>
<path d="M293.991 106.297L294.131 99.3799L270.46 108.174C270.46 108.174 266.084 93.9604 266.084 93.2912L260.838 96.5672L252.119 92.8232L243.4 88.5176L225.766 119.406L207.266 173.946L250.846 203.018L283.166 168.386L302.822 138.434L313.623 119.471L293.991 106.297Z" fill="#5ABF9D"/>
<path d="M268.355 108.071C268.327 107.841 268.316 107.61 268.322 107.378C268.322 106.91 268.322 106.246 268.294 105.441L268.402 105.506C265.801 106.777 263.399 108.421 261.274 110.387L261.087 110.565V110.308C261.087 109.999 261.05 109.671 261.031 109.339C260.839 105.946 260.68 102.876 260.563 100.648C260.516 99.5625 260.479 98.6733 260.451 98.0134C260.451 97.7264 260.451 97.4877 260.451 97.2974C260.42 97.2916 260.392 97.2744 260.373 97.2493C260.354 97.2241 260.345 97.1928 260.348 97.1615C260.351 97.1301 260.366 97.101 260.389 97.0798C260.412 97.0586 260.443 97.0469 260.474 97.0469C260.506 97.0469 260.536 97.0586 260.559 97.0798C260.582 97.101 260.597 97.1301 260.6 97.1615C260.603 97.1928 260.594 97.2241 260.575 97.2493C260.556 97.2744 260.528 97.2916 260.497 97.2974C260.497 97.4846 260.535 97.7233 260.563 98.0088C260.61 98.6686 260.671 99.5578 260.745 100.639C260.895 102.862 261.078 105.932 261.27 109.325C261.27 109.657 261.307 109.985 261.321 110.294L261.12 110.21C263.261 108.23 265.7 106.597 268.346 105.37L268.458 105.324V105.441C268.458 106.246 268.425 106.896 268.416 107.378C268.413 107.61 268.392 107.842 268.355 108.071Z" fill="#263238"/>
<path d="M291.813 106.629C291.728 106.688 291.637 106.737 291.541 106.774L290.75 107.154L287.821 108.497L278.105 112.84L273.491 114.88L273.294 114.964L273.331 114.754C273.712 112.56 273.891 110.335 273.865 108.108L273.973 108.174L271.787 109.236L271.202 109.508C271.071 109.568 271.001 109.597 270.996 109.587C271.053 109.54 271.116 109.501 271.183 109.47L271.75 109.161L273.907 108.038L274.01 107.982V108.108C274.076 110.354 273.919 112.6 273.542 114.815L273.383 114.688L277.993 112.639L287.736 108.356L290.704 107.083L291.513 106.751C291.608 106.698 291.708 106.658 291.813 106.629Z" fill="#263238"/>
<path d="M250.428 72.0161H72.1664C68.4005 72.0161 65.3477 75.069 65.3477 78.8349V202.265C65.3477 206.031 68.4005 209.084 72.1664 209.084H250.428C254.193 209.084 257.246 206.031 257.246 202.265V78.8349C257.246 75.069 254.193 72.0161 250.428 72.0161Z" fill="#455A64"/>
<path d="M57.8438 200.229H265.753V203.893C265.753 206.103 264.875 208.222 263.313 209.784C261.751 211.346 259.632 212.224 257.422 212.224H66.1741C63.9648 212.224 61.8459 211.346 60.2837 209.784C58.7214 208.222 57.8437 206.103 57.8438 203.893V200.229Z" fill="#455A64"/>
<path d="M251.56 77.4634H70.5V193.214H251.56V77.4634Z" fill="#263238"/>
<path d="M142.379 198.947L144.958 203.379H181.26L183.656 198.947H142.379Z" fill="#263238"/>
<path d="M246.667 81.3809H75.753C74.9078 81.3809 74.2227 82.066 74.2227 82.9112V191.309C74.2227 192.155 74.9078 192.84 75.753 192.84H246.667C247.512 192.84 248.197 192.155 248.197 191.309V82.9112C248.197 82.066 247.512 81.3809 246.667 81.3809Z" fill="#EBEBEB"/>
<path d="M248.017 193.003H74.043L74.2255 89.7109H248.017V193.003Z" fill="#FAFAFA"/>
<path d="M88.8429 85.6864C88.8292 85.9662 88.7337 86.2359 88.5682 86.462C88.4027 86.688 88.1745 86.8606 87.912 86.9583C87.6494 87.056 87.3639 87.0746 87.0909 87.0116C86.8179 86.9487 86.5693 86.8071 86.376 86.6043C86.1827 86.4015 86.0531 86.1464 86.0033 85.8707C85.9535 85.595 85.9856 85.3107 86.0958 85.0531C86.2059 84.7955 86.3892 84.5759 86.623 84.4214C86.8567 84.2669 87.1307 84.1844 87.4108 84.1841C87.7998 84.1939 88.169 84.3576 88.4374 84.6392C88.7059 84.9208 88.8517 85.2974 88.8429 85.6864Z" fill="#263238"/>
<path d="M80.1593 85.6864C80.1456 85.9662 80.0501 86.2359 79.8846 86.462C79.7191 86.688 79.491 86.8606 79.2284 86.9583C78.9658 87.056 78.6803 87.0746 78.4073 87.0116C78.1343 86.9487 77.8857 86.8071 77.6924 86.6043C77.4991 86.4015 77.3695 86.1464 77.3197 85.8707C77.2699 85.595 77.302 85.3107 77.4122 85.0531C77.5223 84.7955 77.7056 84.5759 77.9394 84.4214C78.1731 84.2669 78.4471 84.1844 78.7272 84.1841C79.1162 84.1939 79.4854 84.3576 79.7538 84.6392C80.0223 84.9208 80.1681 85.2974 80.1593 85.6864Z" fill="#263238"/>
<path d="M84.6242 85.6864C84.6104 85.9662 84.5149 86.2359 84.3494 86.462C84.184 86.688 83.9558 86.8606 83.6932 86.9583C83.4306 87.056 83.1451 87.0746 82.8721 87.0116C82.5991 86.9487 82.3506 86.8071 82.1572 86.6043C81.9639 86.4015 81.8343 86.1464 81.7845 85.8707C81.7347 85.595 81.7669 85.3107 81.877 85.0531C81.9872 84.7955 82.1705 84.5759 82.4042 84.4214C82.638 84.2669 82.9119 84.1844 83.1921 84.1841C83.581 84.1939 83.9502 84.3576 84.2187 84.6392C84.4871 84.9208 84.633 85.2974 84.6242 85.6864Z" fill="#263238"/>
<path d="M255.599 198.947C255.599 199.022 213.011 199.078 160.478 199.078C107.945 199.078 65.3477 199.022 65.3477 198.947C65.3477 198.872 107.936 198.811 160.478 198.811C213.02 198.811 255.599 198.872 255.599 198.947Z" fill="#263238"/>
<path d="M142.525 109.512C145.354 107.805 148.398 106.483 151.576 105.581L153.448 96.6188L168.583 96.3521L170.764 105.244C173.972 106.036 177.059 107.251 179.946 108.857L187.598 103.845L198.488 114.361L193.752 122.19C195.461 125.02 196.783 128.066 197.684 131.246L206.641 133.118L206.908 148.253L198.016 150.434C197.222 153.633 196.005 156.711 194.398 159.588L199.415 167.24L188.899 178.13L181.079 173.39C178.249 175.098 175.203 176.42 172.023 177.321L170.151 186.283L155.011 186.545L152.835 177.653C149.636 176.869 146.556 175.662 143.676 174.063L136.025 179.08L125.134 168.564L129.875 160.744C128.165 157.915 126.842 154.869 125.939 151.688L116.982 149.816L116.715 134.681L125.607 132.5C126.398 129.293 127.613 126.205 129.22 123.318L124.208 115.666L134.723 104.776L142.525 109.512ZM150.593 129.678C148.363 131.989 146.867 134.909 146.296 138.07C145.725 141.23 146.104 144.489 147.385 147.435C148.666 150.38 150.792 152.879 153.493 154.616C156.194 156.354 159.35 157.251 162.562 157.195C165.773 157.138 168.895 156.131 171.534 154.3C174.173 152.469 176.21 149.897 177.387 146.909C178.564 143.921 178.828 140.65 178.147 137.512C177.465 134.373 175.868 131.507 173.558 129.276C172.023 127.795 170.211 126.631 168.226 125.851C166.241 125.07 164.122 124.689 161.989 124.727C159.857 124.766 157.753 125.224 155.798 126.076C153.842 126.928 152.074 128.157 150.593 129.692V129.678Z" fill="#E0E0E0"/>
<path d="M202.994 115.301C203.202 114.182 203.556 113.094 204.047 112.067L202.175 109.54L205.564 105.572L208.372 107.041C209.308 106.396 210.326 105.878 211.4 105.501L211.868 102.38L217.067 101.973L218.003 104.982C219.123 105.189 220.211 105.544 221.237 106.04L223.764 104.168L227.733 107.561L226.263 110.369C226.911 111.306 227.431 112.326 227.808 113.401L230.925 113.869L231.332 119.073L228.323 120.009C228.117 121.13 227.761 122.218 227.265 123.243L229.137 125.775L225.749 129.739L222.941 128.27C222.003 128.917 220.983 129.437 219.908 129.814L219.44 132.936L214.24 133.343L213.304 130.329C212.184 130.124 211.097 129.769 210.071 129.276L207.539 131.148L203.579 127.717L205.049 124.909C204.402 123.971 203.883 122.952 203.505 121.877L200.388 121.409L199.98 116.205L202.99 115.269L202.994 115.301ZM210.047 116.878C209.936 118.049 210.195 119.225 210.788 120.24C211.38 121.255 212.277 122.059 213.35 122.538C214.424 123.017 215.621 123.147 216.772 122.909C217.924 122.672 218.972 122.079 219.768 121.214C220.565 120.35 221.07 119.257 221.213 118.09C221.355 116.923 221.128 115.741 220.563 114.71C219.998 113.679 219.123 112.851 218.063 112.344C217.003 111.836 215.81 111.674 214.652 111.88C213.444 112.096 212.339 112.701 211.508 113.604C210.676 114.506 210.163 115.657 210.047 116.878Z" fill="#E0E0E0"/>
<path d="M89.0212 167.544C89.059 166.2 89.2778 164.866 89.6717 163.58L87.0181 160.992L90.2661 155.76L93.7854 156.977C94.7683 156.054 95.8701 155.267 97.0614 154.637L97.0333 150.916L103.033 149.512L104.657 152.858C106.002 152.896 107.335 153.115 108.621 153.509L111.237 150.855L116.469 154.103L115.253 157.623C116.175 158.606 116.962 159.707 117.593 160.899L121.313 160.871L122.717 166.866L119.366 168.48C119.325 169.825 119.104 171.158 118.711 172.444L121.365 175.056L118.117 180.293L114.597 179.076C113.615 179.999 112.513 180.786 111.321 181.416L111.349 185.136L105.354 186.54L103.726 183.194C102.385 183.147 101.056 182.921 99.7758 182.52L97.1644 185.174L91.9274 181.926L93.1442 178.407C92.2218 177.424 91.4349 176.322 90.8042 175.131L87.0603 175.159L85.6562 169.164L89.0024 167.535L89.0212 167.544ZM97.6932 169.229C97.9938 170.5 98.6644 171.654 99.6203 172.544C100.576 173.434 101.774 174.021 103.064 174.231C104.353 174.44 105.675 174.263 106.864 173.721C108.052 173.18 109.054 172.298 109.742 171.188C110.43 170.077 110.773 168.788 110.728 167.483C110.684 166.177 110.253 164.914 109.491 163.853C108.729 162.792 107.67 161.981 106.447 161.522C105.225 161.063 103.893 160.976 102.621 161.273C101.773 161.471 100.973 161.834 100.265 162.342C99.5581 162.85 98.9582 163.493 98.5003 164.234C98.0423 164.974 97.7353 165.798 97.5968 166.658C97.4583 167.517 97.491 168.396 97.6932 169.243V169.229Z" fill="#E0E0E0"/>
<path d="M99.7909 117.553C99.9438 116.707 100.211 115.887 100.587 115.114L99.1825 113.205L101.738 110.214L103.844 111.323C104.55 110.836 105.318 110.444 106.128 110.158L106.474 107.818L110.396 107.509L111.098 109.779C111.942 109.936 112.762 110.204 113.536 110.575L115.446 109.171L118.431 111.726L117.327 113.832C117.815 114.538 118.205 115.306 118.488 116.116L120.828 116.457L121.136 120.379L118.871 121.063C118.716 121.907 118.45 122.727 118.08 123.501L119.484 125.406L116.929 128.396L114.823 127.287C114.118 127.776 113.349 128.168 112.539 128.452L112.198 130.792L108.276 131.096L107.569 128.827C106.724 128.673 105.904 128.405 105.131 128.031L103.226 129.435L100.236 126.88L101.34 124.774C100.852 124.068 100.462 123.3 100.179 122.49L97.8394 122.144L97.5352 118.222L99.805 117.52L99.7909 117.553ZM105.103 119.457C105.169 120.287 105.479 121.079 105.995 121.732C106.511 122.385 107.209 122.871 108 123.128C108.792 123.385 109.642 123.402 110.443 123.177C111.244 122.951 111.961 122.493 112.502 121.86C113.043 121.228 113.385 120.449 113.484 119.623C113.582 118.796 113.434 117.959 113.058 117.217C112.681 116.474 112.093 115.86 111.368 115.452C110.642 115.044 109.812 114.859 108.982 114.922C108.43 114.964 107.89 115.115 107.396 115.366C106.901 115.617 106.461 115.963 106.101 116.384C105.74 116.806 105.467 117.294 105.295 117.821C105.124 118.349 105.059 118.905 105.103 119.457Z" fill="#EBEBEB"/>
<path d="M203.191 159.79C203.327 159.064 203.556 158.359 203.875 157.693L202.653 156.055L204.848 153.486L206.659 154.422C207.265 154.002 207.925 153.665 208.62 153.42L208.915 151.398L212.285 151.136L212.888 153.088C213.615 153.221 214.32 153.451 214.985 153.771L216.623 152.55L219.192 154.745L218.256 156.551C218.676 157.159 219.013 157.82 219.258 158.517L221.28 158.811L221.542 162.181L219.59 162.785C219.457 163.511 219.227 164.216 218.907 164.881L220.128 166.519L217.933 169.084L216.127 168.148C215.518 168.566 214.857 168.903 214.161 169.15L213.866 171.167L210.497 171.429L209.893 169.482C209.167 169.346 208.463 169.117 207.797 168.799L206.159 170.02L203.58 167.825L204.516 166.019C204.096 165.413 203.759 164.753 203.514 164.058L201.497 163.763L201.23 160.393L203.182 159.79H203.191ZM207.754 161.423C207.81 162.139 208.076 162.823 208.521 163.387C208.965 163.952 209.567 164.371 210.25 164.593C210.934 164.815 211.667 164.829 212.359 164.633C213.05 164.438 213.667 164.041 214.133 163.494C214.598 162.947 214.891 162.274 214.974 161.56C215.056 160.847 214.925 160.125 214.597 159.486C214.268 158.847 213.758 158.32 213.129 157.971C212.501 157.623 211.784 157.469 211.068 157.529C210.113 157.608 209.228 158.062 208.607 158.792C207.986 159.521 207.679 160.468 207.754 161.423Z" fill="#EBEBEB"/>
<path d="M161.8 164.867H138.527C137.159 164.864 135.816 164.501 134.632 163.816C133.448 163.131 132.464 162.147 131.779 160.962C131.095 159.778 130.733 158.435 130.73 157.067C130.728 155.699 131.084 154.354 131.764 153.167L143.408 133.001L155.047 112.835C155.734 111.648 156.72 110.663 157.907 109.978C159.095 109.294 160.441 108.933 161.812 108.933C163.183 108.933 164.529 109.294 165.717 109.978C166.904 110.663 167.891 111.648 168.577 112.835L180.221 133.001L191.865 153.167C192.545 154.354 192.901 155.7 192.898 157.068C192.895 158.436 192.533 159.78 191.848 160.965C191.163 162.149 190.179 163.133 188.994 163.818C187.81 164.503 186.466 164.864 185.097 164.867H161.8Z" fill="#5ABF9D"/>
<path d="M186.867 155.479C186.867 155.479 186.927 155.596 187.044 155.839C187.244 156.327 187.321 156.856 187.267 157.38C187.213 157.904 187.03 158.407 186.736 158.844C186.504 159.189 186.207 159.485 185.86 159.714C185.458 159.97 184.998 160.122 184.522 160.154C180.553 160.196 174.825 160.187 167.739 160.206L142.851 160.234H139.294C138.66 160.227 138.043 160.023 137.53 159.651C137.016 159.279 136.63 158.757 136.426 158.156C136.209 157.556 136.168 156.906 136.309 156.284C136.346 156.129 136.398 155.975 136.449 155.816C136.5 155.657 136.585 155.521 136.655 155.381L137.123 154.562C137.722 153.462 138.33 152.357 138.939 151.239L146.483 137.391L154.074 123.552C155.294 121.315 156.495 119.12 157.677 116.967C157.977 116.434 158.253 115.895 158.571 115.367C158.888 114.826 159.339 114.378 159.882 114.066C160.413 113.761 161.01 113.588 161.622 113.56C162.234 113.532 162.844 113.651 163.401 113.906C163.954 114.156 164.436 114.539 164.805 115.02C165.125 115.506 165.414 116.011 165.671 116.532C166.218 117.533 166.761 118.521 167.29 119.494C168.357 121.441 169.388 123.33 170.384 125.162C172.382 128.817 174.24 132.224 175.934 135.332C179.322 141.551 182.06 146.587 183.956 150.074L186.127 154.084C186.371 154.552 186.558 154.889 186.684 155.133C186.81 155.376 186.871 155.493 186.871 155.493C186.871 155.493 186.796 155.376 186.665 155.142L186.085 154.108L183.871 150.116C181.962 146.638 179.191 141.621 175.784 135.416L170.211 125.255L167.103 119.597C166.569 118.624 166.031 117.636 165.479 116.635C165.221 116.129 164.936 115.639 164.623 115.165C164.277 114.716 163.827 114.358 163.312 114.122C162.788 113.881 162.214 113.769 161.637 113.795C161.061 113.821 160.499 113.984 159.999 114.272C159.492 114.568 159.069 114.99 158.773 115.498C158.464 116.008 158.183 116.555 157.888 117.089L154.284 123.674C151.842 128.148 149.305 132.776 146.712 137.522L139.135 151.361C138.522 152.479 137.919 153.588 137.315 154.683C136.986 155.199 136.726 155.756 136.543 156.34C136.409 156.923 136.446 157.533 136.65 158.095C136.835 158.652 137.19 159.138 137.665 159.483C138.141 159.828 138.712 160.015 139.299 160.019H142.856L167.744 160.042L184.522 160.065C184.982 160.038 185.427 159.897 185.818 159.653C186.159 159.432 186.454 159.146 186.684 158.811C187.044 158.281 187.237 157.655 187.236 157.014C187.231 156.481 187.104 155.956 186.867 155.479Z" fill="#263238"/>
<path d="M158.027 151.164C158.027 149.1 159.675 147.56 162.019 147.56C164.364 147.56 165.974 149.1 165.974 151.164C165.974 153.228 164.364 154.838 162.019 154.838C159.675 154.838 158.027 153.2 158.027 151.164ZM158.065 130.024H165.974L164.645 145.599H159.361L158.065 130.024Z" fill="white"/>
<path d="M162.916 110.504C162.437 110.342 161.94 110.239 161.437 110.195C160.213 110.169 159.019 110.569 158.058 111.328C157.12 112.11 156.365 113.087 155.844 114.192C155.418 115.034 155.217 115.596 155.18 115.573C155.192 115.434 155.225 115.299 155.278 115.17C155.395 114.811 155.532 114.46 155.69 114.117C156.185 112.958 156.95 111.934 157.922 111.131C158.923 110.337 160.185 109.943 161.46 110.027C161.842 110.055 162.217 110.147 162.569 110.298C162.799 110.406 162.925 110.49 162.916 110.504Z" fill="white"/>
<path d="M153.18 119.059C153.276 118.656 153.449 118.274 153.69 117.936C154.031 117.361 154.354 116.921 154.415 116.953C154.316 117.351 154.142 117.726 153.9 118.058C153.727 118.435 153.482 118.775 153.18 119.059Z" fill="white"/>
<g opacity="0.3">
<path d="M173.481 121.334L137.216 143.676L132.508 151.838L176.041 125.766L173.481 121.334Z" fill="white"/>
</g>
<g opacity="0.3">
<path d="M179.193 131.237L131.125 159.588C131.318 160.332 131.674 161.022 132.169 161.61L180.04 132.706L179.193 131.237Z" fill="white"/>
</g>
<path d="M297.986 184.111C296.158 182.097 293.79 180.652 291.163 179.949C288.537 179.245 285.763 179.312 283.174 180.143L278.695 175.229L278.072 174.531L242.631 135.645C243.627 133.337 243.991 130.805 243.684 128.31C243.378 125.815 242.413 123.446 240.888 121.448C239.363 119.449 237.333 117.893 235.008 116.938C232.682 115.984 230.144 115.666 227.655 116.017L225.923 116.705L231.946 120.744L231.623 127.319L226.752 131.742L220.176 131.419L215.88 126.683L214.106 127.38C213.596 131.344 216.254 136.343 219.151 139.548C220.975 141.559 223.34 143.003 225.962 143.708C228.584 144.412 231.354 144.348 233.94 143.522L269.976 183.058L271.081 184.289L274.497 188.033C273.428 190.524 273.098 193.27 273.545 195.943C273.992 198.616 275.198 201.105 277.019 203.112C279.902 206.294 283.731 208.419 287.713 208.312L289.492 207.619L285.191 202.878L285.514 196.326L290.386 191.903L296.938 192.222L299.455 197.655L301.234 196.958C301.782 194.714 301.773 192.37 301.207 190.131C300.641 187.891 299.535 185.825 297.986 184.111Z" fill="#E0E0E0"/>
<g opacity="0.3">
<path d="M297.986 184.111C296.158 182.097 293.79 180.652 291.163 179.949C288.537 179.245 285.763 179.312 283.174 180.143L278.695 175.229L278.072 174.531L242.631 135.645C243.627 133.337 243.991 130.805 243.684 128.31C243.378 125.815 242.413 123.446 240.888 121.448C239.363 119.449 237.333 117.893 235.008 116.938C232.682 115.984 230.144 115.666 227.655 116.017L225.923 116.705L231.946 120.744L231.623 127.319L226.752 131.742L220.176 131.419L215.88 126.683L214.106 127.38C213.596 131.344 216.254 136.343 219.151 139.548C220.975 141.559 223.34 143.003 225.962 143.708C228.584 144.412 231.354 144.348 233.94 143.522L269.976 183.058L271.081 184.289L274.497 188.033C273.428 190.524 273.098 193.27 273.545 195.943C273.992 198.616 275.198 201.105 277.019 203.112C279.902 206.294 283.731 208.419 287.713 208.312L289.492 207.619L285.191 202.878L285.514 196.326L290.386 191.903L296.938 192.222L299.455 197.655L301.234 196.958C301.782 194.714 301.773 192.37 301.207 190.131C300.641 187.891 299.535 185.825 297.986 184.111Z" fill="black"/>
</g>
<path d="M296.206 184.804C294.38 182.791 292.012 181.346 289.386 180.643C286.76 179.94 283.987 180.008 281.399 180.84L276.915 175.922L276.293 175.224L240.851 136.338C241.848 134.03 242.212 131.499 241.905 129.004C241.599 126.508 240.634 124.14 239.109 122.142C237.584 120.143 235.554 118.587 233.228 117.633C230.902 116.68 228.364 116.363 225.875 116.715L230.171 121.451L229.853 128.003L224.972 132.444L218.42 132.126L214.124 127.39C213.53 129.832 213.597 132.387 214.318 134.795C215.039 137.202 216.388 139.373 218.227 141.086C220.066 142.799 222.327 143.991 224.779 144.54C227.231 145.089 229.786 144.975 232.179 144.21L268.215 183.746L269.324 184.977L272.741 188.721C271.749 191.028 271.388 193.558 271.697 196.05C272.005 198.542 272.971 200.908 274.496 202.903C276.02 204.899 278.048 206.453 280.371 207.406C282.695 208.359 285.23 208.676 287.717 208.326L283.416 203.58L283.734 197.028L288.611 192.606L295.163 192.929L299.459 197.665C300.011 195.419 300.003 193.071 299.436 190.829C298.868 188.587 297.76 186.518 296.206 184.804Z" fill="#E0E0E0"/>
<path d="M296.206 184.804C296.206 184.804 296.412 185.028 296.801 185.482C297.354 186.173 297.844 186.913 298.265 187.691C299.892 190.749 300.342 194.297 299.529 197.664V197.758L299.464 197.688L295.163 192.956L295.2 192.98L288.648 192.666H288.695L283.828 197.093V197.042C283.734 199.082 283.626 201.305 283.514 203.617V203.557L287.778 208.26L287.89 208.382L287.726 208.405C285.353 208.75 282.931 208.488 280.687 207.644C278.442 206.801 276.447 205.402 274.889 203.58C273.193 201.61 272.075 199.21 271.66 196.644C271.218 193.954 271.553 191.195 272.624 188.688V188.8L232.053 144.298L232.179 144.331C229.615 145.141 226.876 145.219 224.27 144.556C220.64 143.617 217.525 141.288 215.599 138.071C213.672 134.855 213.089 131.009 213.974 127.366L214.03 127.141L214.185 127.31L218.481 132.046L218.397 132.009L224.972 132.327L224.883 132.36L229.788 127.932L229.746 128.017C229.853 125.798 229.961 123.613 230.069 121.441L230.097 121.525L225.8 116.789L225.655 116.626L225.871 116.597C228.459 116.232 231.097 116.584 233.499 117.615C235.901 118.647 237.973 120.319 239.489 122.447C240.94 124.479 241.83 126.856 242.068 129.341C242.289 131.736 241.911 134.148 240.968 136.361V136.249L281.474 180.784H281.417C283.345 180.168 285.383 179.972 287.392 180.208C289.402 180.445 291.338 181.109 293.071 182.155C293.951 182.692 294.773 183.32 295.523 184.027C295.991 184.528 296.244 184.785 296.244 184.785L295.504 184.046C294.747 183.342 293.923 182.715 293.043 182.174C291.315 181.143 289.387 180.493 287.389 180.265C285.39 180.038 283.365 180.238 281.45 180.854H281.417V180.826L240.837 136.366L240.79 136.314L240.818 136.253C241.746 134.066 242.116 131.683 241.895 129.318C241.661 126.87 240.782 124.529 239.349 122.532C237.856 120.437 235.816 118.793 233.453 117.779C231.089 116.764 228.492 116.419 225.945 116.78L226.016 116.588L230.256 121.371L230.288 121.404V121.455C230.186 123.621 230.079 125.805 229.97 128.007V128.059L229.933 128.092L225.061 132.514L225.023 132.547H224.972L218.42 132.224H218.369L218.336 132.187L214.035 127.45L214.245 127.399C213.658 129.818 213.724 132.351 214.438 134.736C215.152 137.122 216.487 139.275 218.307 140.974C220.126 142.673 222.366 143.858 224.794 144.407C227.223 144.956 229.754 144.849 232.128 144.097H232.198L232.254 144.153C246.987 160.337 260.802 175.486 272.797 188.674L272.844 188.726L272.816 188.791C271.763 191.256 271.43 193.969 271.856 196.616C272.267 199.08 273.323 201.392 274.918 203.315C276.513 205.238 278.589 206.704 280.935 207.563C283.1 208.346 285.423 208.587 287.703 208.265L287.647 208.41L283.355 203.674L283.332 203.645V203.58C283.444 201.273 283.552 199.05 283.654 197.028V196.995V196.972L288.536 192.559H288.564L295.116 192.886C296.688 194.627 298.134 196.223 299.403 197.632H299.318C300.137 194.286 299.706 190.756 298.106 187.705C297.691 186.927 297.21 186.184 296.67 185.487C296.398 185.042 296.206 184.804 296.206 184.804Z" fill="#263238"/>
<path d="M239.237 138.607C239.204 138.732 239.152 138.85 239.082 138.958C238.918 139.263 238.735 139.557 238.535 139.838C237.207 141.726 235.337 143.164 233.171 143.961C232.848 144.083 232.516 144.183 232.179 144.261C232.058 144.301 231.932 144.322 231.805 144.322C231.805 144.28 232.315 144.139 233.11 143.802C235.198 142.934 237.021 141.533 238.399 139.74C238.928 139.052 239.199 138.589 239.237 138.607Z" fill="#263238"/>
<path d="M278.816 155.498L265.356 149.226L253.324 147.724L257.742 151.468C257.742 151.468 242.186 156.892 241.914 158.114C241.643 159.335 243.14 162.621 245.883 162.012C245.883 162.012 244.343 163.884 244.984 165.948C245.626 168.012 247.044 168.4 249.664 167.918C249.664 167.918 247.886 170.581 249.281 171.938C250.675 173.296 252.847 172.954 252.847 172.954C252.847 172.954 252.875 176.197 254.588 176.478C256.301 176.759 261.074 176.427 262.857 175.879L271.913 173.071L277.782 171.756L278.816 155.498Z" fill="#FFBF9D"/>
<path d="M254.038 159.616C254.089 159.794 252.297 160.468 250.041 161.128C247.785 161.788 245.904 162.172 245.853 161.994C245.801 161.816 247.594 161.137 249.849 160.482C252.105 159.827 253.986 159.439 254.038 159.616Z" fill="#FF9A6C"/>
<path d="M256.326 166.014C256.378 166.192 254.96 166.777 253.153 167.324C251.347 167.872 249.835 168.162 249.779 167.984C249.723 167.806 251.15 167.221 252.957 166.678C254.763 166.136 256.275 165.841 256.326 166.014Z" fill="#FF9A6C"/>
<path d="M258.383 171.335C258.416 171.536 257.124 171.803 255.608 172.187C254.092 172.57 252.908 173.123 252.8 172.931C252.693 172.739 253.806 171.967 255.421 171.527C257.036 171.087 258.36 171.171 258.383 171.335Z" fill="#FF9A6C"/>
<path d="M260.081 150.93C260.133 151.113 258.368 151.754 256.183 152.507C253.997 153.261 252.214 153.836 252.139 153.663C252.064 153.49 253.758 152.629 255.967 151.871C258.176 151.113 260.034 150.752 260.081 150.93Z" fill="#FF9A6C"/>
<path d="M276.276 154.318L305.428 164.876L303.724 184.883L271.629 171.943L276.276 154.318Z" fill="#FFBF9D"/>
<path d="M313.68 119.307C313.68 119.307 317.48 123.234 319.694 130.296C321.908 137.358 332.33 167.296 332.077 176.82C331.801 186.671 325.17 193.7 310.596 189.807C301.901 187.467 291.539 183.723 291.539 183.723L298.905 159.508L304.666 160.992L295.363 143.526L313.68 119.307Z" fill="#5ABF9D"/>
<path d="M307.006 130.75C307.062 130.792 303.028 136.535 298.001 143.578C292.975 150.621 288.861 156.312 288.805 156.266C288.749 156.219 292.783 150.481 297.81 143.438C302.836 136.394 306.954 130.713 307.006 130.75Z" fill="#263238"/>
<path d="M318.164 164.268C318.164 164.268 317.911 164.146 317.457 163.936C316.811 163.647 316.143 163.411 315.459 163.229C314.593 162.99 313.545 162.761 312.379 162.513L308.598 161.68C305.916 161.081 303.487 160.524 301.737 160.107L299.664 159.602C299.407 159.553 299.154 159.481 298.91 159.387C299.171 159.408 299.429 159.45 299.682 159.513L301.774 159.939C303.539 160.313 305.986 160.842 308.654 161.441L312.431 162.298C313.591 162.56 314.64 162.803 315.505 163.065C316.193 163.265 316.861 163.528 317.499 163.851C317.672 163.939 317.839 164.038 318 164.146C318.06 164.179 318.115 164.22 318.164 164.268Z" fill="#263238"/>
<g opacity="0.3">
<path d="M325.614 165.335C325.521 164.76 325.29 164.217 324.941 163.751C324.592 163.285 324.136 162.91 323.611 162.658C322.557 162.16 321.422 161.855 320.26 161.76C315.023 161.039 309.725 160.824 304.441 160.641L304.909 160.852C311.437 162.058 317.827 163.921 323.98 166.412C324.317 166.598 324.714 166.645 325.085 166.543C325.286 166.419 325.444 166.237 325.538 166.022C325.633 165.806 325.659 165.566 325.614 165.335Z" fill="black"/>
</g>
<g opacity="0.3">
<path d="M205.516 72.5025C200.602 71.6648 194.724 73.0922 189.81 72.2545C189.08 72.1328 188.275 72.0158 187.629 72.3902C186.852 72.8348 186.585 73.8269 186.548 74.7302C186.528 75.9695 186.768 77.1992 187.252 78.3404C187.735 79.4817 188.452 80.5092 189.356 81.3571C191.196 83.0394 193.494 84.1373 195.959 84.5114C197.92 84.8437 200.031 84.7782 201.777 83.8328C204.847 82.1667 206.321 75.8768 205.516 72.5025Z" fill="black"/>
</g>
<path d="M186.444 81.493C186.444 81.493 183.463 77.997 183.033 76.3871C182.747 75.3201 182.888 72.3296 183.033 70.4342C183.066 69.7955 183.285 69.1804 183.663 68.6647C184.042 68.1491 184.563 67.7556 185.162 67.5326C185.338 67.4454 185.534 67.4077 185.729 67.4234C185.924 67.439 186.112 67.5075 186.271 67.6215C186.676 67.0725 187.13 66.5617 187.628 66.0958C188.798 64.8977 189.355 64.0881 191.929 64.8322C191.929 64.8322 193.825 62.8338 194.915 62.9836C195.647 63.0919 196.371 63.2482 197.082 63.4516C197.082 63.4516 201.233 63.2738 202.085 64.5935C202.569 65.1893 203.221 65.6249 203.957 65.8431C204.606 66.0722 205.203 66.4293 205.712 66.8931C206.221 67.3569 206.631 67.9181 206.919 68.5434C207.404 69.692 207.684 70.9162 207.748 72.1611L203.536 72.3296C203.536 72.3296 203.835 82.0218 202.773 82.8034C201.711 83.585 201.308 83.3042 201.308 83.3042C201.308 83.3042 200.498 85.5786 197.339 83.8985C197.339 83.8985 194.719 84.6894 193.595 83.6084C192.472 82.5273 188.363 72.1424 188.363 72.1424L188.48 77.2904C188.48 77.2904 190.647 80.6272 189.585 81.4088C188.522 82.1903 186.444 81.493 186.444 81.493Z" fill="#FFBF9D"/>
<path d="M191.707 68.356C191.807 68.5503 191.887 68.7541 191.946 68.9644L192.517 70.6492C192.985 72.0532 193.626 74.0562 194.309 76.2418C194.992 78.4273 195.563 80.4538 196.209 81.7829C196.458 82.3183 196.745 82.8345 197.07 83.3273C197.3 83.6783 197.445 83.8561 197.431 83.8702C197.417 83.8842 197.379 83.8374 197.304 83.7532C197.195 83.6358 197.091 83.5123 196.995 83.3834C196.636 82.9057 196.322 82.3948 196.059 81.8578C195.362 80.5052 194.777 78.4975 194.084 76.3166C193.392 74.1358 192.788 72.1421 192.358 70.7006C192.161 70.0127 191.993 69.4417 191.861 68.9924C191.791 68.7855 191.739 68.5724 191.707 68.356Z" fill="#FF9A6C"/>
<path d="M196.887 67.1582C196.981 67.359 197.053 67.5692 197.102 67.7853L197.603 69.5216C198.01 70.9864 198.539 73.0176 199.157 75.264C199.774 77.5104 200.275 79.5508 200.64 81.0297C200.813 81.7317 200.954 82.3214 201.066 82.78C201.129 82.9937 201.17 83.2132 201.188 83.4352C201.099 83.2323 201.027 83.0226 200.972 82.8081C200.841 82.3401 200.678 81.7692 200.476 81.0718C200.064 79.607 199.512 77.5759 198.923 75.3295C198.333 73.0831 197.804 71.0426 197.434 69.5637C197.266 68.857 197.121 68.272 197.013 67.8087C196.95 67.5964 196.908 67.3786 196.887 67.1582Z" fill="#FF9A6C"/>
</svg>
