<svg width="300" height="306" viewBox="0 0 300 306" fill="none" xmlns="http://www.w3.org/2000/svg">
<path d="M264.27 175.217C264.27 255.717 238.849 306 162.957 306C87.0658 306 4 206.299 4 125.798C4 45.298 188.379 4 264.27 4C340.162 4 264.27 94.7162 264.27 175.217Z" fill="#D6F8EC"/>
<path d="M237.696 210.738C233.256 201.612 225.486 196.938 216.696 199.512C207.906 202.086 206.58 214.314 213.096 217.398C219.612 220.482 226.17 211.482 229.626 209.628C233.082 207.774 237.696 210.738 237.696 210.738Z" fill="#5ABF9D"/>
<path d="M241.997 235.038C241.997 233.94 241.931 232.836 241.889 231.738C241.811 229.542 241.739 227.346 241.661 225.138C241.511 221.124 241.061 217.176 239.411 213.474C237.941 210.116 235.484 207.285 232.367 205.356C231.212 204.656 229.966 204.117 228.665 203.754C227.488 202.549 225.984 201.715 224.339 201.354C222.312 200.942 220.228 200.889 218.183 201.198C218.105 201.198 218.111 201.324 218.183 201.312C220.135 201.065 222.117 201.205 224.015 201.726C224.825 201.953 225.611 202.261 226.361 202.644C226.833 202.897 227.286 203.184 227.717 203.502C225.95 203.136 224.124 203.155 222.365 203.556C221.731 203.704 221.111 203.905 220.511 204.156C220.03 204.052 219.538 204.009 219.047 204.03C218.407 204.054 217.772 204.144 217.151 204.3C215.884 204.657 214.672 205.188 213.551 205.878C213.485 205.914 213.551 206.01 213.611 205.974C214.716 205.371 215.899 204.925 217.127 204.648C217.719 204.515 218.321 204.427 218.927 204.384C219.263 204.366 219.599 204.366 219.935 204.384C217.438 205.537 215.432 207.537 214.271 210.03C214.241 210.096 214.343 210.156 214.373 210.084C215.063 208.642 216.068 207.373 217.315 206.372C218.561 205.371 220.016 204.663 221.573 204.3C221.765 204.252 221.963 204.228 222.173 204.186C222.107 204.468 222.119 204.786 222.083 205.068C222.023 205.512 221.951 205.956 221.861 206.394C221.677 207.299 221.439 208.193 221.147 209.07C220.851 209.954 220.496 210.818 220.085 211.656C219.694 212.547 219.196 213.387 218.603 214.158C218.596 214.164 218.591 214.171 218.587 214.18C218.584 214.188 218.582 214.197 218.583 214.206C218.583 214.215 218.586 214.224 218.591 214.232C218.595 214.24 218.601 214.247 218.609 214.252C218.616 214.257 218.625 214.261 218.634 214.262C218.643 214.263 218.652 214.263 218.661 214.26C218.669 214.257 218.677 214.253 218.684 214.246C218.691 214.24 218.696 214.232 218.699 214.224C219.221 213.402 219.833 212.64 220.313 211.788C220.779 210.971 221.181 210.118 221.513 209.238C221.85 208.35 222.111 207.434 222.293 206.502C222.395 206.01 222.467 205.512 222.527 205.014C222.584 204.715 222.602 204.411 222.581 204.108C223.61 203.953 224.655 203.933 225.689 204.048C225.305 206.226 224.885 208.494 223.667 210.384C223.625 210.45 223.733 210.51 223.769 210.438C224.34 209.435 224.841 208.395 225.269 207.324C225.673 206.285 225.927 205.194 226.025 204.084C227.833 204.326 229.578 204.91 231.167 205.806C234.157 207.548 236.545 210.16 238.013 213.294C239.558 216.672 240.421 220.322 240.551 224.034C240.839 228.696 240.899 233.394 241.367 238.044C241.397 238.35 241.877 238.452 241.967 238.104C242.07 237.085 242.08 236.059 241.997 235.038Z" fill="#263238"/>
<path d="M231.733 204.63C231.441 204.274 231.102 203.959 230.725 203.694C230.359 203.394 229.987 203.094 229.597 202.842C228.829 202.306 227.977 201.901 227.077 201.642C227.005 201.642 226.975 201.744 227.077 201.756C227.981 201.98 228.829 202.388 229.567 202.956C229.939 203.232 230.293 203.52 230.641 203.826C230.95 204.149 231.292 204.438 231.661 204.69C231.697 204.774 231.781 204.696 231.733 204.63Z" fill="#263238"/>
<path d="M217.56 207.936C216.825 208.791 216.144 209.691 215.52 210.63C214.916 211.576 214.409 212.581 214.008 213.63C214.008 213.66 214.044 213.678 214.062 213.63C215.085 211.642 216.29 209.754 217.662 207.99C217.692 207.96 217.608 207.882 217.56 207.936Z" fill="#263238"/>
<path d="M227.114 207.036C227.02 207.605 226.853 208.16 226.616 208.686C226.37 209.194 226.087 209.683 225.77 210.15C225.77 210.18 225.77 210.21 225.818 210.186C226.586 209.306 227.076 208.218 227.228 207.06C227.24 207 227.126 206.958 227.114 207.036Z" fill="#263238"/>
<path d="M241.379 210.966C241.379 210.966 247.667 203.058 259.799 205.86C271.337 208.524 276.659 229.68 265.007 232.206C253.355 234.732 255.407 215.166 251.153 211.842C248.039 209.4 243.557 209.928 241.379 210.966Z" fill="#5ABF9D"/>
<path d="M269.179 217.415C268.387 216.722 267.552 216.08 266.677 215.495C265.853 214.933 264.957 214.485 264.013 214.163C263.538 213.445 263.009 212.765 262.429 212.129C261.357 210.98 260.122 209.996 258.763 209.207H259.123C259.764 209.174 260.407 209.174 261.049 209.207C262.345 209.289 263.615 209.604 264.799 210.137C264.865 210.137 264.913 210.059 264.847 210.035C263.648 209.517 262.394 209.138 261.109 208.907C260.483 208.797 259.848 208.742 259.213 208.745C258.872 208.747 258.532 208.767 258.193 208.805H257.995C256.882 208.245 255.708 207.814 254.497 207.521L254.839 207.425C255.433 207.297 256.034 207.199 256.639 207.131C257.848 206.993 259.07 207.011 260.275 207.185C260.287 207.181 260.297 207.174 260.305 207.163C260.312 207.153 260.316 207.141 260.316 207.128C260.316 207.116 260.312 207.103 260.305 207.093C260.297 207.083 260.287 207.075 260.275 207.071C259.056 206.927 257.829 206.879 256.603 206.927C255.574 206.956 254.551 207.088 253.549 207.323C252.82 207.188 252.082 207.104 251.341 207.071C247.105 206.891 242.491 208.469 239.887 211.949C237.283 215.429 236.773 220.073 236.287 224.273C235.575 230.127 235.421 236.036 235.825 241.919C235.825 242.261 236.341 242.201 236.347 241.871C236.509 236.885 236.683 231.893 237.163 226.925C237.385 224.621 237.625 222.311 238.009 220.031C238.29 218.068 238.854 216.157 239.683 214.355C240.584 212.515 242.01 210.982 243.781 209.951C245.557 208.928 247.539 208.313 249.583 208.151C251.413 207.998 253.255 208.17 255.025 208.661C254.961 209.016 254.951 209.378 254.995 209.735C255.037 210.186 255.127 210.63 255.265 211.061C255.394 211.477 255.562 211.878 255.769 212.261C255.997 212.675 256.279 213.047 256.531 213.461C256.567 213.521 256.669 213.461 256.621 213.395C256.123 212.68 255.8 211.858 255.679 210.995C255.607 210.586 255.559 210.174 255.535 209.759C255.535 209.447 255.535 209.129 255.535 208.817C257.46 209.41 259.257 210.359 260.833 211.613C261.127 211.853 261.433 212.099 261.691 212.357C261.291 212.731 260.944 213.156 260.659 213.623C260.243 214.23 259.882 214.873 259.579 215.543C259.022 216.888 258.645 218.3 258.457 219.743C258.457 219.815 258.565 219.839 258.571 219.743C258.797 218.341 259.266 216.989 259.957 215.747C260.276 215.125 260.635 214.524 261.031 213.947C261.235 213.659 261.445 213.347 261.667 213.089C261.787 212.939 261.919 212.783 262.027 212.621C263.455 214.019 264.621 215.661 265.471 217.469C264.891 218.1 264.415 218.819 264.061 219.599C263.626 220.371 263.247 221.173 262.927 221.999C262.34 223.615 261.856 225.267 261.475 226.943C261.475 227.015 261.577 227.039 261.589 226.943C261.96 225.253 262.539 223.614 263.311 222.065C263.677 221.309 264.061 220.559 264.463 219.821C264.882 219.135 265.262 218.426 265.603 217.697C266.411 219.469 266.881 221.375 266.989 223.319C266.989 223.391 267.109 223.385 267.103 223.319C266.879 220.27 265.947 217.316 264.379 214.691C265.123 215.009 265.867 215.291 266.581 215.699C267.493 216.191 268.34 216.796 269.101 217.499C269.155 217.553 269.233 217.463 269.179 217.415Z" fill="#263238"/>
<path d="M260.276 217.86C259.916 219.06 259.454 220.224 259.124 221.46C258.797 222.612 258.621 223.802 258.602 225C258.602 225.036 258.656 225.036 258.662 225C258.991 222.578 259.574 220.196 260.402 217.896C260.404 217.888 260.405 217.879 260.404 217.871C260.403 217.862 260.4 217.854 260.396 217.846C260.392 217.839 260.386 217.832 260.379 217.827C260.373 217.821 260.365 217.817 260.357 217.815C260.348 217.813 260.34 217.812 260.331 217.813C260.323 217.814 260.314 217.817 260.307 217.821C260.299 217.825 260.293 217.831 260.287 217.837C260.282 217.844 260.278 217.852 260.276 217.86Z" fill="#263238"/>
<path d="M267.965 214.89C267.488 214.431 266.946 214.045 266.357 213.744C265.757 213.471 265.135 213.25 264.497 213.084C264.425 213.084 264.401 213.18 264.497 213.198C265.128 213.359 265.734 213.607 266.297 213.936C266.871 214.234 267.422 214.573 267.947 214.95C267.953 214.949 267.959 214.946 267.964 214.941C267.968 214.937 267.972 214.931 267.973 214.925C267.975 214.919 267.975 214.913 267.974 214.906C267.972 214.9 267.969 214.895 267.965 214.89Z" fill="#263238"/>
<path d="M247.355 200.4C247.355 200.4 248.513 186.204 259.067 181.602C267.881 177.762 272.927 187.662 266.699 193.728C261.659 198.636 253.577 196.422 247.355 200.4Z" fill="#5ABF9D"/>
<path d="M264.749 184.355C263.141 185.006 261.572 185.749 260.051 186.581C258.788 187.305 257.572 188.107 256.409 188.981C256.583 188.621 256.733 188.249 256.913 187.895C257.189 187.349 257.483 186.809 257.807 186.293C258.456 185.217 259.238 184.228 260.135 183.347C260.189 183.299 260.099 183.215 260.051 183.269C259.157 184.15 258.338 185.103 257.603 186.119C257.239 186.634 256.905 187.169 256.601 187.721C256.289 188.233 256.049 188.784 255.887 189.359L255.773 189.443C253.929 190.912 252.241 192.564 250.733 194.375C250.763 194.237 250.787 194.099 250.829 193.967C251.027 193.277 251.237 192.587 251.465 191.903C251.921 190.448 252.562 189.056 253.373 187.763C253.415 187.703 253.313 187.643 253.271 187.709C252.442 189.003 251.705 190.352 251.063 191.747C250.768 192.429 250.523 193.131 250.331 193.847C250.178 194.313 250.064 194.791 249.989 195.275C249.527 195.875 249.077 196.445 248.651 197.075C244.121 203.525 241.847 211.325 241.301 219.137C241.141 221.464 241.101 223.797 241.181 226.127C241.191 228.48 241.392 230.827 241.781 233.147C241.811 233.297 242.039 233.249 242.039 233.105C241.985 231.053 241.775 229.013 241.733 226.961C241.694 224.903 241.76 222.845 241.931 220.793C242.262 216.696 243.034 212.647 244.235 208.715C245.46 204.687 247.267 200.858 249.599 197.351C250.043 197.261 250.487 197.141 250.925 197.027C251.363 196.913 251.981 196.757 252.503 196.613C253.516 196.352 254.501 195.99 255.443 195.533C255.449 195.529 255.454 195.524 255.459 195.518C255.463 195.512 255.466 195.505 255.468 195.498C255.469 195.491 255.47 195.483 255.468 195.476C255.467 195.469 255.465 195.462 255.461 195.455C255.457 195.449 255.452 195.444 255.446 195.439C255.439 195.435 255.433 195.432 255.425 195.43C255.418 195.429 255.411 195.428 255.403 195.43C255.396 195.431 255.389 195.433 255.383 195.437C254.447 195.945 253.433 196.292 252.383 196.463C251.555 196.631 250.697 196.733 249.869 196.925C250.637 195.809 251.453 194.729 252.323 193.697C254.333 193.88 256.361 193.73 258.323 193.253C259.366 193.001 260.393 192.68 261.395 192.293C262.457 191.885 263.453 191.363 264.497 190.925C264.51 190.919 264.521 190.908 264.526 190.894C264.531 190.879 264.53 190.864 264.524 190.85C264.517 190.837 264.506 190.826 264.492 190.821C264.478 190.816 264.462 190.817 264.449 190.823C262.559 191.853 260.497 192.528 258.365 192.815C256.482 193.118 254.578 193.274 252.671 193.283C253.421 192.425 254.195 191.585 255.023 190.799C257.795 188.159 261.089 185.735 264.737 184.469C264.851 184.445 264.815 184.331 264.749 184.355Z" fill="#263238"/>
<path d="M256.16 184.404C255.682 185.001 255.249 185.633 254.864 186.294C254.47 186.99 254.158 187.729 253.934 188.496C253.934 188.496 253.934 188.538 253.976 188.496C254.33 187.8 254.624 187.074 254.984 186.384C255.332 185.7 255.755 185.056 256.244 184.464C256.292 184.422 256.202 184.344 256.16 184.404Z" fill="#263238"/>
<path d="M265.975 189.126C265.289 189.507 264.562 189.811 263.809 190.032C263.087 190.273 262.352 190.473 261.607 190.632C261.571 190.632 261.577 190.698 261.607 190.692C262.385 190.61 263.151 190.443 263.893 190.194C264.623 189.916 265.336 189.595 266.029 189.234C266.101 189.192 266.041 189.09 265.975 189.126Z" fill="#263238"/>
<path d="M239.148 197.856C239.082 198.456 237.552 192.696 228.624 187.578C220.524 182.928 210.846 170.832 218.796 163.188C225.21 157.02 242.112 170.466 239.148 197.856Z" fill="#5ABF9D"/>
<path d="M245.294 230.921C245.163 224.925 244.69 218.941 243.878 212.999C243.172 207.53 241.907 202.148 240.104 196.937C239.444 195.059 238.682 193.217 237.86 191.399C237.905 190.691 237.893 189.981 237.824 189.275C237.782 188.363 237.698 187.475 237.614 186.551C237.53 185.627 237.44 184.751 237.332 183.833C237.224 182.915 237.032 182.033 236.996 181.127C236.999 181.118 236.999 181.109 236.998 181.099C236.997 181.09 236.993 181.081 236.987 181.073C236.982 181.066 236.974 181.059 236.966 181.055C236.958 181.051 236.948 181.049 236.939 181.049C236.929 181.049 236.92 181.051 236.911 181.055C236.903 181.059 236.896 181.066 236.89 181.073C236.885 181.081 236.881 181.09 236.879 181.099C236.878 181.109 236.879 181.118 236.882 181.127C237.06 182.076 237.166 183.037 237.2 184.001C237.272 184.877 237.32 185.753 237.344 186.629C237.374 187.511 237.344 188.387 237.344 189.269C237.344 189.581 237.344 189.917 237.314 190.259C236.48 188.459 235.58 186.737 234.602 185.039C235.202 181.337 234.422 177.467 233.666 173.849C233.666 173.777 233.54 173.813 233.558 173.885C233.932 175.775 234.133 177.695 234.158 179.621C234.194 181.139 234.122 182.657 234.116 184.175C233.9 183.815 233.69 183.449 233.468 183.089C232.31 181.199 231.068 179.345 229.76 177.551C229.867 176.674 229.839 175.786 229.676 174.917C229.529 173.941 229.312 172.977 229.028 172.031C228.74 171.089 228.428 170.159 228.038 169.247C227.648 168.335 227.138 167.417 226.766 166.481C226.73 166.397 226.616 166.481 226.658 166.523C227.135 167.412 227.509 168.352 227.774 169.325C228.072 170.236 228.316 171.164 228.506 172.103C228.698 173.039 228.848 173.981 228.98 174.935C229.07 175.535 229.124 176.213 229.232 176.843C227.321 174.277 225.234 171.847 222.986 169.571C222.932 169.517 222.854 169.601 222.902 169.655C226.305 173.48 229.344 177.614 231.98 182.003L232.262 182.495C231.77 182.189 231.206 181.943 230.744 181.685L228.146 180.257L225.614 178.877C225.182 178.637 224.756 178.385 224.312 178.157C223.785 177.922 223.279 177.643 222.8 177.323C222.788 177.315 222.773 177.311 222.758 177.313C222.744 177.315 222.731 177.323 222.722 177.335C222.713 177.347 222.709 177.362 222.712 177.377C222.714 177.391 222.722 177.405 222.734 177.413C223.592 177.887 224.354 178.613 225.182 179.117C226.01 179.621 226.862 180.161 227.732 180.647C229.316 181.529 231.038 182.165 232.604 183.083C233.684 184.979 234.684 186.921 235.604 188.909C234.656 188.309 233.69 187.709 232.706 187.169C232.076 186.815 231.44 186.467 230.798 186.131C230.16 185.836 229.556 185.472 228.998 185.045C228.986 185.04 228.973 185.038 228.961 185.04C228.948 185.043 228.936 185.049 228.928 185.058C228.919 185.068 228.914 185.08 228.912 185.093C228.911 185.105 228.913 185.118 228.92 185.129C229.959 186.069 231.112 186.876 232.352 187.529C233.498 188.201 234.656 188.849 235.85 189.431C236.802 191.527 237.662 193.657 238.43 195.821C242.186 206.459 243.566 217.751 244.226 228.965C244.424 232.307 244.526 235.649 244.568 238.997C244.61 242.345 244.43 245.681 244.436 249.023C244.436 249.119 244.598 249.143 244.616 249.023C245.018 246.059 245.084 243.023 245.216 240.059C245.348 237.095 245.36 233.963 245.294 230.921Z" fill="#263238"/>
<path d="M229.073 182.765C227.444 182.047 225.861 181.23 224.333 180.317C222.783 179.441 221.279 178.486 219.827 177.455C219.827 177.455 219.779 177.455 219.797 177.497C221.169 178.595 222.614 179.597 224.123 180.497C225.705 181.38 227.34 182.163 229.019 182.843C229.091 182.897 229.145 182.795 229.073 182.765Z" fill="#263238"/>
<path d="M231.658 170.742C231.526 170.226 231.364 169.716 231.19 169.212C231.196 169.203 231.198 169.193 231.198 169.182C231.198 169.171 231.196 169.161 231.19 169.152C231.076 168.864 230.956 168.552 230.842 168.294L230.8 168.186C230.8 168.132 230.752 168.078 230.734 168.024C230.716 167.97 230.698 168.024 230.704 168.024C230.71 168.024 230.758 168.222 230.788 168.318C230.802 168.373 230.818 168.427 230.836 168.48C231.428 170.464 231.871 172.49 232.162 174.54C232.162 174.606 232.27 174.606 232.264 174.54C232.182 173.258 231.979 171.986 231.658 170.742Z" fill="#263238"/>
<path d="M254.722 233.081L254.086 240.629L252.136 263.651H231.25L229.3 240.629L228.664 233.081H254.722Z" fill="#37474F"/>
<path d="M254.722 233.081L254.086 240.629H229.3L228.664 233.081H254.722Z" fill="#263238"/>
<path d="M256.769 230.052H226.613V237.294H256.769V230.052Z" fill="#37474F"/>
<path d="M28.4648 263.652L58.8488 263.508L89.2328 263.454L150.001 263.352L210.769 263.448L241.153 263.502L271.537 263.652L241.153 263.796L210.769 263.85L150.001 263.952L89.2328 263.85L58.8488 263.796L28.4648 263.652Z" fill="#263238"/>
<path d="M200.706 33.9424H99.3061C97.9431 33.951 96.5952 34.2286 95.3397 34.7593C94.0842 35.29 92.9458 36.0633 91.9898 37.0349C91.0338 38.0065 90.279 39.1573 89.7687 40.4212C89.2584 41.6851 89.0027 43.0374 89.0161 44.4004V253.2C88.9922 255.948 90.0601 258.592 91.9852 260.552C93.9103 262.512 96.535 263.627 99.2821 263.652H200.682C202.045 263.643 203.393 263.365 204.648 262.835C205.903 262.304 207.042 261.532 207.999 260.561C208.955 259.59 209.712 258.441 210.224 257.178C210.736 255.915 210.994 254.563 210.984 253.2V44.4004C210.996 43.0388 210.74 41.6883 210.229 40.4258C209.719 39.1634 208.966 38.0138 208.011 37.0426C207.057 36.0715 205.92 35.2979 204.667 34.7659C203.414 34.234 202.068 33.9542 200.706 33.9424ZM204.564 246.744C204.564 252.24 200.448 256.686 195.372 256.686H104.634C99.5461 256.686 95.4301 252.24 95.4301 246.744V52.3084C95.4301 41.1124 99.5461 40.5664 104.634 40.5664H122.808C123.864 40.5664 124.728 41.7664 124.728 43.2544V43.8964C124.728 47.4004 126.636 47.4004 129 47.4004H171C173.358 47.4004 175.254 47.4004 175.254 43.9024V43.2544C175.254 41.7664 176.1 40.5664 177.174 40.5664H195.354C200.43 40.5664 204.546 42.0544 204.546 52.3084L204.564 246.744Z" fill="#263238"/>
<path d="M155.729 43.0381H144.263C144.17 43.0381 144.078 43.0198 143.992 42.9842C143.906 42.9486 143.828 42.8964 143.762 42.8307C143.696 42.765 143.644 42.6869 143.609 42.601C143.573 42.5151 143.555 42.423 143.555 42.3301C143.555 42.1423 143.629 41.9622 143.762 41.8294C143.895 41.6967 144.075 41.6221 144.263 41.6221H155.729C155.916 41.6221 156.097 41.6967 156.229 41.8294C156.362 41.9622 156.437 42.1423 156.437 42.3301C156.437 42.423 156.418 42.5151 156.383 42.601C156.347 42.6869 156.295 42.765 156.229 42.8307C156.164 42.8964 156.086 42.9486 156 42.9842C155.914 43.0198 155.822 43.0381 155.729 43.0381Z" fill="white"/>
<path d="M204.6 52.3084V246.744C204.6 252.24 200.484 256.686 195.408 256.686H104.634C99.5457 256.686 95.4297 252.24 95.4297 246.744V52.3084C95.4297 41.1124 99.5457 40.5664 104.634 40.5664H122.808C123.864 40.5664 124.728 41.7664 124.728 43.2544V43.8964C124.728 47.4004 126.636 47.4004 129 47.4004H171C173.364 47.4004 175.254 47.4004 175.254 43.9024V43.2544C175.254 41.7664 176.106 40.5664 177.18 40.5664H195.36C200.454 40.5664 204.6 42.0544 204.6 52.3084Z" fill="white"/>
<path d="M106.478 59.7305L103.25 56.7125L106.478 53.6885L106.976 54.2225L104.324 56.7125L106.976 59.2025L106.478 59.7305Z" fill="#C7C7C7"/>
<path d="M196.116 54.8284C196.116 54.9542 196.078 55.0772 196.009 55.1818C195.939 55.2863 195.839 55.3679 195.723 55.416C195.607 55.4641 195.479 55.4767 195.356 55.4522C195.232 55.4277 195.119 55.3671 195.03 55.2781C194.941 55.1892 194.881 55.0759 194.856 54.9525C194.831 54.8291 194.844 54.7012 194.892 54.585C194.94 54.4688 195.022 54.3695 195.126 54.2996C195.231 54.2297 195.354 54.1924 195.48 54.1924C195.563 54.1916 195.647 54.2075 195.724 54.2392C195.802 54.2709 195.872 54.3177 195.931 54.3769C195.99 54.4361 196.037 54.5066 196.069 54.5841C196.101 54.6616 196.117 54.7447 196.116 54.8284Z" fill="#C7C7C7"/>
<path d="M196.116 57.0843C196.116 57.2101 196.078 57.333 196.009 57.4376C195.939 57.5422 195.839 57.6237 195.723 57.6719C195.607 57.72 195.479 57.7326 195.356 57.7081C195.232 57.6835 195.119 57.6229 195.03 57.534C194.941 57.445 194.881 57.3317 194.856 57.2083C194.831 57.085 194.844 56.9571 194.892 56.8409C194.94 56.7247 195.022 56.6253 195.126 56.5555C195.231 56.4856 195.354 56.4483 195.48 56.4483C195.563 56.4475 195.647 56.4634 195.724 56.495C195.802 56.5267 195.872 56.5735 195.931 56.6328C195.99 56.692 196.037 56.7624 196.069 56.8399C196.101 56.9175 196.117 57.0005 196.116 57.0843Z" fill="#C7C7C7"/>
<path d="M196.116 59.3401C196.116 59.4659 196.078 59.5889 196.009 59.6935C195.939 59.7981 195.839 59.8796 195.723 59.9277C195.607 59.9759 195.479 59.9885 195.356 59.9639C195.232 59.9394 195.119 59.8788 195.03 59.7899C194.941 59.7009 194.881 59.5876 194.856 59.4642C194.831 59.3408 194.844 59.213 194.892 59.0967C194.94 58.9805 195.022 58.8812 195.126 58.8113C195.231 58.7414 195.354 58.7041 195.48 58.7041C195.563 58.7033 195.647 58.7192 195.724 58.7509C195.802 58.7826 195.872 58.8294 195.931 58.8886C195.99 58.9478 196.037 59.0183 196.069 59.0958C196.101 59.1733 196.117 59.2564 196.116 59.3401Z" fill="#C7C7C7"/>
<path d="M119.668 44.9349L119.494 45.1089L119.392 45.2049C118.943 44.7579 118.334 44.507 117.7 44.507C117.066 44.507 116.458 44.7579 116.008 45.2049L115.912 45.1029L115.738 44.9289L115.96 44.7309C116.121 44.6062 116.294 44.4976 116.476 44.4069C116.692 44.298 116.922 44.2212 117.16 44.1789C117.271 44.1565 117.383 44.1405 117.496 44.1309H117.796H118.024C118.239 44.1566 118.451 44.2069 118.654 44.2809C118.799 44.3358 118.94 44.402 119.074 44.4789C119.217 44.5604 119.351 44.6548 119.476 44.7609L119.662 44.9289L119.668 44.9349Z" fill="#C7C7C7"/>
<path d="M116.567 45.7569L116.285 45.4809C116.662 45.1072 117.171 44.8975 117.701 44.8975C118.232 44.8975 118.741 45.1072 119.117 45.4809L118.835 45.7569C118.534 45.4572 118.126 45.289 117.701 45.289C117.276 45.289 116.868 45.4572 116.567 45.7569Z" fill="#C7C7C7"/>
<path d="M118.557 46.039L118.281 46.309C118.201 46.2314 118.108 46.1702 118.005 46.129C117.902 46.0878 117.792 46.0675 117.681 46.069C117.569 46.0669 117.458 46.0876 117.355 46.1299C117.252 46.1722 117.159 46.2352 117.081 46.315C116.991 46.219 116.895 46.129 116.805 46.039C116.917 45.9192 117.053 45.8236 117.203 45.7582C117.354 45.6929 117.516 45.6592 117.681 45.6592C117.845 45.6592 118.007 45.6929 118.158 45.7582C118.309 45.8236 118.444 45.9192 118.557 46.039Z" fill="#C7C7C7"/>
<path d="M117.951 46.5605C117.951 46.6274 117.925 46.6915 117.877 46.7387C117.83 46.786 117.766 46.8125 117.699 46.8125C117.666 46.8125 117.634 46.806 117.604 46.7932C117.573 46.7805 117.546 46.7618 117.523 46.7384C117.5 46.7149 117.482 46.687 117.47 46.6565C117.458 46.626 117.452 46.5933 117.453 46.5605C117.453 46.4953 117.479 46.4327 117.525 46.3866C117.571 46.3404 117.634 46.3145 117.699 46.3145C117.732 46.3137 117.765 46.3195 117.795 46.3315C117.826 46.3435 117.854 46.3615 117.877 46.3844C117.901 46.4073 117.919 46.4347 117.932 46.465C117.945 46.4952 117.951 46.5277 117.951 46.5605Z" fill="#C7C7C7"/>
<path d="M102.547 45.4623C102.547 45.3185 102.59 45.1779 102.67 45.0583C102.75 44.9388 102.863 44.8458 102.996 44.791C103.129 44.7362 103.276 44.7222 103.417 44.7507C103.558 44.7792 103.687 44.849 103.788 44.9511C103.89 45.0532 103.958 45.1832 103.986 45.3244C104.013 45.4656 103.998 45.6118 103.942 45.7443C103.886 45.8769 103.792 45.9898 103.672 46.0689C103.552 46.1479 103.411 46.1895 103.267 46.1883C103.172 46.1883 103.078 46.1695 102.99 46.1329C102.902 46.0964 102.823 46.0428 102.756 45.9753C102.689 45.9078 102.636 45.8277 102.6 45.7397C102.564 45.6516 102.546 45.5574 102.547 45.4623Z" fill="#C7C7C7"/>
<path d="M104.82 45.462C104.823 45.319 104.867 45.1798 104.949 45.062C105.03 44.9442 105.144 44.853 105.277 44.7999C105.41 44.7468 105.555 44.7341 105.695 44.7635C105.835 44.7928 105.964 44.8629 106.064 44.9649C106.164 45.0669 106.232 45.1963 106.259 45.3368C106.286 45.4773 106.271 45.6226 106.216 45.7546C106.161 45.8865 106.068 45.9992 105.948 46.0785C105.829 46.1577 105.689 46.2 105.546 46.2C105.45 46.2001 105.355 46.1809 105.266 46.1437C105.177 46.1064 105.096 46.0519 105.029 45.9832C104.961 45.9145 104.908 45.833 104.872 45.7436C104.836 45.6541 104.819 45.5584 104.82 45.462Z" fill="#C7C7C7"/>
<path d="M107.102 45.462C107.104 45.319 107.149 45.1798 107.23 45.062C107.311 44.9442 107.425 44.853 107.558 44.7999C107.691 44.7468 107.836 44.7341 107.977 44.7635C108.117 44.7928 108.245 44.8629 108.345 44.9649C108.445 45.0669 108.513 45.1963 108.54 45.3368C108.568 45.4773 108.552 45.6226 108.497 45.7546C108.442 45.8865 108.349 45.9992 108.23 46.0785C108.111 46.1577 107.971 46.2 107.828 46.2C107.731 46.2001 107.636 46.1809 107.547 46.1437C107.458 46.1064 107.378 46.0519 107.31 45.9832C107.242 45.9145 107.189 45.833 107.153 45.7436C107.118 45.6541 107.1 45.5584 107.102 45.462Z" fill="#C7C7C7"/>
<path d="M109.379 45.462C109.382 45.3187 109.426 45.1793 109.508 45.0614C109.589 44.9435 109.704 44.8523 109.837 44.7994C109.97 44.7464 110.116 44.7341 110.256 44.764C110.396 44.7938 110.525 44.8645 110.625 44.9671C110.725 45.0697 110.792 45.1996 110.819 45.3405C110.845 45.4813 110.829 45.6269 110.773 45.7587C110.717 45.8906 110.623 46.0028 110.503 46.0814C110.383 46.1599 110.242 46.2012 110.099 46.2C110.003 46.2001 109.908 46.1809 109.819 46.1435C109.731 46.1062 109.651 46.0516 109.584 45.9828C109.516 45.914 109.464 45.8325 109.429 45.7431C109.394 45.6536 109.377 45.5581 109.379 45.462Z" fill="#C7C7C7"/>
<path d="M111.66 45.462C111.663 45.3187 111.707 45.1793 111.789 45.0614C111.87 44.9435 111.985 44.8523 112.118 44.7994C112.251 44.7464 112.397 44.7341 112.537 44.764C112.678 44.7938 112.806 44.8645 112.906 44.9671C113.006 45.0697 113.074 45.1996 113.1 45.3405C113.126 45.4813 113.11 45.6269 113.054 45.7587C112.998 45.8906 112.904 46.0028 112.784 46.0814C112.664 46.1599 112.524 46.2012 112.38 46.2C112.284 46.2001 112.189 46.1809 112.101 46.1435C112.012 46.1062 111.932 46.0516 111.865 45.9828C111.798 45.914 111.745 45.8325 111.71 45.7431C111.675 45.6536 111.658 45.5581 111.66 45.462Z" fill="#C7C7C7"/>
<path d="M196.386 47.0466H190.488V44.3105H196.386V47.0466ZM190.8 46.7405H196.08V44.6165H190.8V46.7405Z" fill="#C7C7C7"/>
<path d="M194.778 44.7783H190.98V46.5783H194.778V44.7783Z" fill="#C7C7C7"/>
<path d="M196.909 44.9463H196.387V46.4043H196.909V44.9463Z" fill="#C7C7C7"/>
<path d="M112.014 244.8H111.18V248.61H109.632V246.666H106.884V248.61H105.336V244.8H104.508L108.258 240.918L112.014 244.8Z" fill="#EBEBEB"/>
<path d="M195.497 240.918H186.449V242.208H195.497V240.918Z" fill="#EBEBEB"/>
<path d="M195.497 244.116H186.449V245.406H195.497V244.116Z" fill="#EBEBEB"/>
<path d="M195.497 247.314H186.449V248.604H195.497V247.314Z" fill="#EBEBEB"/>
<path d="M152.574 244.248L150 246.996L147.426 244.248L147.882 243.828L150 246.084L152.118 243.828L152.574 244.248Z" fill="#EBEBEB"/>
<path d="M149.998 249.834C149.074 249.834 148.17 249.56 147.401 249.047C146.633 248.533 146.034 247.803 145.68 246.949C145.326 246.095 145.234 245.155 145.414 244.248C145.594 243.342 146.04 242.509 146.693 241.855C147.347 241.202 148.18 240.756 149.086 240.576C149.993 240.396 150.933 240.488 151.787 240.842C152.641 241.196 153.371 241.795 153.885 242.564C154.398 243.332 154.672 244.236 154.672 245.16C154.669 246.399 154.176 247.586 153.3 248.462C152.424 249.338 151.237 249.831 149.998 249.834ZM149.998 241.104C149.196 241.104 148.412 241.342 147.745 241.788C147.078 242.234 146.558 242.867 146.251 243.608C145.944 244.349 145.864 245.165 146.02 245.952C146.177 246.738 146.563 247.461 147.13 248.028C147.697 248.596 148.42 248.982 149.207 249.138C149.994 249.295 150.809 249.215 151.55 248.908C152.292 248.601 152.925 248.081 153.371 247.414C153.816 246.747 154.054 245.963 154.054 245.16C154.054 244.085 153.627 243.053 152.866 242.292C152.106 241.532 151.074 241.104 149.998 241.104Z" fill="#EBEBEB"/>
<path d="M143.022 228.367C143.022 228.675 142.931 228.977 142.759 229.233C142.588 229.49 142.344 229.69 142.059 229.808C141.774 229.926 141.461 229.957 141.158 229.897C140.855 229.836 140.577 229.688 140.359 229.47C140.141 229.252 139.993 228.974 139.932 228.671C139.872 228.368 139.903 228.055 140.021 227.77C140.139 227.485 140.339 227.241 140.596 227.07C140.852 226.898 141.154 226.807 141.462 226.807C141.667 226.806 141.871 226.846 142.06 226.924C142.25 227.002 142.422 227.117 142.567 227.262C142.712 227.407 142.827 227.579 142.905 227.769C142.983 227.958 143.023 228.162 143.022 228.367Z" fill="#DBDBDB"/>
<path d="M152.533 228.366C152.533 228.833 152.394 229.291 152.134 229.679C151.875 230.068 151.505 230.371 151.073 230.55C150.641 230.729 150.166 230.776 149.707 230.685C149.249 230.593 148.828 230.368 148.497 230.038C148.166 229.707 147.941 229.286 147.85 228.827C147.759 228.369 147.806 227.893 147.985 227.461C148.164 227.029 148.467 226.66 148.855 226.4C149.244 226.141 149.701 226.002 150.169 226.002C150.796 226.002 151.397 226.251 151.84 226.694C152.284 227.138 152.533 227.739 152.533 228.366Z" fill="#5ABF9D"/>
<path d="M160.433 228.367C160.433 228.675 160.341 228.977 160.17 229.233C159.998 229.49 159.755 229.69 159.469 229.808C159.184 229.926 158.871 229.957 158.568 229.897C158.266 229.836 157.988 229.688 157.769 229.47C157.551 229.252 157.403 228.974 157.342 228.671C157.282 228.368 157.313 228.055 157.431 227.77C157.549 227.485 157.749 227.241 158.006 227.07C158.262 226.898 158.564 226.807 158.873 226.807C159.078 226.806 159.281 226.846 159.47 226.924C159.66 227.002 159.832 227.117 159.977 227.262C160.122 227.407 160.237 227.579 160.315 227.769C160.393 227.958 160.433 228.162 160.433 228.367Z" fill="#DBDBDB"/>
<path d="M170.717 184.902H128.609V198.294H170.717V184.902Z" fill="#5ABF9D"/>
<path d="M140.4 193.476V189.876C140.399 189.832 140.407 189.788 140.424 189.747C140.44 189.705 140.465 189.668 140.496 189.637C140.528 189.605 140.565 189.581 140.606 189.564C140.647 189.547 140.691 189.539 140.736 189.54C140.78 189.539 140.825 189.547 140.866 189.564C140.908 189.58 140.945 189.605 140.977 189.636C141.009 189.668 141.034 189.705 141.052 189.746C141.069 189.787 141.078 189.831 141.078 189.876V193.158H142.746C142.836 193.158 142.923 193.194 142.988 193.258C143.052 193.322 143.088 193.409 143.088 193.5C143.088 193.591 143.052 193.678 142.988 193.742C142.923 193.806 142.836 193.842 142.746 193.842H140.736C140.689 193.842 140.643 193.833 140.6 193.814C140.557 193.795 140.519 193.768 140.487 193.733C140.455 193.699 140.431 193.658 140.416 193.614C140.401 193.57 140.396 193.523 140.4 193.476Z" fill="white"/>
<path d="M147 190.045C147.399 190.463 147.622 191.02 147.622 191.599C147.622 192.178 147.399 192.734 147 193.153C146.815 193.358 146.589 193.523 146.337 193.637C146.085 193.75 145.812 193.81 145.536 193.813C145.253 193.812 144.973 193.753 144.714 193.64C144.455 193.526 144.222 193.36 144.03 193.153C143.637 192.731 143.418 192.175 143.418 191.599C143.418 191.022 143.637 190.467 144.03 190.045C144.221 189.836 144.454 189.669 144.713 189.556C144.972 189.442 145.252 189.384 145.536 189.385C145.812 189.386 146.086 189.445 146.338 189.559C146.59 189.673 146.815 189.838 147 190.045ZM146.922 191.599C146.922 191.201 146.772 190.817 146.502 190.525C146.38 190.389 146.231 190.28 146.065 190.204C145.898 190.129 145.718 190.089 145.536 190.087C145.348 190.086 145.163 190.125 144.991 190.2C144.819 190.275 144.666 190.386 144.54 190.525C144.268 190.816 144.117 191.2 144.12 191.599C144.116 191.996 144.266 192.379 144.54 192.667C144.665 192.806 144.819 192.918 144.991 192.994C145.162 193.071 145.348 193.11 145.536 193.111C145.719 193.107 145.899 193.066 146.065 192.99C146.231 192.913 146.38 192.803 146.502 192.667C146.763 192.373 146.905 191.992 146.898 191.599H146.922Z" fill="white"/>
<path d="M148.621 191.605C148.631 191.183 148.758 190.773 148.987 190.42C149.217 190.066 149.54 189.783 149.921 189.603C150.302 189.422 150.725 189.351 151.144 189.398C151.563 189.444 151.961 189.606 152.293 189.865C152.366 189.922 152.414 190.006 152.425 190.098C152.436 190.191 152.41 190.284 152.353 190.357C152.296 190.43 152.212 190.477 152.12 190.489C152.027 190.5 151.934 190.474 151.861 190.417C151.585 190.203 151.245 190.087 150.895 190.087C150.689 190.084 150.485 190.122 150.294 190.199C150.104 190.276 149.931 190.391 149.785 190.537C149.639 190.673 149.523 190.837 149.444 191.02C149.364 191.202 149.323 191.4 149.323 191.599C149.323 191.798 149.364 191.995 149.444 192.178C149.523 192.361 149.639 192.525 149.785 192.661C149.931 192.806 150.104 192.921 150.294 192.998C150.485 193.076 150.689 193.114 150.895 193.111C151.191 193.109 151.481 193.028 151.735 192.877V192.037H150.853C150.761 192.034 150.673 191.995 150.608 191.929C150.544 191.863 150.507 191.775 150.505 191.683C150.507 191.592 150.544 191.505 150.609 191.441C150.674 191.377 150.762 191.341 150.853 191.341H152.053C152.099 191.339 152.145 191.347 152.189 191.363C152.232 191.38 152.271 191.404 152.305 191.436C152.338 191.468 152.365 191.506 152.384 191.549C152.402 191.591 152.412 191.637 152.413 191.683V193.045C152.416 193.079 152.416 193.113 152.413 193.147C152.391 193.209 152.349 193.262 152.293 193.297C151.962 193.556 151.566 193.718 151.148 193.765C150.73 193.812 150.308 193.742 149.927 193.563C149.547 193.384 149.224 193.102 148.995 192.75C148.765 192.398 148.638 191.989 148.627 191.569L148.621 191.605Z" fill="white"/>
<path d="M153.863 189.847C153.863 189.802 153.871 189.758 153.887 189.717C153.904 189.676 153.929 189.639 153.96 189.607C153.991 189.576 154.029 189.551 154.07 189.535C154.111 189.518 154.155 189.51 154.199 189.511C154.244 189.51 154.289 189.518 154.331 189.535C154.372 189.551 154.411 189.576 154.443 189.607C154.475 189.638 154.501 189.675 154.519 189.716C154.537 189.758 154.547 189.802 154.547 189.847V193.447C154.544 193.537 154.506 193.622 154.441 193.685C154.376 193.748 154.29 193.783 154.199 193.783C154.155 193.784 154.111 193.775 154.07 193.759C154.029 193.742 153.991 193.718 153.96 193.686C153.929 193.655 153.904 193.617 153.887 193.576C153.871 193.535 153.863 193.491 153.863 193.447V189.847Z" fill="white"/>
<path d="M156.371 193.476C156.371 193.565 156.336 193.651 156.273 193.714C156.21 193.777 156.124 193.812 156.035 193.812C155.946 193.812 155.861 193.777 155.798 193.714C155.735 193.651 155.699 193.565 155.699 193.476V189.876C155.698 189.821 155.71 189.767 155.734 189.718C155.758 189.669 155.793 189.627 155.837 189.594C155.91 189.545 155.999 189.525 156.085 189.538C156.172 189.552 156.251 189.597 156.305 189.666L158.291 192.414V189.9C158.291 189.857 158.3 189.814 158.316 189.774C158.333 189.734 158.357 189.697 158.388 189.667C158.419 189.636 158.455 189.612 158.495 189.595C158.535 189.579 158.578 189.57 158.621 189.57C158.709 189.57 158.794 189.605 158.857 189.666C158.92 189.728 158.956 189.812 158.957 189.9V193.5C158.956 193.589 158.92 193.673 158.857 193.736C158.794 193.799 158.71 193.835 158.621 193.836C158.573 193.835 158.525 193.824 158.481 193.802C158.437 193.78 158.399 193.749 158.369 193.71L158.339 193.674L156.371 190.944V193.476Z" fill="white"/>
<path d="M160.201 81.2346V85.6206H157.099V81.2346C157.099 77.0346 153.925 73.6686 150.025 73.6686C146.125 73.6686 142.951 77.0586 142.951 81.2346V92.2146H139.801V81.2346C139.801 75.2346 144.367 70.3926 150.001 70.3926C155.635 70.3926 160.201 75.2586 160.201 81.2346Z" fill="#C7C7C7"/>
<path d="M139.824 85.6328L142.926 85.7588V92.2148H139.824V85.6328Z" fill="#A6A6A6"/>
<path d="M164.156 88.5361H135.848V114.216H164.156V88.5361Z" fill="#5ABF9D"/>
<path opacity="0.1" d="M164.154 88.5361H150V114.216H164.154V88.5361Z" fill="black"/>
<path d="M151.199 102.318L152.399 107.934H147.371L148.571 102.318C148.106 102.029 147.747 101.597 147.55 101.086C147.352 100.575 147.326 100.013 147.477 99.4862C147.627 98.9594 147.945 98.4958 148.382 98.1658C148.819 97.8358 149.352 97.6572 149.9 97.6572C150.448 97.6572 150.981 97.8358 151.418 98.1658C151.855 98.4958 152.173 98.9594 152.324 99.4862C152.474 100.013 152.448 100.575 152.251 101.086C152.053 101.597 151.695 102.029 151.229 102.318H151.199Z" fill="#263238"/>
<path d="M186.457 142.555H113.551V155.035H186.457V142.555Z" fill="white"/>
<path d="M186.75 155.334H113.25V142.254H186.75V155.334ZM113.85 154.734H186.15V142.854H113.85V154.734Z" fill="#EBEBEB"/>
<path d="M121.116 145.998H120.516V151.332H121.116V145.998Z" fill="#37474F"/>
<path d="M123.486 148.362H118.152V148.962H123.486V148.362Z" fill="#37474F"/>
<path d="M122.492 146.562L118.719 150.332L119.143 150.756L122.916 146.986L122.492 146.562Z" fill="#37474F"/>
<path d="M119.139 146.565L118.715 146.989L122.487 150.761L122.911 150.337L119.139 146.565Z" fill="#37474F"/>
<path d="M130.162 145.998H129.562V151.332H130.162V145.998Z" fill="#37474F"/>
<path d="M132.533 148.362H127.199V148.962H132.533V148.362Z" fill="#37474F"/>
<path d="M131.539 146.568L127.766 150.338L128.19 150.762L131.963 146.992L131.539 146.568Z" fill="#37474F"/>
<path d="M128.19 146.563L127.766 146.987L131.537 150.759L131.962 150.335L128.19 146.563Z" fill="#37474F"/>
<path d="M139.213 145.998H138.613V151.332H139.213V145.998Z" fill="#37474F"/>
<path d="M141.584 148.362H136.25V148.962H141.584V148.362Z" fill="#37474F"/>
<path d="M140.586 146.568L136.812 150.339L137.237 150.763L141.01 146.993L140.586 146.568Z" fill="#37474F"/>
<path d="M137.241 146.561L136.816 146.985L140.588 150.757L141.012 150.333L137.241 146.561Z" fill="#37474F"/>
<path d="M148.268 145.998H147.668V151.332H148.268V145.998Z" fill="#37474F"/>
<path d="M150.631 148.362H145.297V148.962H150.631V148.362Z" fill="#37474F"/>
<path d="M149.636 146.568L145.863 150.339L146.287 150.763L150.06 146.993L149.636 146.568Z" fill="#37474F"/>
<path d="M146.295 146.567L145.871 146.991L149.643 150.763L150.067 150.339L146.295 146.567Z" fill="#37474F"/>
<path d="M157.315 145.998H156.715V151.332H157.315V145.998Z" fill="#37474F"/>
<path d="M159.678 148.362H154.344V148.962H159.678V148.362Z" fill="#37474F"/>
<path d="M158.683 146.568L154.91 150.339L155.334 150.763L159.107 146.993L158.683 146.568Z" fill="#37474F"/>
<path d="M155.338 146.559L154.914 146.983L158.686 150.755L159.11 150.331L155.338 146.559Z" fill="#37474F"/>
<path d="M166.362 145.998H165.762V151.332H166.362V145.998Z" fill="#37474F"/>
<path d="M168.732 148.362H163.398V148.962H168.732V148.362Z" fill="#37474F"/>
<path d="M167.734 146.565L163.961 150.335L164.385 150.759L168.158 146.989L167.734 146.565Z" fill="#37474F"/>
<path d="M164.389 146.557L163.965 146.981L167.737 150.753L168.161 150.329L164.389 146.557Z" fill="#37474F"/>
<path d="M180.227 150.72C179.576 150.681 178.942 150.5 178.368 150.189C177.795 149.878 177.297 149.445 176.909 148.92L176.777 148.74L176.909 148.566C177.272 148.024 177.763 147.58 178.339 147.273C178.915 146.965 179.557 146.805 180.209 146.805C180.862 146.805 181.504 146.965 182.08 147.273C182.655 147.58 183.146 148.024 183.509 148.566L183.635 148.74L183.509 148.92C183.126 149.44 182.633 149.871 182.067 150.182C181.5 150.493 180.872 150.676 180.227 150.72ZM177.539 148.764C177.849 149.19 178.255 149.537 178.724 149.777C179.193 150.016 179.713 150.141 180.239 150.141C180.766 150.141 181.285 150.016 181.755 149.777C182.224 149.537 182.63 149.19 182.939 148.764C182.63 148.338 182.224 147.991 181.755 147.751C181.285 147.512 180.766 147.387 180.239 147.387C179.713 147.387 179.193 147.512 178.724 147.751C178.255 147.991 177.849 148.338 177.539 148.764Z" fill="#EBEBEB"/>
<path d="M180.221 150.114C180.967 150.114 181.571 149.51 181.571 148.764C181.571 148.018 180.967 147.414 180.221 147.414C179.476 147.414 178.871 148.018 178.871 148.764C178.871 149.51 179.476 150.114 180.221 150.114Z" fill="#EBEBEB"/>
<path d="M182.447 146.057L177.652 150.852L178.077 151.276L182.871 146.482L182.447 146.057Z" fill="#EBEBEB"/>
<path d="M130.398 129.559H129.438V131.245C129.438 131.359 129.393 131.469 129.312 131.55C129.231 131.631 129.121 131.677 129.006 131.677C128.892 131.677 128.782 131.631 128.701 131.55C128.62 131.469 128.574 131.359 128.574 131.245V126.655C128.574 126.598 128.585 126.542 128.607 126.49C128.629 126.438 128.661 126.391 128.701 126.351C128.741 126.312 128.789 126.28 128.841 126.259C128.894 126.238 128.95 126.228 129.006 126.229H130.398C130.625 126.215 130.853 126.248 131.067 126.325C131.28 126.403 131.476 126.523 131.642 126.679C131.807 126.835 131.939 127.023 132.03 127.232C132.12 127.441 132.166 127.666 132.166 127.894C132.166 128.121 132.12 128.346 132.03 128.555C131.939 128.764 131.807 128.952 131.642 129.108C131.476 129.264 131.28 129.384 131.067 129.462C130.853 129.539 130.625 129.572 130.398 129.559ZM129.438 128.695H130.398C130.509 128.704 130.621 128.691 130.727 128.655C130.832 128.619 130.929 128.561 131.011 128.486C131.093 128.411 131.159 128.319 131.204 128.217C131.248 128.115 131.272 128.005 131.272 127.894C131.272 127.782 131.248 127.672 131.204 127.57C131.159 127.468 131.093 127.376 131.011 127.301C130.929 127.226 130.832 127.168 130.727 127.132C130.621 127.097 130.509 127.083 130.398 127.093H129.438V128.695Z" fill="#5ABF9D"/>
<path d="M135.348 130.386H133.458L133.074 131.4C133.04 131.479 132.984 131.547 132.913 131.595C132.842 131.643 132.758 131.669 132.672 131.67C132.622 131.679 132.572 131.679 132.522 131.67C132.414 131.629 132.327 131.548 132.279 131.444C132.23 131.339 132.225 131.22 132.264 131.112L133.986 126.528C134.021 126.447 134.078 126.378 134.152 126.33C134.226 126.282 134.312 126.257 134.4 126.258C134.488 126.256 134.574 126.28 134.647 126.329C134.72 126.377 134.776 126.447 134.808 126.528L136.53 131.112C136.569 131.22 136.564 131.339 136.515 131.444C136.467 131.548 136.38 131.629 136.272 131.67C136.223 131.681 136.172 131.681 136.122 131.67C136.037 131.67 135.953 131.644 135.882 131.596C135.812 131.548 135.757 131.48 135.726 131.4L135.348 130.386ZM135.03 129.534L134.4 127.86L133.8 129.534H135.03Z" fill="#5ABF9D"/>
<path d="M137.291 130.32C137.325 130.274 137.368 130.236 137.418 130.208C137.467 130.18 137.522 130.163 137.579 130.158C137.636 130.153 137.693 130.16 137.747 130.179C137.8 130.197 137.85 130.227 137.891 130.266C138.309 130.622 138.831 130.832 139.379 130.866C139.725 130.873 140.065 130.773 140.351 130.578C140.448 130.52 140.53 130.438 140.588 130.341C140.647 130.244 140.681 130.134 140.687 130.02C140.689 129.933 140.664 129.847 140.615 129.774C140.555 129.68 140.475 129.601 140.381 129.54C140.051 129.353 139.689 129.229 139.313 129.174C138.966 129.115 138.627 129.012 138.305 128.868C138.012 128.742 137.762 128.533 137.585 128.268C137.465 128.078 137.402 127.857 137.405 127.632C137.41 127.409 137.467 127.19 137.571 126.992C137.675 126.794 137.824 126.623 138.005 126.492C138.399 126.219 138.869 126.077 139.349 126.084C139.962 126.111 140.554 126.319 141.047 126.684C141.091 126.713 141.128 126.751 141.157 126.794C141.186 126.838 141.206 126.886 141.216 126.938C141.226 126.989 141.226 127.042 141.215 127.093C141.205 127.144 141.184 127.193 141.155 127.236C141.128 127.281 141.091 127.32 141.048 127.351C141.005 127.382 140.956 127.403 140.905 127.415C140.853 127.426 140.8 127.426 140.748 127.416C140.696 127.406 140.647 127.386 140.603 127.356C140.245 127.067 139.808 126.893 139.349 126.858C139.039 126.853 138.734 126.945 138.479 127.122C138.393 127.173 138.321 127.245 138.269 127.331C138.218 127.417 138.189 127.514 138.185 127.614C138.179 127.69 138.198 127.766 138.239 127.83C138.295 127.911 138.366 127.981 138.449 128.034C138.748 128.21 139.078 128.326 139.421 128.376C139.79 128.442 140.151 128.551 140.495 128.7C140.811 128.839 141.081 129.064 141.275 129.348C141.396 129.547 141.46 129.775 141.461 130.008C141.452 130.247 141.387 130.481 141.27 130.689C141.153 130.898 140.988 131.076 140.789 131.208C140.371 131.506 139.868 131.661 139.355 131.652C138.623 131.619 137.923 131.345 137.363 130.872C137.283 130.806 137.232 130.713 137.218 130.61C137.205 130.508 137.231 130.404 137.291 130.32Z" fill="#5ABF9D"/>
<path d="M142.409 130.32C142.442 130.279 142.483 130.245 142.53 130.22C142.576 130.195 142.627 130.18 142.68 130.175C142.732 130.169 142.785 130.175 142.835 130.191C142.886 130.207 142.933 130.232 142.973 130.266C143.391 130.622 143.913 130.832 144.461 130.866C144.807 130.874 145.147 130.774 145.433 130.578C145.53 130.52 145.612 130.438 145.67 130.341C145.729 130.244 145.763 130.134 145.769 130.02C145.771 129.933 145.746 129.847 145.697 129.774C145.638 129.679 145.558 129.599 145.463 129.54C145.135 129.352 144.775 129.228 144.401 129.174C144.055 129.116 143.718 129.013 143.399 128.868C143.105 128.74 142.854 128.533 142.673 128.268C142.555 128.077 142.492 127.857 142.493 127.632C142.498 127.409 142.555 127.19 142.659 126.992C142.763 126.794 142.912 126.623 143.093 126.492C143.487 126.219 143.957 126.077 144.437 126.084C145.05 126.111 145.641 126.319 146.135 126.684C146.178 126.713 146.216 126.751 146.245 126.794C146.274 126.838 146.294 126.886 146.304 126.938C146.314 126.989 146.314 127.042 146.303 127.093C146.293 127.144 146.272 127.193 146.243 127.236C146.215 127.281 146.179 127.32 146.136 127.351C146.093 127.382 146.044 127.403 145.993 127.415C145.941 127.426 145.888 127.426 145.836 127.416C145.784 127.406 145.735 127.386 145.691 127.356C145.333 127.067 144.896 126.893 144.437 126.858C144.126 126.853 143.822 126.945 143.567 127.122C143.481 127.173 143.409 127.245 143.357 127.331C143.306 127.417 143.277 127.514 143.273 127.614C143.267 127.69 143.286 127.766 143.327 127.83C143.383 127.911 143.454 127.981 143.537 128.034C143.836 128.209 144.166 128.325 144.509 128.376C144.878 128.442 145.239 128.551 145.583 128.7C145.897 128.838 146.166 129.063 146.357 129.348C146.482 129.546 146.546 129.775 146.543 130.008C146.535 130.247 146.471 130.48 146.355 130.689C146.239 130.898 146.075 131.076 145.877 131.208C145.457 131.507 144.952 131.663 144.437 131.652C143.705 131.619 143.005 131.345 142.445 130.872C142.372 130.801 142.328 130.705 142.321 130.603C142.315 130.501 142.346 130.401 142.409 130.32Z" fill="#5ABF9D"/>
<path d="M154.75 126.87L152.842 131.4C152.834 131.427 152.82 131.452 152.8 131.472C152.8 131.472 152.8 131.502 152.764 131.52L152.71 131.556C152.71 131.556 152.674 131.598 152.638 131.604H152.572H152.386H152.332C152.305 131.597 152.282 131.58 152.266 131.556L152.212 131.52C152.212 131.52 152.212 131.49 152.182 131.472C152.179 131.448 152.179 131.424 152.182 131.4L151.162 129L150.142 131.4C150.142 131.4 150.142 131.454 150.112 131.472L150.064 131.52C150.046 131.528 150.03 131.541 150.016 131.556L149.956 131.604C149.936 131.6 149.916 131.6 149.896 131.604H149.704H149.644C149.617 131.594 149.592 131.577 149.572 131.556C149.572 131.556 149.542 131.556 149.518 131.52L149.482 131.472C149.482 131.472 149.482 131.424 149.44 131.4L147.526 126.864C147.492 126.761 147.497 126.65 147.542 126.551C147.587 126.453 147.668 126.375 147.768 126.334C147.868 126.293 147.979 126.291 148.081 126.329C148.182 126.368 148.265 126.443 148.312 126.54L149.836 130.14L150.844 127.74C150.878 127.661 150.934 127.594 151.005 127.547C151.077 127.5 151.161 127.475 151.246 127.476C151.332 127.477 151.416 127.502 151.488 127.549C151.561 127.596 151.618 127.662 151.654 127.74L152.656 130.14L154.174 126.54C154.219 126.435 154.304 126.353 154.409 126.31C154.515 126.267 154.633 126.268 154.738 126.312C154.807 126.388 154.846 126.486 154.848 126.589C154.851 126.691 154.816 126.791 154.75 126.87Z" fill="#5ABF9D"/>
<path d="M160.199 126.9C160.704 127.432 160.986 128.138 160.986 128.871C160.986 129.605 160.704 130.31 160.199 130.842C159.963 131.101 159.675 131.307 159.355 131.45C159.035 131.592 158.689 131.667 158.339 131.67C157.982 131.668 157.628 131.594 157.3 131.452C156.972 131.309 156.677 131.102 156.431 130.842C155.938 130.304 155.664 129.601 155.664 128.871C155.664 128.141 155.938 127.438 156.431 126.9C156.676 126.639 156.971 126.431 157.299 126.289C157.628 126.147 157.981 126.073 158.339 126.072C158.69 126.074 159.036 126.148 159.356 126.291C159.676 126.433 159.963 126.641 160.199 126.9ZM160.097 128.868C160.097 128.366 159.909 127.882 159.569 127.512C159.414 127.339 159.225 127.201 159.013 127.105C158.801 127.01 158.571 126.961 158.339 126.96C158.102 126.959 157.867 127.007 157.65 127.102C157.433 127.197 157.238 127.337 157.079 127.512C156.737 127.881 156.549 128.366 156.551 128.868C156.546 129.371 156.735 129.857 157.079 130.224C157.239 130.4 157.433 130.54 157.65 130.636C157.867 130.732 158.102 130.782 158.339 130.782C158.571 130.779 158.801 130.728 159.012 130.632C159.224 130.536 159.414 130.397 159.569 130.224C159.902 129.852 160.082 129.368 160.073 128.868H160.097Z" fill="#5ABF9D"/>
<path d="M166.097 131.028C166.115 131.081 166.123 131.138 166.12 131.194C166.116 131.25 166.101 131.305 166.076 131.355C166.051 131.406 166.016 131.451 165.973 131.487C165.93 131.524 165.88 131.551 165.827 131.568C165.769 131.578 165.71 131.578 165.653 131.568C165.546 131.571 165.442 131.541 165.353 131.484C165.247 131.417 165.16 131.324 165.101 131.214C164.977 130.918 164.921 130.598 164.939 130.278C164.938 130.16 164.904 130.043 164.843 129.942C164.785 129.849 164.704 129.773 164.609 129.72C164.476 129.635 164.33 129.572 164.177 129.534H163.259V131.22C163.258 131.277 163.246 131.333 163.223 131.385C163.201 131.437 163.168 131.484 163.128 131.524C163.087 131.563 163.039 131.595 162.986 131.616C162.934 131.637 162.877 131.647 162.821 131.646C162.708 131.646 162.599 131.601 162.519 131.521C162.439 131.441 162.395 131.333 162.395 131.22V126.63C162.394 126.574 162.404 126.518 162.425 126.466C162.446 126.414 162.478 126.367 162.518 126.327C162.557 126.287 162.605 126.256 162.657 126.235C162.709 126.214 162.764 126.203 162.821 126.204H164.213C164.556 126.203 164.891 126.308 165.172 126.504C165.453 126.701 165.666 126.98 165.783 127.303C165.899 127.625 165.913 127.976 165.822 128.307C165.731 128.638 165.54 128.932 165.275 129.15C165.378 129.233 165.469 129.33 165.545 129.438C165.714 129.686 165.803 129.979 165.803 130.278C165.791 130.433 165.801 130.588 165.833 130.74C165.898 130.761 165.956 130.799 166.003 130.849C166.049 130.9 166.081 130.961 166.097 131.028ZM164.999 127.896C164.999 127.79 164.979 127.685 164.939 127.588C164.899 127.49 164.84 127.401 164.765 127.326C164.69 127.251 164.601 127.192 164.503 127.152C164.405 127.112 164.3 127.091 164.195 127.092H163.241V128.694H164.195C164.407 128.694 164.61 128.61 164.761 128.461C164.912 128.311 164.997 128.108 164.999 127.896Z" fill="#5ABF9D"/>
<path d="M167.363 131.245V126.655C167.363 126.598 167.373 126.543 167.394 126.491C167.415 126.439 167.447 126.391 167.486 126.352C167.526 126.312 167.573 126.28 167.625 126.259C167.677 126.238 167.733 126.228 167.789 126.229H168.707C169.407 126.261 170.067 126.562 170.55 127.069C171.034 127.576 171.304 128.249 171.304 128.95C171.304 129.65 171.034 130.323 170.55 130.83C170.067 131.337 169.407 131.638 168.707 131.671H167.789C167.676 131.671 167.568 131.626 167.488 131.546C167.408 131.466 167.363 131.358 167.363 131.245ZM168.227 130.807H168.707C169.182 130.78 169.628 130.572 169.954 130.227C170.28 129.882 170.462 129.425 170.462 128.95C170.462 128.475 170.28 128.018 169.954 127.672C169.628 127.327 169.182 127.12 168.707 127.093H168.227V130.807Z" fill="#5ABF9D"/>
<path d="M260.436 60.1677C260.436 60.1677 255.858 96.8037 248.334 105.048C239.334 114.936 232.734 113.49 229.134 118.59C225.486 113.484 218.934 114.936 209.934 105.042C202.41 96.7977 197.844 60.1617 197.844 60.1617C217.644 50.5617 229.164 39.7617 229.164 39.7617C229.464 40.1037 240.924 50.6997 260.436 60.1677Z" fill="#37474F"/>
<path d="M229.11 39.7737V118.59C225.462 113.484 218.91 114.936 209.91 105.042C202.386 96.7977 197.82 60.1617 197.82 60.1617C217.62 50.5617 229.14 39.7617 229.14 39.7617L229.11 39.7737Z" fill="#455A64"/>
<path d="M255.599 63.1198C255.599 63.1198 251.735 94.0678 245.399 101.034C237.761 109.398 232.199 108.168 229.145 112.476C226.067 108.168 220.529 109.398 212.891 101.034C206.543 94.0678 202.691 63.1198 202.691 63.1198C219.431 54.9898 229.151 45.8818 229.151 45.8818C229.151 45.8818 238.829 54.9898 255.599 63.1198Z" fill="#455A64"/>
<path d="M202.648 63.1201C202.648 63.1201 206.512 94.0621 212.848 101.034C220.474 109.392 226.006 108.174 229.09 112.47V45.8701C228.814 46.2001 219.13 55.1161 202.648 63.1201Z" fill="#37474F"/>
<path d="M237.79 87.8569C242.582 83.0651 242.582 75.2962 237.79 70.5045C232.999 65.7127 225.23 65.7127 220.438 70.5045C215.646 75.2962 215.646 83.0651 220.438 87.8569C225.23 92.6486 232.999 92.6486 237.79 87.8569Z" fill="#5ABF9D"/>
<path d="M227.712 87.1495L222.246 81.4675L224.274 79.5175L227.286 82.6495L233.778 72.6895L236.136 74.2255L227.712 87.1495Z" fill="white"/>
<path d="M48.2243 148.248H90.3203V139.53H48.2243V148.248Z" fill="#C7C7C7"/>
<path d="M79.0195 148.176L80.1955 159.318L94.7515 263.622H98.9095L87.4255 159.318L86.4955 148.176H79.0195Z" fill="#C7C7C7"/>
<path d="M39.6211 263.622H43.7851L58.3411 159.318L59.5171 148.176H52.0411L51.1111 159.318L39.6211 263.622Z" fill="#C7C7C7"/>
<path d="M46.6441 229.548H93.0781V226.932H46.6441V229.548Z" fill="#C7C7C7"/>
<path d="M87.4255 158.928H80.1955L79.0195 148.176H86.4955L87.4255 158.928Z" fill="#A6A6A6"/>
<path d="M51.1094 158.928H58.3394L59.5154 148.176H52.0394L51.1094 158.928Z" fill="#A6A6A6"/>
<path d="M53.8399 97.6317C55.6399 98.5557 55.9519 101.742 61.5559 101.568C62.3539 101.568 63.0079 101.226 63.7399 101.496C64.8139 101.886 65.6599 102.744 66.6139 103.368C67.3812 103.884 68.2548 104.22 69.1699 104.352C70.9256 104.559 72.6989 104.15 74.1859 103.194C75.1039 102.63 75.8719 101.85 76.7599 101.238C77.6479 100.626 83.0059 99.3297 83.9119 96.3177C84.5119 94.4037 84.3979 92.2257 82.1119 89.4297C81.5854 88.9311 81.2268 88.2811 81.0859 87.5697C81.0874 86.9463 81.2289 86.3312 81.4999 85.7697C81.8143 85.1325 81.9293 84.4153 81.8299 83.7117C81.5748 83.039 81.1635 82.4364 80.6299 81.9537C79.7899 80.9397 79.9459 79.4757 80.6299 77.6757C80.9011 76.9119 80.9935 76.0961 80.8999 75.2909C80.8062 74.4858 80.5291 73.7129 80.0899 73.0317C79.5392 72.2513 78.8898 71.5454 78.1579 70.9317C77.1319 69.9597 76.9579 69.0597 76.4959 67.6857C75.6259 65.0457 74.2639 63.8637 72.6619 63.0477C71.2159 62.3217 71.2639 62.5977 69.7159 62.8317C68.1475 61.8747 66.3012 61.477 64.4779 61.7037C62.7859 61.9197 61.3879 63.0537 60.1099 64.1397C58.9699 65.1117 57.9259 66.1557 57.8659 67.7937C57.8299 68.7357 58.0579 69.6717 58.0159 70.6137C57.9559 71.8137 57.2899 72.5757 56.4919 73.3317C55.302 74.3437 54.4812 75.7215 54.1579 77.2497C53.9479 78.5277 55.2079 80.5137 53.7319 82.4037C52.4359 84.0717 50.1319 86.0037 49.5319 88.0917C47.7019 94.6137 52.1419 96.7437 53.8399 97.6317Z" fill="#263238"/>
<path d="M75.5403 101.148C78.1143 100.758 82.0683 101.244 83.4363 98.3761C83.9776 97.9349 84.4063 97.3713 84.687 96.7318C84.9676 96.0923 85.0921 95.3952 85.0503 94.6981C84.8736 93.2092 84.1841 91.8282 83.1003 90.7921C82.4715 90.2002 81.9228 89.5285 81.4683 88.7941C81.3231 88.222 81.2168 87.6406 81.1503 87.0541C81.2564 86.3035 81.458 85.5696 81.7503 84.8701C81.1863 86.0701 80.6643 87.3661 81.1863 88.6861C81.2629 88.8744 81.3532 89.0569 81.4563 89.2321C81.6438 89.9263 81.9011 90.5998 82.2243 91.2421C83.0703 92.9221 83.8443 94.4401 83.7303 96.4021C83.7104 97.0575 83.553 97.7014 83.2683 98.2921C82.1548 99.2687 80.764 99.8729 79.2903 100.02C79.2543 100.02 79.2543 100.086 79.2903 100.08C80.623 99.9454 81.9013 99.4814 83.0103 98.7301C81.5163 100.872 78.0423 100.578 75.5283 101.076C75.4623 101.076 75.4863 101.154 75.5403 101.148ZM83.6343 97.8901V97.8361C84.0798 96.2463 83.9654 94.5516 83.3103 93.0361C82.9023 92.0341 82.2903 91.1341 81.8883 90.1261C81.8223 89.9521 81.7563 89.7781 81.6963 89.5981C82.2963 90.3841 83.0523 91.0381 83.6163 91.8061C84.8163 93.4741 85.2003 95.4601 84.0543 97.2661C83.9302 97.4844 83.7898 97.693 83.6343 97.8901Z" fill="#263238"/>
<path d="M77.8225 70.5415C78.783 71.376 79.6983 72.2613 80.5645 73.1935C81.1689 73.8052 81.5312 74.6152 81.5845 75.4735C81.6069 76.3382 81.3339 77.1847 80.8105 77.8735C80.6185 78.1615 80.4205 78.4735 80.2465 78.7555C80.2054 79.314 80.2937 79.8746 80.5045 80.3935C80.9245 81.3835 81.8545 81.9955 82.3045 82.9975C83.0005 84.6175 82.2265 85.9495 81.5425 87.3955C82.0405 86.1955 82.7425 85.0375 82.3465 83.6935C82.0345 82.5955 81.2305 82.0015 80.6245 81.1075C80.2556 80.5396 80.0482 79.8821 80.0245 79.2055C79.4845 80.2975 79.2985 81.4495 80.2525 82.5955C80.2945 82.6495 80.2525 82.7215 80.1805 82.6735C78.9805 81.4735 79.2925 79.9675 80.0305 78.6775C80.0759 77.9155 80.2441 77.1658 80.5285 76.4575C80.5285 76.3855 80.6665 76.4575 80.6545 76.5115C80.5465 77.0755 80.4025 77.6395 80.3245 78.1975L80.4505 78.0115C81.4105 76.6375 81.7885 75.0115 80.6845 73.5715C79.8565 72.4735 78.7285 71.6095 77.8045 70.5715C77.7625 70.5595 77.7985 70.5175 77.8225 70.5415Z" fill="#263238"/>
<path d="M85.0398 183.834C85.0398 183.834 74.2938 207.702 74.2818 207.72C72.2058 212.274 70.4598 216.3 69.7578 218.472C69.7531 218.484 69.7531 218.496 69.7578 218.508C69.5359 218.997 69.4312 219.531 69.4518 220.068C69.4518 220.068 69.4518 220.098 69.4518 220.104C70.3878 221.646 106.292 239.304 107.756 239.514C109.22 239.724 109.886 235.566 109.04 233.766C108.194 231.966 97.4658 219.054 97.4658 219.054L108.002 195.09L85.0398 183.834Z" fill="#EB9481"/>
<path d="M76.4911 202.8C76.4911 202.8 74.2951 207.684 74.2831 207.702C72.2071 212.256 70.4611 216.282 69.7591 218.454C69.7545 218.465 69.7545 218.478 69.7591 218.49C69.5941 218.995 69.4914 219.519 69.4531 220.05C69.4531 220.05 69.4531 220.08 69.4531 220.086C70.3891 221.628 106.293 239.286 107.757 239.496C109.221 239.706 109.887 235.548 109.041 233.748C108.195 231.948 97.4671 219.036 97.4671 219.036L99.7771 214.092L76.4911 202.8Z" fill="#EBEBEB"/>
<path d="M107.744 239.466C106.28 239.274 70.3637 221.634 69.4217 220.092C69.0557 219.492 71.3177 214.128 74.2217 207.702L74.3117 207.498L97.6157 218.622L97.4117 219.012C97.4117 219.012 108.146 231.918 108.998 233.718C109.85 235.518 109.202 239.664 107.744 239.466Z" fill="#263238"/>
<path d="M108.926 238.446C109.448 239.01 108.248 241.104 107.726 241.05C107.204 240.996 68.1264 221.586 67.5264 221.106C66.9264 220.626 68.3484 218.364 69.1824 218.622C70.0164 218.88 108.926 238.446 108.926 238.446Z" fill="#5ABF9D"/>
<path d="M99.3502 220.038C97.1842 218.424 94.0942 217.356 91.4362 218.16C91.3342 218.16 91.3822 218.34 91.4722 218.352C94.1101 218.734 96.6991 219.4 99.1942 220.338C99.2321 220.347 99.272 220.343 99.3075 220.327C99.343 220.311 99.3721 220.284 99.3901 220.249C99.4081 220.214 99.4139 220.175 99.4067 220.136C99.3995 220.098 99.3796 220.063 99.3502 220.038Z" fill="white"/>
<path d="M100.561 221.922C98.3952 220.302 95.3052 219.24 92.6472 220.044C92.5452 220.074 92.5932 220.218 92.6832 220.236C95.3209 220.617 97.9098 221.28 100.405 222.216C100.443 222.23 100.485 222.23 100.523 222.215C100.561 222.201 100.592 222.173 100.611 222.137C100.63 222.101 100.636 222.06 100.626 222.02C100.617 221.981 100.594 221.946 100.561 221.922Z" fill="white"/>
<path d="M101.773 223.799C99.6066 222.185 96.5106 221.117 93.8586 221.921C93.7566 221.957 93.7986 222.101 93.8586 222.113C96.4986 222.495 99.0897 223.161 101.587 224.099C101.626 224.124 101.674 224.132 101.72 224.121C101.765 224.11 101.805 224.082 101.83 224.042C101.854 224.003 101.862 223.955 101.851 223.909C101.841 223.863 101.812 223.824 101.773 223.799Z" fill="white"/>
<path d="M78.2958 214.434C76.3278 211.854 72.2958 214.902 74.2818 217.488C76.2678 220.074 80.2638 217.02 78.2958 214.434Z" fill="white"/>
<path d="M91.3768 163.086C91.1368 170.028 77.7568 200.01 77.7568 200.01L101.223 210.81C101.223 210.81 120.165 177.468 118.407 162.108C116.907 149.076 84.1168 124.974 78.8548 118.182C78.0748 117.174 78.3388 113.118 78.3388 113.118H57.0508V118.2C65.1808 135.456 89.4988 156.156 91.2988 162.234C91.3698 162.512 91.3961 162.8 91.3768 163.086Z" fill="#37474F"/>
<path d="M101.089 205.8C97.2254 203.946 98.3594 204.42 94.4894 202.614C92.5874 201.732 83.0474 197.262 81.1274 196.764C81.117 196.759 81.1052 196.758 81.0945 196.762C81.0838 196.766 81.0751 196.774 81.0704 196.785C81.0656 196.795 81.0651 196.807 81.0691 196.818C81.073 196.828 81.081 196.837 81.0914 196.842C82.7354 197.958 92.3774 202.2 94.2914 203.046C98.2094 204.774 97.1054 204.246 101.041 205.914C101.107 205.95 101.161 205.83 101.089 205.8Z" fill="#263238"/>
<path d="M62.4033 121.829C68.8289 131.623 76.0129 140.898 83.8893 149.567C85.8213 151.673 87.8072 153.719 89.7932 155.771C91.4732 157.505 93.1893 159.431 93.6033 161.897C94.0713 164.645 93.0033 167.381 92.1453 169.943C91.2033 172.763 90.2553 175.577 89.2533 178.379C88.1733 181.379 83.7573 192.293 83.0313 193.763C82.6653 194.495 88.8753 178.763 89.8833 175.859C90.8913 172.955 91.9113 170.069 92.7693 167.129C93.2663 165.632 93.47 164.054 93.3693 162.479C93.1743 160.962 92.5685 159.526 91.6173 158.327C89.8893 156.023 87.6453 154.067 85.6833 151.967C81.6153 147.611 77.7373 143.087 74.0493 138.395C69.8522 133.096 65.9348 127.58 62.3133 121.871C62.3105 121.866 62.3089 121.859 62.3086 121.853C62.3084 121.846 62.3094 121.84 62.3116 121.833C62.3138 121.827 62.3172 121.822 62.3216 121.817C62.326 121.812 62.3313 121.808 62.3373 121.805C62.3432 121.803 62.3496 121.801 62.3561 121.801C62.3626 121.801 62.3691 121.802 62.3752 121.804C62.3814 121.806 62.387 121.809 62.3918 121.814C62.3966 121.818 62.4005 121.824 62.4033 121.829Z" fill="#263238"/>
<path d="M49.8 235.872C49.8 235.872 48.756 262.038 48.75 262.056C48.87 267.06 49.062 271.446 49.35 273.702C49.3475 273.716 49.3475 273.73 49.35 273.744C49.3777 274.284 49.5319 274.81 49.8 275.28V275.31C51.312 276.282 91.332 276.51 92.73 276.048C94.128 275.586 92.922 271.56 91.38 270.312C89.838 269.064 74.538 262.128 74.538 262.128L75.336 235.98L49.8 235.872Z" fill="#EB9481"/>
<path d="M48.9444 256.878C48.9444 256.878 48.7404 262.038 48.7344 262.056C48.8544 267.06 49.0464 271.446 49.3344 273.702C49.3319 273.716 49.3319 273.73 49.3344 273.744C49.4303 274.272 49.5873 274.788 49.8024 275.28V275.31C51.3144 276.282 91.3344 276.51 92.7324 276.048C94.1304 275.586 92.9244 271.56 91.3824 270.312C89.8404 269.064 74.5404 262.128 74.5404 262.128L74.7024 256.836L48.9444 256.878Z" fill="#EBEBEB"/>
<path d="M92.7032 276C91.3052 276.462 51.3032 276.276 49.7672 275.304C49.1672 274.944 48.8732 269.112 48.6992 262.05V261.828L74.4992 261.66V262.098C74.4992 262.098 89.7872 269.022 91.3472 270.27C92.9072 271.518 94.1072 275.544 92.7032 276Z" fill="#263238"/>
<path d="M93.3199 274.572C94.0339 274.854 93.8719 277.26 93.3499 277.446C92.8279 277.632 49.2019 277.242 48.4579 277.074C47.7139 276.906 48.0019 274.242 48.8659 274.11C49.7299 273.978 93.3199 274.572 93.3199 274.572Z" fill="#5ABF9D"/>
<path d="M76.6688 262.2C74.0168 261.69 70.7648 262.086 68.7308 263.964C68.6528 264.036 68.7308 264.15 68.8388 264.12C71.375 263.316 73.9898 262.785 76.6388 262.536C76.6834 262.54 76.7277 262.526 76.762 262.497C76.7963 262.469 76.8178 262.428 76.8218 262.383C76.8258 262.338 76.8119 262.294 76.7832 262.26C76.7545 262.226 76.7134 262.204 76.6688 262.2Z" fill="white"/>
<path d="M78.6023 263.357C75.9503 262.847 72.7043 263.243 70.6643 265.121C70.5863 265.193 70.6643 265.307 70.7783 265.277C73.3141 264.472 75.9291 263.941 78.5783 263.693C78.6228 263.696 78.6668 263.682 78.7006 263.653C78.7343 263.623 78.7551 263.582 78.7583 263.537C78.7615 263.493 78.7468 263.449 78.7176 263.415C78.6883 263.381 78.6468 263.36 78.6023 263.357Z" fill="white"/>
<path d="M80.4917 264.521C77.8397 264.011 74.5877 264.401 72.5537 266.285C72.4697 266.357 72.5537 266.471 72.6617 266.441C75.1976 265.636 77.8126 265.105 80.4618 264.857C80.5063 264.861 80.5506 264.847 80.5849 264.819C80.6193 264.79 80.6408 264.749 80.6447 264.704C80.6487 264.66 80.6348 264.615 80.6061 264.581C80.5775 264.547 80.5363 264.525 80.4917 264.521Z" fill="white"/>
<path d="M55.2776 266.346C52.3796 264.882 50.0996 269.382 52.9976 270.846C55.8956 272.31 58.1996 267.816 55.2776 266.346Z" fill="white"/>
<path d="M75.2426 253.716L49.0826 253.932C49.0826 253.932 53.4386 147.09 50.5226 143.598C43.5866 135.3 44.6906 124.236 49.3646 113.124H73.2026C73.2026 113.124 72.0566 129.996 72.1706 130.488C79.5026 162.468 75.2426 253.716 75.2426 253.716Z" fill="#37474F"/>
<path d="M73.8019 248.358C68.0959 247.914 53.0659 248.4 51.1699 248.688C51.1611 248.692 51.1537 248.699 51.1485 248.708C51.1434 248.716 51.1406 248.726 51.1406 248.736C51.1406 248.746 51.1434 248.756 51.1485 248.764C51.1537 248.772 51.1611 248.779 51.1699 248.784C53.0479 249.162 70.2799 248.622 73.7959 248.484C73.8095 248.48 73.8217 248.473 73.8306 248.462C73.8396 248.451 73.8447 248.437 73.8454 248.423C73.8461 248.409 73.8422 248.395 73.8344 248.383C73.8265 248.372 73.8152 248.363 73.8019 248.358Z" fill="#263238"/>
<path d="M73.7638 119.681C73.5238 122.681 73.6438 127.853 71.8978 127.931C70.1518 128.009 70.4578 121.709 70.4098 120.257C70.3618 118.943 69.9118 119.123 69.8638 120.671C69.7318 124.871 69.8638 128.585 72.0718 128.411C74.2798 128.237 74.2858 121.727 74.2318 120.239C74.2018 119.471 73.8358 118.727 73.7638 119.681Z" fill="#263238"/>
<path d="M72.0013 128.13C71.8927 129.191 71.9148 130.261 72.0673 131.316C72.0973 131.4 72.4333 131.316 72.4693 131.262C72.6733 130.824 72.5113 128.76 72.5653 128.202C72.5749 128.127 72.5543 128.052 72.5082 127.992C72.4853 127.963 72.4569 127.938 72.4245 127.919C72.3921 127.901 72.3563 127.889 72.3193 127.884C72.2445 127.875 72.169 127.895 72.1094 127.941C72.0497 127.987 72.0109 128.055 72.0013 128.13Z" fill="#263238"/>
<path d="M72.7508 131.85C73.4948 134.49 74.2568 139.542 74.0768 140.85C74.0768 140.97 73.8848 141.012 73.8608 140.886C73.6208 139.47 72.5648 132.66 72.4568 131.946C72.3488 131.232 72.5408 131.112 72.7508 131.85Z" fill="#263238"/>
<path d="M68.1626 133.932C68.5108 133.59 68.8838 133.276 69.2786 132.99C69.6686 132.684 70.0586 132.39 70.4786 132.096C71.3066 131.496 72.1586 130.98 73.0286 130.464C73.8986 129.948 74.7506 129.498 75.6386 129.048C76.5266 128.598 77.5466 128.226 78.4706 127.764C78.5246 127.734 78.5726 127.812 78.5186 127.842C77.6426 128.328 76.8266 128.934 75.9746 129.468C75.1226 130.002 74.2706 130.554 73.4126 131.088C72.5546 131.622 71.7446 132.144 70.9046 132.66C70.4686 132.932 70.0246 133.196 69.5726 133.452C69.1681 133.712 68.7472 133.947 68.3126 134.154C68.1686 134.208 68.0846 134.022 68.1626 133.932Z" fill="#263238"/>
<path d="M53.0231 198.126C53.4011 189.564 54.0011 180 54.1451 171.45C54.2131 167.166 54.2451 162.88 54.2411 158.592C54.2411 154.338 54.2411 148.656 54.0491 144.408C53.9351 142.248 50.1311 140.58 49.3571 134.292C48.8208 130.711 49.106 127.055 50.1911 123.6C50.461 122.76 50.7795 121.937 51.1451 121.134C51.1451 121.08 51.2471 121.134 51.2231 121.182C49.7005 124.713 49.068 128.563 49.3811 132.396C49.4917 134.328 49.8963 136.232 50.5811 138.042C51.6011 140.58 54.1151 142.638 54.2471 143.988C54.4451 145.998 54.4751 147.738 54.4991 149.76C54.5231 151.782 54.5471 153.96 54.5591 156.06C54.5831 160.348 54.5711 164.634 54.5231 168.918C54.4271 177.45 54.2031 185.978 53.8511 194.502C53.4911 203.028 51.2831 245.718 51.1391 246.702C51.1391 246.81 50.9471 246.786 50.9531 246.702C51.2171 242.4 52.6391 206.688 53.0231 198.126Z" fill="#263238"/>
<path d="M67.1537 93.4317C72.8297 105.144 80.0357 117.828 86.7797 119.832C93.1997 121.722 105.644 105.96 109.58 101.832C110.984 100.332 99.5777 91.7517 97.8077 93.0537C94.4717 95.5077 88.4777 102.192 87.4697 101.958C86.4617 101.724 78.0437 93.7197 70.4597 86.9997C65.8637 82.9257 63.2237 85.3137 67.1537 93.4317Z" fill="#EB9481"/>
<path d="M119.449 94.3979C121.009 93.7439 133.021 93.3599 133.021 90.7559C133.021 88.1519 117.727 88.8839 117.727 88.8839L119.449 94.3979Z" fill="#EB9481"/>
<path d="M96.4102 94.7039C98.5102 92.0939 100.358 89.3039 102.182 88.7639C103.448 88.4039 117.044 88.9919 119.174 88.8659C121.304 88.7399 128.876 88.9319 129.056 90.7919C129.302 93.4259 120.326 93.4019 119.372 94.7519C116.066 99.3959 103.496 106.272 103.496 106.272L96.4102 94.7039Z" fill="#EB9481"/>
<path d="M129.255 90.8335C129.123 90.3396 128.813 89.912 128.385 89.6335C127.455 88.9855 126.231 88.9256 125.139 88.8416C123.483 88.6867 121.817 88.6727 120.159 88.7995C120.151 88.7995 120.143 88.8027 120.138 88.8083C120.132 88.814 120.129 88.8216 120.129 88.8296C120.129 88.8375 120.132 88.8451 120.138 88.8508C120.143 88.8564 120.151 88.8596 120.159 88.8596C121.401 88.8596 122.643 88.8896 123.885 88.9916C125.022 89.0392 126.151 89.2123 127.251 89.5075C127.748 89.6397 128.197 89.9102 128.547 90.2875C128.671 90.4193 128.759 90.5803 128.805 90.7554C128.85 90.9306 128.85 91.1143 128.805 91.2895C128.439 92.4355 126.177 92.7776 125.133 93.0116C123.771 93.3176 122.355 93.6116 120.981 93.8636C120.921 93.8636 120.981 93.9716 121.011 93.9596C122.433 93.6776 123.939 93.5635 125.367 93.3055C126.525 93.0955 127.767 92.8615 128.703 92.1055C128.904 91.9661 129.063 91.7731 129.16 91.5483C129.258 91.3235 129.291 91.076 129.255 90.8335Z" fill="#263238"/>
<path d="M108.109 85.1621L108.505 83.1364L132.142 87.7524C132.356 87.7942 132.545 87.9193 132.667 88.1001C132.789 88.281 132.833 88.5028 132.792 88.7168L132.711 89.129C132.669 89.3429 132.544 89.5315 132.363 89.6533C132.183 89.775 131.961 89.82 131.747 89.7782L108.109 85.1621Z" fill="#5ABF9D"/>
<path opacity="0.1" d="M108.501 83.1403L108.105 85.166L110.956 85.7226L111.351 83.6969L108.501 83.1403Z" fill="black"/>
<path d="M99.4631 80.5616L98.7671 84.1616C98.5284 85.3789 98.7831 86.6413 99.4751 87.6708C100.167 88.7004 101.24 89.4129 102.457 89.6516C103.674 89.8903 104.937 89.6356 105.966 88.9436C106.996 88.2516 107.708 87.1789 107.947 85.9616L108.649 82.3616C108.767 81.7584 108.766 81.1379 108.644 80.5354C108.522 79.9329 108.283 79.3603 107.94 78.8503C107.597 78.3402 107.157 77.9026 106.645 77.5626C106.133 77.2226 105.559 76.9868 104.956 76.8686C104.353 76.7504 103.732 76.7522 103.13 76.8738C102.527 76.9954 101.955 77.2345 101.445 77.5775C100.415 78.27 99.7018 79.3435 99.4631 80.5616ZM107.179 81.4556C107.053 81.9883 106.765 82.4689 106.355 82.831C105.944 83.1931 105.431 83.4191 104.887 83.4776C105.367 83.7399 105.755 84.1425 105.999 84.6314C106.244 85.1204 106.333 85.6725 106.255 86.2136C105.973 87.6416 104.401 88.5416 102.739 88.2176C101.077 87.8936 99.9551 86.4656 100.231 85.0436C100.36 84.5112 100.65 84.0314 101.061 83.6696C101.472 83.3078 101.985 83.0815 102.529 83.0216C102.047 82.762 101.657 82.3598 101.412 81.8701C101.167 81.3804 101.08 80.827 101.161 80.2856C101.443 78.8516 103.015 77.9636 104.677 78.2876C106.339 78.6116 107.461 80.0276 107.179 81.4556Z" fill="#5ABF9D"/>
<path d="M108.681 82.224L107.928 86.0812C107.888 86.286 108.022 86.4846 108.226 86.5246L108.415 86.5614C108.62 86.6014 108.818 86.4677 108.858 86.2629L109.612 82.4057C109.652 82.2008 109.518 82.0023 109.313 81.9623L109.125 81.9255C108.92 81.8855 108.721 82.0191 108.681 82.224Z" fill="#5ABF9D"/>
<path d="M109.611 82.4076L108.858 86.2647C108.818 86.4696 108.951 86.6682 109.156 86.7082L109.345 86.745C109.549 86.785 109.748 86.6513 109.788 86.4464L110.541 82.5893C110.581 82.3844 110.448 82.1859 110.243 82.1459L110.054 82.1091C109.849 82.0691 109.651 82.2027 109.611 82.4076Z" fill="#5ABF9D"/>
<path d="M126.481 85.7814L127.183 85.9194L127.579 83.8734L128.185 83.9934L127.975 85.0614L128.677 85.1994L128.887 84.1314L129.415 84.2334L129.091 85.9194L129.793 86.0574L130.123 84.3714L130.879 84.5214L130.441 86.7714L131.143 86.9094L131.581 84.6594L132.295 84.7974L131.737 87.6714L125.449 86.4474L126.007 83.5674L126.877 83.7414L126.481 85.7814Z" fill="#5ABF9D"/>
<path d="M45.9375 116.736L79.4295 117.288L76.8015 107.256C77.6753 105.997 78.2629 104.562 78.523 103.052C78.7832 101.542 78.7096 99.9929 78.3075 98.5141C77.5035 95.5621 73.6935 91.1401 71.3535 88.3141C65.6655 81.4741 60.7215 84.5641 59.1435 86.3221C53.1255 93.0601 45.9375 116.736 45.9375 116.736Z" fill="#5ABF9D"/>
<path d="M62.4321 90.2215V88.3135L63.6981 89.7295L65.0661 89.3035L64.4001 90.5035L65.0421 91.1755L64.0461 91.2775V92.5735L62.9541 91.6615L62.0661 92.3995L62.1681 91.3075L60.8721 90.7075L62.4321 90.2215ZM76.7001 111.659L75.6441 112.625L74.6721 112.109L75.0141 113.219L73.7541 113.873L74.9541 114.389L74.6601 115.349L75.5361 115.013L76.4001 116.105L76.5321 114.677L78.3321 114.077L76.5801 113.315L76.7001 111.659ZM64.4541 104.537L65.4801 106.577L66.4941 104.627L68.4261 104.963L67.4001 102.911L68.8341 101.543L66.8001 101.615L66.3921 99.6235L65.3241 101.687L62.6121 101.477L64.2081 103.127L62.7321 104.261L64.4541 104.537ZM72.4401 92.7475L72.9321 91.9195L72.0081 92.0035L71.6901 91.2415L71.1921 92.0695L70.3821 91.8715L70.8681 92.5795L70.2681 93.1795L71.2461 93.0895L71.7861 94.0975L72.0081 93.1615L72.7401 93.4255L72.4401 92.7475ZM56.7321 114.599L57.2241 113.777L56.3061 113.855L55.9821 113.093L55.4901 113.927L54.6801 113.723L55.1661 114.431L54.5661 115.031L55.5441 114.947L56.0841 115.955L56.3061 115.013L57.0441 115.283L56.7321 114.599ZM62.2401 99.7255L62.7321 98.9035L61.8081 98.9815L61.4901 98.2195L60.9981 99.0535L60.1821 98.8495L60.6681 99.5575L60.0681 100.157L61.0461 100.073L61.5861 101.075L61.8081 100.139L62.5461 100.403L62.2401 99.7255ZM56.2761 101.957L56.1081 101.417L55.7841 101.855L55.3221 101.693L55.4901 102.239L55.0881 102.515L55.5861 102.581V103.085L55.9281 102.617L56.5821 102.779L56.2581 102.311L56.6661 102.089L56.2761 101.957ZM71.8221 114.827L71.6541 114.287L71.3241 114.725L70.8681 114.569L71.0361 115.109L70.6281 115.391L71.1321 115.451V115.955L71.4741 115.493L72.1281 115.649L71.8041 115.181L72.2121 114.965L71.8221 114.827ZM76.4721 99.1435L76.8981 98.7655L76.3641 98.6515L76.3161 98.1655L75.8901 98.5435L75.4701 98.2915L75.6201 98.7715L75.1701 98.9995L75.7341 99.1195L75.8601 99.7855L76.1541 99.2935L76.5201 99.5755L76.4721 99.1435ZM68.0721 109.277L68.4921 108.899L67.9581 108.785L67.9101 108.299L67.4901 108.677L67.0641 108.425L67.2141 108.905L66.7641 109.133L67.3281 109.253L67.4541 109.919L67.7481 109.427L68.1141 109.709L68.0721 109.277ZM50.7801 112.457L51.2001 112.079L50.6661 111.959L50.6241 111.473L50.1981 111.857L49.8021 111.599L49.9461 112.085L49.4961 112.307L50.0601 112.433L50.1921 113.093L50.4801 112.607L50.8461 112.889L50.7801 112.457Z" fill="white"/>
<path d="M67.844 106.668C69.2762 106.536 70.7162 106.512 72.152 106.596C72.866 106.644 73.574 106.728 74.282 106.83C74.63 106.878 74.984 106.914 75.338 106.95C75.7086 106.995 76.0834 106.995 76.454 106.95C76.454 106.95 76.496 106.992 76.454 107.004C76.1117 107.081 75.7651 107.137 75.416 107.172C75.0743 107.193 74.7317 107.193 74.39 107.172C73.67 107.124 72.944 107.046 72.224 106.998C70.766 106.89 69.308 106.788 67.844 106.788C67.802 106.8 67.802 106.674 67.844 106.668Z" fill="#263238"/>
<path d="M64.5914 108.546C65.7297 108.214 66.8855 107.946 68.0534 107.742C68.6534 107.646 69.2534 107.58 69.8174 107.532L70.6634 107.472C70.9754 107.472 71.2634 107.472 71.5994 107.472C71.6354 107.472 71.6414 107.52 71.5994 107.526C71.3054 107.556 70.9994 107.634 70.7234 107.676L69.8474 107.814L68.0954 108.09C66.9274 108.258 65.7594 108.446 64.5914 108.654C64.5434 108.654 64.5314 108.564 64.5914 108.546Z" fill="#263238"/>
<path d="M62.3999 85.9442C62.5439 86.5442 65.3999 90.4141 68.1299 90.2821C69.0179 90.2341 68.9939 85.3741 68.9939 85.3741L69.0719 85.0142L70.1999 79.9802L64.2959 76.2001L63.4439 75.7021C63.4439 75.7021 63.2279 77.1001 62.9759 78.8401C62.9759 78.9241 62.9759 79.0021 62.9759 79.0861C62.9759 79.1701 62.9399 79.2781 62.9279 79.3741C62.8859 79.6321 62.8439 79.8962 62.8139 80.1602C62.7839 80.4242 62.7599 80.5622 62.7359 80.7602L62.6639 81.3962C62.474 82.9045 62.3858 84.4239 62.3999 85.9442Z" fill="#EB9481"/>
<path d="M63 78.8341C63.512 80.2458 64.3244 81.5295 65.3811 82.5965C66.4377 83.6635 67.7134 84.4884 69.12 85.0142L70.2 79.9802L64.296 76.2001L63.444 75.7021C63.444 75.7021 63.228 77.0941 63 78.8341Z" fill="#263238"/>
<path d="M77.2975 71.7659C79.0555 80.6459 73.9315 82.6979 72.0175 83.0759C70.2835 83.4179 64.3195 84.3539 61.6555 75.7079C58.9915 67.0619 62.5675 63.4379 66.5035 62.4479C70.4395 61.4579 75.5455 62.8919 77.2975 71.7659Z" fill="#EB9481"/>
<path d="M74.7091 70.4097C74.5111 70.4547 74.3108 70.4887 74.1091 70.5117C73.8986 70.5808 73.6715 70.5808 73.4611 70.5117C73.4002 70.4749 73.3532 70.4192 73.3272 70.353C73.3012 70.2869 73.2976 70.214 73.3171 70.1457C73.3767 70.0162 73.4699 69.9051 73.587 69.8238C73.7042 69.7426 73.8409 69.6942 73.9831 69.6837C74.2663 69.6175 74.564 69.6604 74.8171 69.8037C74.8691 69.8414 74.9094 69.893 74.9334 69.9526C74.9575 70.0121 74.9642 70.0773 74.953 70.1405C74.9417 70.2038 74.9128 70.2625 74.8697 70.3101C74.8266 70.3577 74.7709 70.3922 74.7091 70.4097Z" fill="#263238"/>
<path d="M68.4024 72.2275C68.6046 72.1966 68.8049 72.1545 69.0024 72.1015C69.2242 72.0887 69.4354 72.0021 69.6024 71.8555C69.6477 71.8006 69.6726 71.7317 69.6726 71.6605C69.6726 71.5893 69.6477 71.5203 69.6024 71.4655C69.5015 71.3646 69.3748 71.2934 69.2362 71.2596C69.0976 71.2257 68.9524 71.2305 68.8164 71.2735C68.5275 71.3107 68.2636 71.4566 68.0784 71.6815C68.0368 71.7357 68.0125 71.8011 68.0084 71.8693C68.0044 71.9375 68.0208 72.0053 68.0557 72.0641C68.0906 72.1228 68.1422 72.1698 68.204 72.1989C68.2658 72.228 68.3349 72.238 68.4024 72.2275Z" fill="#263238"/>
<path d="M69.7325 73.3682C69.7325 73.3682 69.6905 73.3682 69.6965 73.4282C69.8045 74.0282 69.8285 74.7482 69.3125 75.0302C69.3125 75.0302 69.3125 75.0722 69.3125 75.0662C69.9785 74.8682 69.9365 73.9202 69.7325 73.3682Z" fill="#263238"/>
<path d="M69.099 72.8099C68.109 72.8819 68.325 74.8619 69.243 74.7899C70.161 74.7179 69.927 72.7499 69.099 72.8099Z" fill="#263238"/>
<path d="M68.7179 72.9594C68.5559 73.0854 68.4119 73.3014 68.2019 73.3494C67.9919 73.3974 67.7639 73.2114 67.6019 73.0314C67.6379 73.4094 67.8239 73.7814 68.2379 73.7934C68.6519 73.8054 68.8379 73.4394 68.8919 73.0494C68.8559 73.0014 68.7839 72.9054 68.7179 72.9594Z" fill="#263238"/>
<path d="M73.4947 72.792C73.4947 72.792 73.5427 72.792 73.5427 72.84C73.5907 73.44 73.7407 74.154 74.3167 74.298V74.334C73.6267 74.31 73.4347 73.38 73.4947 72.792Z" fill="#263238"/>
<path d="M73.9745 72.0958C74.9525 71.9218 75.2285 73.8958 74.3225 74.0518C73.4165 74.2078 73.1525 72.2458 73.9745 72.0958Z" fill="#263238"/>
<path d="M74.4019 72.1677C74.5759 72.2517 74.7559 72.4197 74.9419 72.4017C75.1279 72.3837 75.2899 72.1497 75.3979 71.9277C75.3979 71.9277 75.3979 71.9277 75.4339 71.9277C75.4939 72.2997 75.4339 72.7137 75.0739 72.8337C74.7139 72.9537 74.4739 72.6597 74.3239 72.2937C74.2999 72.2457 74.3359 72.1317 74.4019 72.1677Z" fill="#263238"/>
<path d="M70.8488 78.5398C71.0048 78.6778 71.1668 78.8638 71.3888 78.8698C71.618 78.849 71.8405 78.7816 72.0428 78.6718C72.0428 78.6718 72.0788 78.6718 72.0428 78.6718C71.9631 78.798 71.8507 78.9003 71.7177 78.9679C71.5846 79.0355 71.4357 79.0659 71.2868 79.0558C71.1721 79.0309 71.0663 78.9754 70.9807 78.8951C70.8951 78.8148 70.8329 78.7127 70.8008 78.5998C70.8008 78.5998 70.8008 78.5218 70.8488 78.5398Z" fill="#263238"/>
<path d="M73.1338 76.0194C73.1338 76.0194 73.3737 76.9134 73.4277 77.3454C73.4277 77.3874 73.3318 77.4174 73.1818 77.4474C72.8192 77.5595 72.4329 77.5701 72.0648 77.4781C71.6967 77.3861 71.3608 77.1949 71.0938 76.9254C71.0938 76.8894 71.0937 76.8354 71.1537 76.8594C71.7496 77.1684 72.4297 77.2757 73.0918 77.1654C73.0918 77.0454 72.6298 75.6414 72.6958 75.6294C73.0348 75.6184 73.3738 75.6527 73.7037 75.7314C73.2657 73.8474 72.5038 72.0474 72.1138 70.1634C72.1138 70.0974 72.1978 70.0614 72.2218 70.1214C73.0751 72.0242 73.7344 74.0083 74.1898 76.0434C74.2438 76.2834 73.3198 76.0674 73.1338 76.0194Z" fill="#263238"/>
<path d="M73.1237 77.2919C72.9278 77.6737 72.6364 77.9983 72.2777 78.2339C72.0786 78.3578 71.8458 78.4165 71.6117 78.4019C71.1077 78.3599 71.0117 77.9159 71.0117 77.5199C71.0273 77.3163 71.0655 77.1151 71.1257 76.9199C71.7343 77.2558 72.435 77.3863 73.1237 77.2919Z" fill="#263238"/>
<path d="M72.2777 78.2336C72.0786 78.3575 71.8458 78.4162 71.6117 78.4016C71.1077 78.3596 71.0117 77.9156 71.0117 77.5196C71.2725 77.4762 71.5404 77.5234 71.7707 77.6533C72.001 77.7832 72.1799 77.988 72.2777 78.2336Z" fill="#FF9ABB"/>
<path d="M62.6473 76.4873C64.3453 76.4873 64.2313 72.5873 64.2313 72.5873C64.2313 72.5873 71.1673 70.3733 70.9513 64.5113C72.1807 66.7358 74.2199 68.4012 76.6453 69.1613C76.6453 69.1613 75.4993 62.8613 70.2973 62.3393C70.2973 62.3393 63.7393 60.9533 60.9313 66.4013C58.1233 71.8493 61.5073 76.5053 62.6473 76.4873Z" fill="#263238"/>
<path d="M70.9149 64.0801C71.1219 64.9603 71.1403 65.8743 70.9689 66.7621C70.8131 67.6653 70.4697 68.5258 69.9609 69.2881C69.835 69.4789 69.6967 69.6613 69.5469 69.8341L69.3369 70.1041C69.2589 70.1881 69.1749 70.2661 69.0909 70.3441C69.0069 70.4221 68.7669 70.6621 68.5989 70.8121L68.0469 71.2201C67.9569 71.2861 67.8669 71.3521 67.7709 71.4121L67.4769 71.5801L66.8769 71.9101C66.4689 72.0901 66.0489 72.2461 65.6289 72.3961C66.0129 72.1621 66.4089 71.9701 66.7809 71.7361L67.3329 71.3641L67.6029 71.1781C67.6929 71.1121 67.7709 71.0401 67.8549 70.9681L68.3529 70.5481C68.5149 70.3981 68.6589 70.2361 68.8089 70.0801L69.0369 69.8461L69.2349 69.5881C69.3715 69.422 69.4978 69.2477 69.6129 69.0661C70.0997 68.3332 70.455 67.521 70.6629 66.6661C70.7703 66.2425 70.8446 65.8112 70.8849 65.3761C70.9293 64.9456 70.9393 64.5122 70.9149 64.0801Z" fill="#263238"/>
<path d="M60.002 71.1533L59.582 72.0053L62.39 74.0573L63.29 72.1433L60.002 71.1533ZM62.192 73.1813L60.254 71.9213L60.344 71.7233L62.522 72.5093L62.192 73.1813Z" fill="#5ABF9D"/>
<path d="M60.1207 69.6482L60.0547 70.5962L63.4327 71.4422L63.5467 69.3242L60.1207 69.6482ZM62.9167 70.6982L60.6427 70.2662V70.0442L62.9587 69.9542L62.9167 70.6982Z" fill="#5ABF9D"/>
<path d="M63.9511 75.726C63.9511 75.726 61.6771 73.128 60.4831 73.968C59.2891 74.808 61.2031 78.72 62.7571 79.11C62.9531 79.1753 63.1604 79.2 63.3663 79.1827C63.5722 79.1654 63.7724 79.1065 63.9548 79.0094C64.1372 78.9123 64.2979 78.7791 64.4272 78.618C64.5566 78.4568 64.6518 78.2711 64.7071 78.072L63.9511 75.726Z" fill="#EB9481"/>
<path d="M61.0586 75.0774C61.0586 75.0774 61.0586 75.1074 61.0586 75.1134C61.5651 75.301 62.0266 75.5929 62.4131 75.9701C62.7997 76.3474 63.1027 76.8016 63.3026 77.3034C63.2305 77.2051 63.1378 77.1237 63.0311 77.0649C62.9243 77.006 62.806 76.9711 62.6844 76.9625C62.5628 76.9539 62.4408 76.9719 62.3269 77.0153C62.2129 77.0586 62.1098 77.1262 62.0246 77.2134C62.0246 77.2134 62.0246 77.2734 62.0606 77.2674C62.2376 77.1881 62.4348 77.1657 62.625 77.2033C62.8153 77.2409 62.9891 77.3367 63.1226 77.4774C63.3495 77.7155 63.5507 77.977 63.7226 78.2574C63.7766 78.3474 63.9446 78.2574 63.8966 78.1734C63.7526 76.7994 62.5106 75.0534 61.0586 75.0774Z" fill="#263238"/>
<path d="M57.153 88.3199C49.521 101.484 38.115 131.7 36.051 136.02C34.653 138.954 49.989 146.688 50.643 144.552C51.471 141.822 62.115 106.626 62.811 90.9239C63.135 83.6519 59.595 84.1079 57.153 88.3199Z" fill="#EB9481"/>
<path d="M44.4027 151.272C45.2127 150.564 45.6027 150.984 45.2367 152.856C44.8707 154.728 41.9067 161.856 44.4747 162.666C47.0427 163.476 51.0747 153.402 51.4467 150.24C51.8187 147.078 51.2427 141.84 51.2427 141.84C50.0607 143.652 46.8027 147.756 44.4027 151.272Z" fill="#EB9481"/>
<path d="M48.9013 162.276L29.7013 158.82C29.1013 158.772 28.7353 158.376 28.8373 157.932L30.5953 150.084C30.6915 149.852 30.8623 149.658 31.0808 149.535C31.2993 149.411 31.5528 149.363 31.8013 149.4L51.0013 152.838C51.6013 152.892 51.9673 153.288 51.8653 153.726L50.1073 161.574C50.0169 161.811 49.8479 162.01 49.6284 162.138C49.4089 162.266 49.1523 162.314 48.9013 162.276Z" fill="#A6A6A6"/>
<path d="M49.1232 161.352L29.8872 157.896C29.2872 157.842 28.9272 157.446 29.0232 157.008L30.7872 149.16C30.8765 148.923 31.0444 148.724 31.2629 148.596C31.4813 148.469 31.7371 148.42 31.9872 148.458L51.2232 151.914C51.8232 151.962 52.1832 152.358 52.0872 152.796L50.3412 160.65C50.2495 160.889 50.0784 161.089 49.8567 161.217C49.6349 161.345 49.376 161.392 49.1232 161.352Z" fill="#C7C7C7"/>
<path d="M48.7651 158.862C48.3211 158.694 47.9011 158.862 47.8291 159.234C47.8195 159.447 47.8808 159.658 48.0034 159.833C48.1261 160.007 48.3032 160.137 48.5071 160.2C48.9511 160.368 49.3711 160.2 49.4431 159.834C49.4541 159.62 49.3934 159.408 49.2707 159.232C49.1479 159.056 48.97 158.926 48.7651 158.862Z" fill="#263238"/>
<path d="M37.0735 134.64C33.1555 139.92 29.6875 146.136 29.6035 153.006C29.578 153.769 29.8082 154.518 30.2575 155.136C30.1675 158.208 31.5895 159.18 31.5895 159.18C32.3815 162.066 33.9895 162.858 33.9895 162.858C33.9895 162.858 34.2175 165.336 35.9635 165.3C37.7095 165.264 38.6695 161.202 40.1635 158.238C43.6615 151.434 50.0215 143.706 51.2215 141.846L37.0735 134.64Z" fill="#EB9481"/>
<path d="M38.3238 149.496C37.2801 151.476 36.3721 153.525 35.6058 155.628C34.9082 157.986 34.3868 160.392 34.0458 162.828C34.0458 162.844 34.0395 162.859 34.0282 162.87C34.017 162.881 34.0017 162.888 33.9858 162.888C33.9699 162.888 33.9546 162.881 33.9434 162.87C33.9321 162.859 33.9258 162.844 33.9258 162.828C34.1168 158.07 35.6066 153.455 38.2338 149.484C38.2938 149.358 38.4018 149.4 38.3238 149.496Z" fill="#263238"/>
<path d="M34.5239 146.789C33.6719 148.811 32.1959 152.369 31.6619 159.185C31.6619 159.185 31.6259 159.185 31.6199 159.185C31.3865 154.859 32.3586 150.553 34.4279 146.747C34.4939 146.627 34.5839 146.651 34.5239 146.789Z" fill="#263238"/>
<path d="M32.4604 145.373C31.1404 148.865 30.7444 151.235 30.2764 155.117H30.2344C30.3064 150.647 30.8344 149.027 32.3464 145.307C32.4004 145.199 32.5084 145.235 32.4604 145.373Z" fill="#263238"/>
</svg>
