<svg width="263" height="146" viewBox="0 0 263 146" fill="none" xmlns="http://www.w3.org/2000/svg">
<g clip-path="url(#clip0_1820_1664)">
<rect width="263" height="146" fill="#D6F8EC"/>
<path fill-rule="evenodd" clip-rule="evenodd" d="M37.731 104.735C74.5863 110.407 109.062 85.1285 114.734 48.2731C120.406 11.4178 95.1269 -23.0576 58.2716 -28.7297C21.4162 -34.4018 -13.0591 -9.12284 -18.7312 27.7325C-24.4034 64.5879 0.875618 99.0632 37.731 104.735ZM32.4893 75.4022C58.207 79.3602 95.9564 81.2814 99.9144 55.5637C103.872 29.8459 80.8884 -4.60486 55.1707 -8.56288C29.453 -12.5209 5.396 5.11882 1.43798 30.8366C-2.52005 56.5543 6.77151 71.4442 32.4893 75.4022Z" fill="#009C68" fill-opacity="0.04"/>
<path fill-rule="evenodd" clip-rule="evenodd" d="M230.369 59.8023C201.674 53.3917 173.214 71.4576 166.803 100.154C160.393 128.85 178.459 157.309 207.155 163.72C235.851 170.13 264.31 152.064 270.721 123.368C277.131 94.6725 259.065 66.2129 230.369 59.8023ZM232.943 83.1564C212.919 78.683 183.321 75.1762 178.848 95.2003C174.375 115.224 190.636 143.543 210.661 148.017C230.685 152.49 250.544 139.884 255.017 119.86C259.49 99.8354 252.967 87.6297 232.943 83.1564Z" fill="#009C68" fill-opacity="0.04"/>
</g>
<defs>
<clipPath id="clip0_1820_1664">
<rect width="263" height="146" fill="white"/>
</clipPath>
</defs>
</svg>
