<svg width="38" height="38" viewBox="0 0 38 38" fill="none" xmlns="http://www.w3.org/2000/svg">
<circle cx="19" cy="19" r="19" fill="#D6F8EC"/>
<path d="M15.332 17.1667V15.3333C15.332 12.8024 16.4678 10.75 18.9987 10.75C21.5296 10.75 22.6654 12.8024 22.6654 15.3333V17.1667M18.9987 22.4375V21.9792M22.6654 22.4375V21.9792M15.332 22.4375V21.9792M11.207 24.3167V20.1C11.207 19.0733 11.207 18.56 11.4069 18.1686C11.5825 17.8233 11.8629 17.5425 12.208 17.3665C12.6004 17.1676 13.1137 17.1676 14.1404 17.1676H23.857C24.8837 17.1676 25.397 17.1676 25.7894 17.3665C26.1343 17.5423 26.4148 17.8227 26.5905 18.1677C26.7904 18.56 26.7904 19.0733 26.7904 20.1V24.3167C26.7904 25.3433 26.7904 25.8567 26.5905 26.249C26.4148 26.5939 26.1343 26.8744 25.7894 27.0502C25.397 27.25 24.8837 27.25 23.857 27.25H14.1404C13.1137 27.25 12.6004 27.25 12.208 27.0502C11.8631 26.8744 11.5826 26.5939 11.4069 26.249C11.207 25.8576 11.207 25.3442 11.207 24.3167Z" stroke="#009C68" stroke-width="1.5" stroke-linecap="round" stroke-linejoin="round"/>
</svg>
