<svg width="40" height="30" viewBox="0 0 40 30" fill="none" xmlns="http://www.w3.org/2000/svg">
<path d="M8.5 0C7.30653 0 6.16193 0.474106 5.31802 1.31802C4.47411 2.16193 4 3.30653 4 4.5V19.5C4 20.6935 4.47411 21.8381 5.31802 22.682C6.16193 23.5259 7.30653 24 8.5 24H31.5C32.091 24 32.6761 23.8836 33.2221 23.6575C33.768 23.4313 34.2641 23.0998 34.682 22.682C35.0998 22.2641 35.4313 21.768 35.6575 21.2221C35.8836 20.6761 36 20.0909 36 19.5V4.5C36 3.90905 35.8836 3.32389 35.6575 2.77792C35.4313 2.23196 35.0998 1.73588 34.682 1.31802C34.2641 0.900156 33.768 0.568688 33.2221 0.342542C32.6761 0.116396 32.091 0 31.5 0H8.5ZM7 4.5C7 4.10218 7.15804 3.72064 7.43934 3.43934C7.72064 3.15804 8.10218 3 8.5 3H31.5C31.8978 3 32.2794 3.15804 32.5607 3.43934C32.842 3.72064 33 4.10218 33 4.5V19.5C33 19.8978 32.842 20.2794 32.5607 20.5607C32.2794 20.842 31.8978 21 31.5 21H8.5C8.10218 21 7.72064 20.842 7.43934 20.5607C7.15804 20.2794 7 19.8978 7 19.5V4.5ZM1.5 27C1.10218 27 0.720644 27.158 0.43934 27.4393C0.158035 27.7206 0 28.1022 0 28.5C0 28.8978 0.158035 29.2794 0.43934 29.5607C0.720644 29.842 1.10218 30 1.5 30H38.5C38.8978 30 39.2794 29.842 39.5607 29.5607C39.842 29.2794 40 28.8978 40 28.5C40 28.1022 39.842 27.7206 39.5607 27.4393C39.2794 27.158 38.8978 27 38.5 27H1.5Z" fill="#009C68"/>
</svg>
