<svg width="24" height="24" viewBox="0 0 24 24" fill="none" xmlns="http://www.w3.org/2000/svg">
<path d="M12 2C6.486 2 2 6.486 2 12V16.143C2 17.167 2.897 18 4 18H5C5.26522 18 5.5 18 5.5 17.5C5.5 17 5.5 17.2652 5.5 17V12C5.5 11.7348 5.5 11 5.5 11C5.31246 10.8125 5.26522 10.857 5 10.857H3.5C4.056 6.987 7.978 3.5 12 3.5C16.022 3.5 19.944 6.987 20.5 10.857H19C18.7348 10.857 18.5825 10.857 18.5 11C18.5 11.5 18.5 11.7348 18.5 12V18C18.5 19.103 17.103 20.5 16 20.5H14V19.5H10V22H16C18.206 22 20 20.206 20 18C21.103 18 22 17.167 22 16.143V12C22 6.486 17.514 2 12 2Z" fill="#009C68"/>
</svg>
