<svg width="30" height="30" viewBox="0 0 30 30" fill="none" xmlns="http://www.w3.org/2000/svg">
<path fill-rule="evenodd" clip-rule="evenodd" d="M17.1462 19.1141C18.6513 19.1141 19.8762 20.3303 19.8762 21.8253V25.6703C19.8762 25.9916 20.1338 26.2491 20.4638 26.2566H22.8463C24.7238 26.2566 26.25 24.7491 26.25 22.8966V11.9916C26.2412 11.3541 25.9375 10.7541 25.4163 10.3553L17.175 3.78281C16.0688 2.90656 14.5212 2.90656 13.4113 3.78531L5.22625 10.3528C4.685 10.7641 4.38125 11.3641 4.375 12.0128V22.8966C4.375 24.7491 5.90125 26.2566 7.77875 26.2566H10.1837C10.5225 26.2566 10.7975 25.9878 10.7975 25.6578C10.7975 25.5853 10.8062 25.5128 10.8212 25.4441V21.8253C10.8212 20.3391 12.0388 19.1241 13.5325 19.1141H17.1462ZM22.8463 28.1316H20.4412C19.0638 28.0991 18.0013 27.0178 18.0013 25.6703V21.8253C18.0013 21.3641 17.6175 20.9891 17.1462 20.9891H13.5388C13.0775 20.9916 12.6963 21.3678 12.6963 21.8253V25.6578C12.6963 25.7516 12.6838 25.8416 12.6575 25.9266C12.5225 27.1641 11.465 28.1316 10.1837 28.1316H7.77875C4.8675 28.1316 2.5 25.7828 2.5 22.8966V12.0041C2.5125 10.7616 3.085 9.62407 4.07375 8.87532L12.2425 2.31906C14.0412 0.894063 16.5475 0.894062 18.3425 2.31656L26.57 8.87907C27.5363 9.61532 28.1087 10.7503 28.125 11.9778V22.8966C28.125 25.7828 25.7575 28.1316 22.8463 28.1316Z" fill="#009C68"/>
</svg>
