<svg width="22" height="22" viewBox="0 0 22 22" fill="none" xmlns="http://www.w3.org/2000/svg">
<path d="M19.9375 6.1875V15.8125C19.9375 16.1772 19.7926 16.5269 19.5348 16.7848C19.2769 17.0426 18.9272 17.1875 18.5625 17.1875H3.4375C3.07283 17.1875 2.72309 17.0426 2.46523 16.7848C2.20737 16.5269 2.0625 16.1772 2.0625 15.8125V6.1875M19.9375 6.1875C19.9375 5.82283 19.7926 5.47309 19.5348 5.21523C19.2769 4.95737 18.9272 4.8125 18.5625 4.8125H3.4375C3.07283 4.8125 2.72309 4.95737 2.46523 5.21523C2.20737 5.47309 2.0625 5.82283 2.0625 6.1875M19.9375 6.1875L11.7824 11.8332C11.5525 11.9923 11.2796 12.0775 11 12.0775C10.7204 12.0775 10.4475 11.9923 10.2176 11.8332L2.0625 6.1875" stroke="#009C68" stroke-width="1.3" stroke-linecap="round" stroke-linejoin="round"/>
</svg>
