<svg width="42" height="42" viewBox="0 0 42 42" fill="none" xmlns="http://www.w3.org/2000/svg">
<path d="M28.6 17.2001L32.685 18.4256C35.2937 19.2084 36.599 19.5998 37.3495 20.6106C38.1 21.6176 38.1 22.9818 38.1 25.7045V40M13.4 15.3001H19.1M13.4 22.9001H19.1M21 40V34.3C21 32.5083 21 31.6134 20.4433 31.0567C19.8866 30.5 18.9917 30.5 17.2 30.5H15.3C13.5083 30.5 12.6134 30.5 12.0567 31.0567C11.5 31.6134 11.5 32.5083 11.5 34.3V40M2 40H40M3.9 40V10.9625C3.9 6.19348 3.9 3.80709 5.4029 2.6234C6.9058 1.4397 9.1193 2.0838 13.5482 3.36819L23.0482 6.12508C25.7196 6.90027 27.0553 7.28787 27.8267 8.34617C28.6 9.40256 28.6 10.8409 28.6 13.7212V40" stroke="#008458" stroke-width="2.3" stroke-linecap="round" stroke-linejoin="round"/>
</svg>
