<svg width="22" height="22" viewBox="0 0 22 22" fill="none" xmlns="http://www.w3.org/2000/svg">
<path d="M15.2447 12.7336L15.6627 12.3183L14.692 11.343L14.2758 11.7583L15.2447 12.7336ZM17.0643 12.1442L18.816 13.0966L19.4715 11.8884L17.7206 10.9369L17.0643 12.1442ZM19.1525 14.9886L17.8508 16.2838L18.8197 17.2582L20.1214 15.9639L19.1525 14.9886ZM17.057 16.7C15.7278 16.8247 12.2903 16.7137 8.56679 13.0122L7.59696 13.9867C11.6596 18.0264 15.527 18.2244 17.1853 18.0695L17.057 16.7ZM8.56679 13.0122C5.01838 9.48308 4.42988 6.51583 4.35654 5.22792L2.98338 5.30583C3.07504 6.9265 3.80379 10.2155 7.59696 13.9867L8.56679 13.0122ZM9.82721 7.34725L10.0903 7.08508L9.12229 6.11067L8.85921 6.37192L9.82721 7.34725ZM10.2993 3.753L9.14429 2.20933L8.04338 3.03433L9.19838 4.57708L10.2993 3.753ZM5.25671 1.87292L3.81754 3.30292L4.78738 4.27825L6.22563 2.84825L5.25671 1.87292ZM9.34321 6.85958C8.85738 6.37192 8.85738 6.37192 8.85738 6.37375H8.85555L8.85279 6.37742C8.80951 6.42159 8.77053 6.46978 8.73638 6.52133C8.68688 6.59467 8.63279 6.69092 8.58696 6.81283C8.47534 7.12754 8.44754 7.46588 8.50629 7.79458C8.62913 8.5875 9.17546 9.63525 10.5743 11.0268L11.5441 10.0514C10.2342 8.74975 9.92254 7.95775 9.86479 7.58375C9.8373 7.40592 9.86571 7.31792 9.87396 7.29775C9.87855 7.28492 9.88038 7.284 9.87396 7.29225C9.86588 7.30496 9.85667 7.31693 9.84646 7.328L9.83729 7.33717C9.83433 7.34002 9.83127 7.34277 9.82813 7.34542L9.34321 6.85958ZM10.5743 11.0268C11.974 12.4183 13.0273 12.9609 13.8211 13.0819C14.2272 13.1442 14.5545 13.0948 14.8029 13.0022C14.9418 12.9508 15.0717 12.8777 15.1879 12.7858C15.2037 12.7726 15.2189 12.7589 15.2337 12.7446L15.2401 12.7391L15.2429 12.7363L15.2438 12.7345C15.2438 12.7345 15.2447 12.7336 14.7598 12.2459C14.274 11.7583 14.2767 11.7573 14.2767 11.7573L14.2785 11.7555L14.2804 11.7537L14.2859 11.7491L14.295 11.7399C14.3061 11.73 14.3177 11.7208 14.3299 11.7124C14.339 11.706 14.3363 11.7088 14.3235 11.7143C14.3005 11.7225 14.2107 11.7509 14.0301 11.7234C13.6506 11.6648 12.8531 11.3531 11.5441 10.0514L10.5743 11.0268ZM9.14429 2.20842C8.20929 0.96175 6.37229 0.76375 5.25671 1.87292L6.22563 2.84825C6.71329 2.36333 7.57863 2.41375 8.04338 3.03433L9.14429 2.20842ZM4.35746 5.22883C4.33913 4.91167 4.48488 4.57983 4.78738 4.27917L3.81663 3.30383C3.32438 3.79333 2.93663 4.48633 2.98338 5.30583L4.35746 5.22883ZM17.8508 16.2838C17.5996 16.535 17.3283 16.6762 17.0579 16.7009L17.1853 18.0695C17.859 18.0063 18.41 17.6671 18.8206 17.2592L17.8508 16.2838ZM10.0903 7.08508C10.9932 6.18767 11.0601 4.76958 10.3002 3.75392L9.1993 4.578C9.56871 5.07208 9.51371 5.72017 9.12138 6.11158L10.0903 7.08508ZM18.817 13.0975C19.5659 13.5045 19.6823 14.4633 19.1534 14.9895L20.1232 15.9639C21.3515 14.742 20.973 12.7043 19.4724 11.8893L18.817 13.0975ZM15.6627 12.3193C16.0147 11.9691 16.5812 11.8829 17.0652 12.1451L17.7215 10.9378C16.7279 10.397 15.4959 10.5464 14.6929 11.3439L15.6627 12.3193Z" fill="#009C68"/>
</svg>
