<svg width="20" height="24" viewBox="0 0 20 24" fill="none" xmlns="http://www.w3.org/2000/svg">
<g clip-path="url(#clip0_1727_1787)">
<path d="M1.27344 4.81062L10.2779 2.18262L19.2734 4.81062V10.1996C19.2734 12.9615 18.4043 15.6533 16.7892 17.8937C15.1742 20.1341 12.8952 21.8095 10.2749 22.6826C7.65392 21.8097 5.37408 20.134 3.75849 17.8931C2.14289 15.6522 1.27348 12.9597 1.27344 10.1971V4.81062Z" stroke="#009C68" stroke-width="1.5" stroke-linejoin="round"/>
<path d="M10 14.597C9.73478 14.597 9.48043 14.4766 9.29289 14.2622C9.10536 14.0479 9 13.7572 9 13.4541C9 12.8198 9.445 12.3112 10 12.3112C10.2652 12.3112 10.5196 12.4317 10.7071 12.646C10.8946 12.8603 11 13.151 11 13.4541C11 13.7572 10.8946 14.0479 10.7071 14.2622C10.5196 14.4766 10.2652 14.597 10 14.597ZM13 16.3112V10.597H7V16.3112H13ZM13 9.4541C13.2652 9.4541 13.5196 9.57451 13.7071 9.78884C13.8946 10.0032 14 10.2939 14 10.597V16.3112C14 16.6143 13.8946 16.905 13.7071 17.1194C13.5196 17.3337 13.2652 17.4541 13 17.4541H7C6.73478 17.4541 6.48043 17.3337 6.29289 17.1194C6.10536 16.905 6 16.6143 6 16.3112V10.597C6 9.96267 6.445 9.4541 7 9.4541H7.5V8.31124C7.5 7.55348 7.76339 6.82676 8.23223 6.29094C8.70107 5.75512 9.33696 5.4541 10 5.4541C10.3283 5.4541 10.6534 5.528 10.9567 5.67159C11.26 5.81517 11.5356 6.02563 11.7678 6.29094C11.9999 6.55625 12.1841 6.87122 12.3097 7.21786C12.4353 7.56451 12.5 7.93604 12.5 8.31124V9.4541H13ZM10 6.59696C9.60218 6.59696 9.22064 6.77757 8.93934 7.09906C8.65804 7.42055 8.5 7.85659 8.5 8.31124V9.4541H11.5V8.31124C11.5 7.85659 11.342 7.42055 11.0607 7.09906C10.7794 6.77757 10.3978 6.59696 10 6.59696Z" fill="#009C68"/>
</g>
<defs>
<clipPath id="clip0_1727_1787">
<rect width="20" height="24" fill="white"/>
</clipPath>
</defs>
</svg>
