<svg width="30" height="30" viewBox="0 0 30 30" fill="none" xmlns="http://www.w3.org/2000/svg">
<path fill-rule="evenodd" clip-rule="evenodd" d="M19.4793 1.92088C19.2548 1.73923 19.0048 1.59044 18.737 1.47948C18.3712 1.32798 17.9791 1.25 17.5832 1.25C17.1873 1.25 16.7952 1.32798 16.4294 1.47948C16.0637 1.63099 15.7313 1.85305 15.4513 2.13299L2.1331 15.4513C1.85313 15.7312 1.63104 16.0635 1.47951 16.4293C1.32799 16.795 1.25 17.187 1.25 17.5829C1.25 17.9788 1.32799 18.3708 1.47951 18.7365C1.63104 19.1022 1.85313 19.4345 2.1331 19.7145L3.4682 21.0511C4.16762 21.7504 5.16679 21.6299 5.78696 21.2923C6.19528 21.0695 6.66476 20.9849 7.12516 21.0512C7.58556 21.1174 8.01213 21.331 8.34104 21.6598C8.66994 21.9887 8.88351 22.4152 8.94978 22.8756C9.01605 23.3359 8.93146 23.8053 8.70867 24.2136C8.3693 24.8337 8.25043 25.831 8.94985 26.5321L10.285 27.867C10.5649 28.1469 10.8973 28.369 11.263 28.5205C11.6288 28.672 12.0209 28.75 12.4168 28.75C12.8127 28.75 13.2048 28.672 13.5706 28.5205C13.9363 28.369 14.2687 28.1469 14.5486 27.867L22.4146 20H19.9756L13.3273 26.6475C13.2073 26.7675 13.0648 26.8628 12.908 26.9277C12.7512 26.9927 12.5831 27.0262 12.4134 27.0262C12.2436 27.0262 12.0755 26.9927 11.9187 26.9277C11.7619 26.8628 11.6194 26.7675 11.4995 26.6475L10.1661 25.3125C10.1626 25.308 10.1598 25.2925 10.1575 25.266C10.1601 25.1872 10.1807 25.11 10.2178 25.0404C10.6202 24.3053 10.7735 23.4595 10.6546 22.6299C10.5358 21.8004 10.1512 21.0317 9.55851 20.4391C8.96585 19.8465 8.19705 19.462 7.36737 19.3431C6.53769 19.2243 5.69184 19.3775 4.95662 19.7799C4.88646 19.8172 4.80865 19.8378 4.72922 19.8402L4.68271 19.8316L3.34761 18.4967C3.10566 18.2544 2.96975 17.9261 2.96975 17.5837C2.96975 17.2414 3.10566 16.913 3.34761 16.6708L16.671 3.35079C16.9133 3.10887 17.2417 2.97298 17.5841 2.97298C17.9071 2.97298 18.2177 3.09394 18.4552 3.3108L19.4793 1.92088Z" fill="#009C68"/>
<path d="M23.2619 1.31042C23.382 1.15384 23.618 1.15384 23.7381 1.31042L28.6299 7.68931C28.7813 7.88666 28.6406 8.17187 28.3919 8.17187L25.484 8.17187C25.3183 8.17187 25.184 8.30619 25.184 8.47187L25.184 17.7C25.184 17.8657 25.0496 18 24.884 18H22.1146C21.9489 18 21.8146 17.8657 21.8146 17.7L21.8146 8.47187C21.8146 8.30619 21.6803 8.17187 21.5146 8.17187L18.6081 8.17187C18.3594 8.17187 18.2187 7.88666 18.3701 7.68931L23.2619 1.31042Z" stroke="#009C68" stroke-width="1.3"/>
</svg>
