<svg width="24" height="24" viewBox="0 0 24 24" fill="none" xmlns="http://www.w3.org/2000/svg">
<path d="M11.9991 4.52857C13.1419 3.50623 14.6327 2.9602 16.1654 3.0026C17.6982 3.045 19.1566 3.67262 20.2411 4.75657C21.3244 5.83976 21.9524 7.29632 21.9963 8.82766C22.0402 10.359 21.4966 11.8491 20.4771 12.9926L11.9971 21.4846L3.51907 12.9926C2.49832 11.8485 1.95427 10.3571 1.99861 8.82456C2.04294 7.29198 2.67229 5.83453 3.75746 4.7514C4.84263 3.66828 6.30128 3.04168 7.83393 3.00024C9.36659 2.9588 10.857 3.50567 11.9991 4.52857ZM18.8251 6.16957C18.1024 5.44814 17.1312 5.0304 16.1105 5.00196C15.0897 4.97351 14.0968 5.33651 13.3351 6.01657L12.0001 7.21457L10.6641 6.01757C9.90574 5.33947 8.91753 4.97577 7.90054 5.0005C6.88354 5.02522 5.91417 5.43651 5.18969 6.15067C4.46521 6.86483 4.04006 7.82819 4.00074 8.84473C3.96143 9.86127 4.31091 10.8546 4.97807 11.6226L11.9981 18.6536L19.0181 11.6236C19.6824 10.859 20.032 9.87082 19.9961 8.85855C19.9603 7.84628 19.5418 6.8853 18.8251 6.16957Z" fill="#009C68"/>
</svg>
