<svg width="30" height="30" viewBox="0 0 30 30" fill="none" xmlns="http://www.w3.org/2000/svg">
<path d="M18.4971 3.35079C18.2548 3.10887 17.9264 2.97298 17.5841 2.97298C17.2417 2.97298 16.9133 3.10887 16.671 3.35079L3.34761 16.6708C3.10566 16.913 2.96975 17.2414 2.96975 17.5837C2.96975 17.9261 3.10566 18.2544 3.34761 18.4967L4.68271 19.8316L4.72922 19.8402C4.80865 19.8378 4.88646 19.8172 4.95662 19.7799C5.69184 19.3775 6.53769 19.2243 7.36737 19.3431C8.19705 19.462 8.96585 19.8465 9.55851 20.4391C10.1512 21.0317 10.5358 21.8004 10.6546 22.6299C10.7735 23.4595 10.6202 24.3053 10.2178 25.0404C10.1807 25.11 10.1601 25.1872 10.1575 25.266C10.1598 25.2925 10.1626 25.308 10.1661 25.3125L11.4995 26.6475C11.6194 26.7675 11.7619 26.8628 11.9187 26.9277C12.0755 26.9927 12.2436 27.0262 12.4134 27.0262C12.5831 27.0262 12.7512 26.9927 12.908 26.9277C13.0648 26.8628 13.2073 26.7675 13.3273 26.6475L26.6472 13.3292C26.8892 13.087 27.0251 12.7586 27.0251 12.4163C27.0251 12.0739 26.8892 11.7456 26.6472 11.5033L25.3138 10.1684C25.2983 10.1633 25.282 10.1604 25.2656 10.1598C25.1868 10.1624 25.1096 10.183 25.0399 10.2201C24.3047 10.6225 23.4589 10.7757 22.6292 10.6569C21.7995 10.538 21.0307 10.1535 20.438 9.56091C19.8454 8.96832 19.4608 8.19962 19.3419 7.37005C19.2231 6.54047 19.3764 5.69472 19.7788 4.9596C19.8161 4.88945 19.8367 4.81165 19.8391 4.73223L19.8305 4.68745L18.4971 3.35079ZM15.4513 2.13299C15.7313 1.85305 16.0637 1.63099 16.4294 1.47948C16.7952 1.32798 17.1873 1.25 17.5832 1.25C17.9791 1.25 18.3712 1.32798 18.737 1.47948C19.1027 1.63099 19.4351 1.85305 19.715 2.13299L21.0501 3.46792C21.7513 4.16898 21.6307 5.1663 21.2913 5.7864C21.0685 6.19466 20.9839 6.66409 21.0502 7.12443C21.1165 7.58477 21.3301 8.01128 21.659 8.34015C21.9879 8.66901 22.4144 8.88255 22.8748 8.94882C23.3352 9.01508 23.8047 8.9305 24.213 8.70774C24.8332 8.36841 25.8324 8.24956 26.5318 8.94889L27.8669 10.2838C28.1469 10.5637 28.369 10.896 28.5205 11.2618C28.672 11.6275 28.75 12.0195 28.75 12.4154C28.75 12.8113 28.672 13.2033 28.5205 13.569C28.369 13.9348 28.1469 14.2671 27.8669 14.547L14.5486 27.867C14.2687 28.1469 13.9363 28.369 13.5706 28.5205C13.2048 28.672 12.8127 28.75 12.4168 28.75C12.0209 28.75 11.6288 28.672 11.263 28.5205C10.8973 28.369 10.5649 28.1469 10.285 27.867L8.94985 26.5321C8.25043 25.831 8.3693 24.8337 8.70867 24.2136C8.93146 23.8053 9.01605 23.3359 8.94978 22.8756C8.88351 22.4152 8.66994 21.9887 8.34104 21.6598C8.01213 21.331 7.58556 21.1174 7.12516 21.0512C6.66476 20.9849 6.19528 21.0695 5.78696 21.2923C5.16679 21.6299 4.16762 21.7504 3.4682 21.0511L2.1331 19.7145C1.85313 19.4345 1.63104 19.1022 1.47951 18.7365C1.32799 18.3707 1.25 17.9788 1.25 17.5829C1.25 17.187 1.32799 16.795 1.47951 16.4293C1.63104 16.0635 1.85313 15.7312 2.1331 15.4513L15.4513 2.13299Z" fill="#009C68"/>
</svg>
