<svg width="30" height="30" viewBox="0 0 30 30" fill="none" xmlns="http://www.w3.org/2000/svg">
<path d="M15.4513 2.13299C15.7313 1.85305 16.0637 1.63099 16.4294 1.47948C16.7952 1.32798 17.1873 1.25 17.5832 1.25C17.9791 1.25 18.3712 1.32798 18.737 1.47948C19.1027 1.63099 19.4351 1.85305 19.715 2.13299L21.0501 3.46792C21.7513 4.16898 21.6307 5.1663 21.2913 5.7864C21.0685 6.19466 20.9839 6.66409 21.0502 7.12443C21.1165 7.58477 21.3301 8.01128 21.659 8.34015C21.9879 8.66901 22.4144 8.88255 22.8748 8.94882C23.3352 9.01508 23.8047 8.9305 24.213 8.70774C24.8332 8.36841 25.8324 8.24956 26.5318 8.94889L27.8669 10.2838C28.1469 10.5637 28.369 10.896 28.5205 11.2618C28.672 11.6275 28.75 12.0195 28.75 12.4154C28.75 12.8113 28.672 13.2033 28.5205 13.569C28.369 13.9348 28.1469 14.2671 27.8669 14.547L14.5486 27.867C14.2687 28.1469 13.9363 28.369 13.5706 28.5205C13.2048 28.672 12.8127 28.75 12.4168 28.75C12.0209 28.75 11.6288 28.672 11.263 28.5205C10.8973 28.369 10.5649 28.1469 10.285 27.867L8.94985 26.5321C8.25043 25.831 8.3693 24.8337 8.70867 24.2136C8.93146 23.8053 9.01605 23.3359 8.94978 22.8756C8.88351 22.4152 8.66994 21.9887 8.34104 21.6598C8.01213 21.331 7.58556 21.1174 7.12516 21.0512C6.66476 20.9849 6.19528 21.0695 5.78696 21.2923C5.16679 21.6299 4.16762 21.7504 3.4682 21.0511L2.1331 19.7145C1.85313 19.4345 1.63104 19.1022 1.47951 18.7365C1.32799 18.3708 1.25 17.9788 1.25 17.5829C1.25 17.187 1.32799 16.795 1.47951 16.4293C1.63104 16.0635 1.85313 15.7312 2.1331 15.4513L15.4513 2.13299Z" fill="#009C68"/>
</svg>
