<svg width="38" height="38" viewBox="0 0 38 38" fill="none" xmlns="http://www.w3.org/2000/svg">
<circle cx="19" cy="19" r="19" fill="#D6F8EC"/>
<path d="M23 17.0001L25.15 17.6451C26.523 18.0571 27.21 18.2631 27.605 18.7951C28 19.3251 28 20.043 28 21.476V29M15 16.0001H18M15 20H18M19 29V26C19 25.057 19 24.586 18.707 24.293C18.414 24 17.943 24 17 24H16C15.057 24 14.586 24 14.293 24.293C14 24.586 14 25.057 14 26V29M9 29H29M10 29V13.7171C10 11.2071 10 9.9511 10.791 9.3281C11.582 8.70511 12.747 9.04411 15.078 9.7201L20.078 11.1711C21.484 11.5791 22.187 11.7831 22.593 12.3401C23 12.8961 23 13.6531 23 15.1691V29" stroke="#009C68" stroke-width="1.3" stroke-linecap="round" stroke-linejoin="round"/>
</svg>
